<svg width="68" height="68" viewBox="0 0 68 68" fill="none" xmlns="http://www.w3.org/2000/svg">
<g clip-path="url(#clip0_1_57)">
<path d="M33.78 48L16.0955 65.8556L15.8985 66C14.1475 67.4222 12.0902 68.0111 10.0438 67.9667L10 68H58C63.5228 68 68 63.5228 68 58V58C68 52.4772 63.5228 48 58 48H33.78Z" fill="#FFE2E2"/>
<path opacity="0.1" d="M38 48H33.347L15.6132 65.8556L15.4156 66C14.9657 66.3667 14.4829 66.6778 14 66.9333L14.8779 67.5111L15.5144 68H18.2579L38 48Z" fill="black"/>
<path d="M17.0329 65L55.017 26.981C58.8747 23.1198 58.8747 16.8634 55.017 13.0022V13.0022C51.1544 9.13605 44.8881 9.13605 41.0254 13.0022L19.6464 34.4009V58.2845C19.6464 60.8784 18.6362 63.2195 17 64.978C17.011 64.989 17.022 64.989 17.0329 65Z" fill="#ECF1FF"/>
<path d="M41 19.1053L48.1048 12L56 19.8947L48.8952 27L41 19.1053Z" fill="#ECF1FF"/>
<path d="M34 26.1059L41.1048 19L49 26.8941L41.8952 34L34 26.1059Z" fill="#B1C7FF"/>
<path d="M27 33.1053L34.1048 26L42 33.8936L34.8952 41L27 33.1053Z" fill="#789CFF"/>
<path d="M20 40.1053L27.1048 33L35 40.8947L27.8952 48L20 40.1053Z" fill="#5F8BFF"/>
<path d="M10 68C7.34784 68 4.8043 66.96 2.92893 65.1089C1.05357 63.2577 0 60.747 0 58.129V10C0 4.47715 4.47715 0 10 0V0C15.5228 0 20 4.47715 20 10V58.129C20 59.4253 19.7413 60.7089 19.2388 61.9065C18.7363 63.1041 17.9997 64.1923 17.0711 65.1089C16.1425 66.0255 15.0401 66.7526 13.8268 67.2486C12.6136 67.7447 11.3132 68 10 68Z" fill="#FFF6DA"/>
<path d="M4 4H15V14H4V4Z" fill="#FFF6DA"/>
<path d="M4 14H15V24H4V14Z" fill="#FFEEB7"/>
<path d="M4 24H15V34H4V24Z" fill="#FFDE70"/>
<path d="M4 34H15V44H4V34Z" fill="#FFCE5B"/>
<path d="M4 44H15V54H4V44Z" fill="#FFA900"/>
<path d="M54 53H64V64H54V53Z" fill="#FFE2E2"/>
<path d="M44 53H54V64H44V53Z" fill="#FFC6C6"/>
<path d="M34 53H44V64H34V53Z" fill="#FF9898"/>
<path d="M24 58.203V64H34V53H29.2556L24 58.203Z" fill="#FF6868"/>
<path d="M20.4075 40L20 40.4353V53.7835L21.1689 55L28 47.9018L20.4075 40Z" fill="#3462FF"/>
<path d="M10 64C11.6569 64 13 62.6569 13 61C13 59.3431 11.6569 58 10 58C8.34315 58 7 59.3431 7 61C7 62.6569 8.34315 64 10 64Z" fill="url(#paint0_linear_1_57)"/>
<path d="M18 64H24V58L18 64Z" fill="#EB2323"/>
<path opacity="0.1" d="M23 58.2639V31L19.6728 34.3074V58.2639C19.6728 60.8658 18.6525 63.214 17 64.9779C17.0111 64.989 17.0222 64.989 17.0333 65L22.9556 59.1128C22.9778 58.8262 23 58.5506 23 58.2639Z" fill="black"/>
</g>
<defs>
<linearGradient id="paint0_linear_1_57" x1="10" y1="63.8386" x2="10" y2="58.7182" gradientUnits="userSpaceOnUse">
<stop stop-color="#3462FF"/>
<stop offset="1" stop-color="#789CFF"/>
</linearGradient>
<clipPath id="clip0_1_57">
<rect width="68" height="68" fill="white"/>
</clipPath>
</defs>
</svg>
