<svg width="68" height="68" viewBox="0 0 68 68" fill="none" xmlns="http://www.w3.org/2000/svg">
<path d="M55.7 4H12.3C9.83575 4.00736 7.47453 4.98954 5.73204 6.73204C3.98954 8.47453 3.00736 10.8358 3 13.3V40.766L15.028 28.738C16.8003 27.0512 19.1533 26.1104 21.6 26.1104C24.0467 26.1104 26.3997 27.0512 28.172 28.738L37.0721 37.6877L39.8249 34.9349C41.5721 33.1975 43.936 32.2222 46.4 32.2222C48.864 32.2222 51.2279 33.1975 52.9751 34.9349L65 46.966V13.3C64.9926 10.8358 64.0104 8.47453 62.2679 6.73204C60.5255 4.98954 58.1642 4.00736 55.7 4Z" fill="#B2B1FF"/>
<path d="M28.172 28.738C26.3997 27.0512 24.0467 26.1104 21.6 26.1104C19.1533 26.1104 16.8003 27.0512 15.028 28.738L3 40.766V56.7C3.00736 59.1643 3.98954 61.5255 5.73204 63.268C7.47453 65.0105 9.83575 65.9926 12.3 66H55.7C58.2265 66 60.6445 64.9677 62.396 63.148L28.172 28.738Z" fill="#6563FF"/>
<path d="M65 46.9598L52.9751 34.9349C51.2279 33.1975 48.864 32.2222 46.4 32.2222C43.936 32.2222 41.5721 33.1975 39.8249 34.9349L37.0721 37.6877L62.3836 63.1356C64.0638 61.4151 65.0031 59.1056 65 56.7V46.9598Z" fill="#D8D8FF"/>
<circle cx="62" cy="24" r="6" fill="#4B66F3"/>
<circle cx="7" cy="49" r="7" fill="#B2B1FF"/>
<circle cx="17" cy="6" r="5" fill="#6563FF"/>
</svg>
