<svg width="500" height="319" viewBox="0 0 500 319" fill="none" xmlns="http://www.w3.org/2000/svg">
<path d="M70.676 306.155C55.7818 287.952 56.7368 261.17 60.1458 241.862C63.8081 220.947 71.1286 204.142 71.1784 203.993H99.9661C100.07 204.142 107.341 220.947 111.003 241.862C114.412 261.12 115.313 287.952 100.469 306.155H70.676Z" fill="#CECDCE"/>
<path d="M58.3354 272.505C59.3403 284.539 62.7991 296.576 70.622 306.155H100.415C108.287 296.526 111.7 284.539 112.701 272.505H58.3354Z" fill="#FFC930"/>
<path opacity="0.2" d="M76.9418 241.862C80.6041 220.947 87.9246 204.142 87.9744 203.993H71.1743C71.1245 204.142 63.804 220.947 60.1417 241.862C56.7285 261.12 55.8275 287.952 70.6719 306.155H87.4761C72.5778 287.952 73.5328 261.17 76.9418 241.862Z" fill="#5C5C5C"/>
<path d="M85.5744 212.92C75.2934 212.92 71.2283 204.043 71.1785 203.993H99.9662C99.9163 204.092 95.8554 212.92 85.5744 212.92Z" fill="#5C5C5C"/>
<path d="M58.3894 272.505H112.705" stroke="#5C5C5C" stroke-width="4" stroke-linecap="round" stroke-linejoin="round"/>
<path d="M87.8289 208.506C89.4358 196.822 93.3472 177.613 102.324 165.327" stroke="#231F20" stroke-width="4" stroke-linecap="round" stroke-linejoin="round"/>
<path d="M83.9674 208.506C81.9618 193.612 77.249 165.273 69.2227 147.368" stroke="#231F20" stroke-width="4" stroke-linecap="round" stroke-linejoin="round"/>
<path d="M95.2034 185.789C93.5965 183.983 93.0982 182.476 93.6463 181.425C94.5515 179.619 98.4132 179.216 104.48 180.221C110.55 181.222 118.074 183.53 125.748 186.74C136.581 191.254 145.608 196.772 149.42 201.086C151.022 202.888 151.525 204.396 150.973 205.446C150.072 207.252 146.21 207.655 140.139 206.65C134.073 205.65 126.549 203.341 118.876 200.131C108.042 195.568 98.9654 190.099 95.2034 185.789Z" fill="#231F20"/>
<path d="M21.9781 159.709C21.5794 159.107 21.3262 158.554 21.3262 158.002C21.2265 156.246 22.9331 154.842 26.1428 153.991C29.3525 153.19 33.7165 153.036 38.3795 153.588C46.3519 154.543 53.4772 157.4 55.6821 160.51C56.0848 161.112 56.334 161.665 56.334 162.217C56.5831 165.825 48.9097 167.781 39.2308 166.631C31.3082 165.676 24.1871 162.819 21.9781 159.709Z" fill="#231F20"/>
<path d="M40.4349 201.285C34.6674 202.888 30.9055 202.689 30.1539 200.634C28.7006 196.822 38.0764 187.845 51.0689 180.624C56.6869 177.514 62.3506 175.056 67.0178 173.752C72.7853 172.145 76.5472 172.348 77.2988 174.404C78.0005 176.26 76.2441 179.37 72.2829 183.128C68.3216 186.89 62.7036 190.905 56.3838 194.413C50.8156 197.524 45.0979 199.932 40.4349 201.285Z" fill="#231F20"/>
<path d="M95.9673 102.914C96.8891 98.7991 93.995 94.6593 89.5064 93.6544C85.0219 92.6537 80.6371 95.17 79.7195 99.2766C78.7977 103.383 81.6918 107.531 86.1804 108.536C90.6649 109.541 95.0455 107.021 95.9673 102.914Z" fill="#231F20"/>
<path d="M70.0114 149.029C80.1762 144.291 85.0634 133.242 80.9194 124.356C76.7755 115.466 65.174 112.103 55.0051 116.841C44.8403 121.583 39.9531 132.632 44.0971 141.518C48.2411 150.404 59.8383 153.771 70.0114 149.029Z" fill="#FFC930"/>
<path d="M63.7582 135.617C65.4606 134.82 66.2911 132.976 65.5977 131.498C64.9042 130.012 62.9651 129.459 61.2544 130.253C59.5478 131.05 58.7256 132.898 59.4149 134.376C60.1042 135.858 62.0516 136.415 63.7582 135.617Z" fill="black"/>
<path d="M125.681 164.21C129.775 156.383 125.831 146.235 116.874 141.551C107.913 136.867 97.3335 139.417 93.2352 147.244C89.1452 155.075 93.0857 165.219 102.042 169.903C111.003 174.595 121.583 172.041 125.681 164.21Z" fill="#FFC930"/>
<path d="M112.481 157.309C113.237 155.86 112.502 153.979 110.833 153.107C109.159 152.235 107.195 152.7 106.44 154.149C105.68 155.594 106.419 157.479 108.088 158.355C109.757 159.227 111.725 158.758 112.481 157.309Z" fill="black"/>
<path d="M226.61 216.317H274.349C284.127 216.317 292.029 224.219 292.029 233.997V287.873C292.029 297.647 284.127 305.553 274.349 305.553H184.282C180.848 305.553 178.145 302.742 178.145 299.416C178.145 295.982 180.848 293.175 184.282 293.175C184.282 293.175 184.282 293.175 184.386 293.175H209.137V233.997C209.034 224.219 216.94 216.317 226.61 216.317Z" fill="#545454"/>
<path opacity="0.2" d="M226.61 215.378H274.349C284.128 215.378 292.029 223.284 292.029 233.063V279.448L209.137 259.268V233.063C209.034 223.284 216.94 215.378 226.61 215.378Z" fill="black"/>
<path d="M395.932 37.8438H164.002C148.817 37.8438 134.255 50.1179 131.656 65.4066L103.159 226.822C100.456 242.007 110.646 254.381 125.83 254.381H357.76C372.945 254.381 387.507 242.111 390.106 226.822L418.603 65.4066C421.306 50.1179 411.112 37.8438 395.932 37.8438Z" fill="#545454"/>
<path d="M379.912 62.392H171.385C163.271 62.392 155.681 68.9443 154.224 76.9499L131.656 204.981H369.407L391.979 76.9499C393.328 68.9443 388.026 62.392 379.912 62.392Z" fill="#D6D6D6"/>
<path d="M292.781 254.455H208.402" stroke="black" stroke-width="4" stroke-linecap="round" stroke-linejoin="round"/>
<path d="M279.236 52.9872C280.685 51.6667 280.934 49.6072 279.809 48.3823C278.688 47.1532 276.608 47.228 275.159 48.5484C273.726 49.8564 273.464 51.9283 274.59 53.1533C275.723 54.3823 277.804 54.3076 279.236 52.9872Z" fill="black"/>
<path d="M218.032 124.224L222.641 100.265H206.967C202.172 100.265 198.052 103.668 197.147 108.376L194.098 124.224L193.542 127.113L189.497 148.153L187.18 160.197C185.993 166.365 190.719 172.087 197 172.087H208.826L213.431 148.153L218.032 124.224Z" fill="#163C4F"/>
<path d="M241.7 124.224L246.309 100.265H222.375L217.766 124.224L217.209 127.113L213.165 148.153L208.56 172.087H232.494L237.099 148.153L241.7 124.224Z" fill="#394354"/>
<path d="M265.368 124.224L269.977 100.265H246.043L241.434 124.224L240.877 127.113L236.833 148.153L232.228 172.087H256.162L260.767 148.153L265.368 124.224Z" fill="#5C4A59"/>
<path d="M288.205 124.224L292.814 100.265H268.88L264.271 124.224L263.715 127.113L259.671 148.153L255.066 172.087H278.999L283.604 148.153L288.205 124.224Z" fill="#7E505E"/>
<path d="M311.458 124.224L316.067 100.265H292.133L287.524 124.224L286.968 127.113L282.923 148.153L278.318 172.087H302.252L306.857 148.153L311.458 124.224Z" fill="#A15763"/>
<path d="M334.71 124.224L337.032 112.154C338.219 105.987 333.493 100.265 327.212 100.265H315.386L310.777 124.224L310.22 127.113L306.176 148.153L301.571 172.087H317.245C322.04 172.087 326.16 168.684 327.065 163.976L330.11 148.153L334.71 124.224Z" fill="#C45E68"/>
<path d="M426.48 37.0673L454.583 35.859L432.131 54.6439L449.438 75.4592L420.75 73.1963L406.487 102.665L402.235 71.2115L370.586 78.6939L391.908 54.2536L371.716 26.8943L404.693 33.6749L419.894 0L426.48 37.0673Z" fill="#FFC930"/>
<path d="M486.14 231.053C486.14 231.053 463.842 261.402 419.4 261.402C374.963 261.402 352.665 231.053 352.665 231.053H486.14Z" fill="#4D88A4"/>
<path d="M432.596 243.904C430.084 253.6 420.206 259.421 410.514 256.914C401.006 254.464 395.184 244.897 397.385 235.326C399.768 225.605 411.752 210.678 421.476 213.032C431.201 215.382 434.946 234.18 432.596 243.904Z" fill="#D6D6D6"/>
<path d="M414.974 249.232C420.276 249.232 424.574 244.934 424.574 239.632C424.574 234.329 420.276 230.032 414.974 230.032C409.671 230.032 405.374 234.329 405.374 239.632C405.374 244.934 409.671 249.232 414.974 249.232Z" fill="#545454"/>
<path opacity="0.2" d="M410.514 256.914C411.689 257.221 412.898 257.408 414.077 257.47C415.995 257.379 417.851 256.976 419.62 256.295C420.143 253.226 419.927 250.008 418.877 246.848C416.523 239.785 409.09 230.526 401.346 226.469C399.457 229.504 398.033 232.602 397.385 235.326C395.184 244.897 401.006 254.464 410.514 256.914Z" fill="#231F20"/>
<path d="M415.19 245.453C418.628 255.734 413.051 266.854 402.77 270.292C392.489 273.726 381.374 268.154 377.936 257.873C374.498 247.592 376.881 226.967 387.166 223.529C397.447 220.091 411.752 235.143 415.19 245.453Z" fill="#D6D6D6"/>
<path d="M396.579 262.054C402.326 262.054 406.985 257.395 406.985 251.648C406.985 245.902 402.326 241.243 396.579 241.243C390.833 241.243 386.174 245.902 386.174 251.648C386.174 257.395 390.833 262.054 396.579 262.054Z" fill="#545454"/>
<path d="M423.395 257.997C422.436 257.595 421.971 256.511 422.373 255.552L462.571 155.15L468.858 157.782L425.874 257.005C425.471 257.964 424.358 258.4 423.395 257.997Z" fill="#231F20"/>
<path d="M458.452 181.816L468.858 157.782L462.571 155.15L452.818 179.461L458.452 181.816Z" fill="#231F20"/>
<path d="M465.698 159.858C467.583 159.858 469.107 158.33 469.107 156.453C469.107 154.568 467.583 153.044 465.698 153.044C463.817 153.044 462.293 154.568 462.293 156.453C462.293 158.33 463.817 159.858 465.698 159.858Z" fill="#61CCFF"/>
<path d="M423.212 267.319C422.373 266.729 422.157 265.55 422.747 264.716L483.939 175.529L489.516 179.461L425.811 266.883C425.226 267.722 424.047 267.905 423.212 267.319Z" fill="#231F20"/>
<path d="M469.817 196.091L474.816 199.629L489.516 179.49L483.939 175.529L469.817 196.091Z" fill="#231F20"/>
<path d="M486.7 180.952C488.59 180.952 490.113 179.424 490.113 177.539C490.113 175.654 488.59 174.126 486.7 174.126C484.815 174.126 483.287 175.654 483.287 177.539C483.287 179.424 484.815 180.952 486.7 180.952Z" fill="#61CCFF"/>
<path opacity="0.2" d="M383.728 266.514C388.125 264.624 391.223 260.227 391.223 255.149C391.223 248.522 386.049 243.132 379.514 242.792C378.525 242.821 377.566 242.978 376.665 243.257C376.171 248.613 376.636 254.003 377.965 257.902C379.082 261.34 381.125 264.284 383.728 266.514Z" fill="#231F20"/>
<path d="M376.54 265.43C383.383 265.43 388.931 259.882 388.931 253.039C388.931 246.201 383.383 240.653 376.54 240.653C369.702 240.653 364.154 246.201 364.154 253.039C364.154 259.882 369.702 265.43 376.54 265.43Z" fill="#FFC930"/>
<path d="M376.541 260.007C380.39 260.007 383.508 256.889 383.508 253.039C383.508 249.19 380.39 246.072 376.541 246.072C372.691 246.072 369.573 249.19 369.573 253.039C369.573 256.889 372.691 260.007 376.541 260.007Z" fill="#545454"/>
<path d="M461.301 273.697C471.138 273.697 479.11 265.725 479.11 255.892C479.11 246.055 471.138 238.083 461.301 238.083C451.468 238.083 443.496 246.055 443.496 255.892C443.496 265.725 451.468 273.697 461.301 273.697Z" fill="#FFC930"/>
<path d="M461.272 268.307C468.111 268.307 473.658 262.764 473.658 255.921C473.658 249.082 468.111 243.535 461.272 243.535C454.429 243.535 448.886 249.082 448.886 255.921C448.886 262.764 454.429 268.307 461.272 268.307Z" fill="#545454"/>
<path d="M461.272 262.889C465.121 262.889 468.239 259.77 468.239 255.921C468.239 252.072 465.121 248.954 461.272 248.954C457.423 248.954 454.304 252.072 454.304 255.921C454.304 259.77 457.423 262.889 461.272 262.889Z" fill="#FFC930"/>
<path opacity="0.2" d="M450.152 242.048C446.838 244.71 444.455 248.551 443.741 253.073C442.163 262.764 448.761 271.932 458.452 273.51C459.196 273.635 459.972 273.697 460.715 273.726C461.55 271.064 461.982 268.216 461.982 265.243C461.982 255.705 457.306 247.251 450.152 242.048Z" fill="#231F20"/>
<path d="M400.943 227.121C407.417 231.734 413.176 239.416 415.19 245.453" stroke="#2A2A2A" stroke-width="4" stroke-linecap="round" stroke-linejoin="round"/>
<path d="M429.993 292.307C445.813 292.307 458.639 279.485 458.639 263.665C458.639 247.841 445.813 235.019 429.993 235.019C414.173 235.019 401.346 247.841 401.346 263.665C401.346 279.485 414.173 292.307 429.993 292.307Z" fill="#FFC930"/>
<path d="M429.993 286.889C442.819 286.889 453.22 276.492 453.22 263.665C453.22 250.835 442.819 240.437 429.993 240.437C417.166 240.437 406.765 250.835 406.765 263.665C406.765 276.492 417.166 286.889 429.993 286.889Z" fill="#545454"/>
<path d="M429.993 281.47C439.829 281.47 447.798 273.498 447.798 263.665C447.798 253.828 439.829 245.856 429.993 245.856C420.156 245.856 412.188 253.828 412.188 263.665C412.188 273.498 420.156 281.47 429.993 281.47Z" fill="#FFC930"/>
<path d="M429.993 276.051C436.836 276.051 442.379 270.504 442.379 263.665C442.379 256.822 436.836 251.275 429.993 251.275C423.154 251.275 417.606 256.822 417.606 263.665C417.606 270.504 423.154 276.051 429.993 276.051Z" fill="#545454"/>
<path d="M429.993 270.633C433.842 270.633 436.96 267.514 436.96 263.665C436.96 259.816 433.842 256.693 429.993 256.693C426.144 256.693 423.025 259.816 423.025 263.665C423.025 267.514 426.144 270.633 429.993 270.633Z" fill="#FFC930"/>
<path d="M449.658 242.111C455.45 247.654 458.606 255.394 458.423 263.383" stroke="#030303" stroke-width="4" stroke-linecap="round" stroke-linejoin="round"/>
<path d="M419.4 261.402C374.963 261.402 352.665 231.053 352.665 231.053C352.665 267.905 382.549 297.788 419.4 297.788C456.256 297.788 486.14 267.905 486.14 231.053C486.14 231.053 463.842 261.402 419.4 261.402Z" fill="#61CCFF"/>
<path opacity="0.2" d="M459.81 251.918C452.224 275.022 432.347 292.557 407.911 296.8C411.66 297.448 415.501 297.788 419.4 297.788C456.256 297.788 486.14 267.905 486.14 231.053C486.14 231.053 476.942 243.186 459.81 251.918Z" fill="#4D88A4"/>
<path d="M470.685 273.759C468.982 271.314 466.877 269.175 463.286 269.175C458.668 269.175 456.472 272.738 454.52 275.865C452.569 278.991 451.173 280.943 448.665 280.943C446.157 280.943 444.766 279.024 442.815 275.865C440.863 272.705 438.663 269.175 434.049 269.175C429.436 269.175 427.236 272.738 425.284 275.865C423.337 278.991 421.941 280.943 419.433 280.943C416.925 280.943 415.53 279.024 413.579 275.865C411.627 272.705 409.431 269.175 404.817 269.175C400.2 269.175 398.004 272.738 396.052 275.865C394.1 278.991 392.709 280.943 390.197 280.943C387.689 280.943 386.298 279.024 384.347 275.865C382.395 272.705 380.194 269.175 375.581 269.175C371.96 269.175 369.822 271.376 368.149 273.822C368.892 274.718 369.668 275.615 370.474 276.454C372.081 274.008 373.385 272.551 375.581 272.551C378.122 272.551 379.484 274.469 381.436 277.629C383.388 280.789 385.584 284.319 390.197 284.319C394.815 284.319 397.011 280.756 398.963 277.629C400.914 274.503 402.309 272.551 404.817 272.551C407.325 272.551 408.716 274.469 410.668 277.629C412.62 280.789 414.82 284.319 419.433 284.319C424.047 284.319 426.247 280.756 428.199 277.629C430.146 274.503 431.541 272.551 434.049 272.551C436.557 272.551 437.953 274.469 439.904 277.629C441.856 280.789 444.052 284.319 448.665 284.319C453.283 284.319 455.479 280.756 457.431 277.629C459.382 274.503 460.773 272.551 463.286 272.551C465.453 272.551 466.782 273.975 468.364 276.392C469.136 275.524 469.913 274.656 470.685 273.759Z" fill="#231F20"/>
<path d="M438.077 295.156H400.698V305.998H438.077V295.156Z" fill="#4D88A4"/>
<path d="M438.077 295.156H400.698V299.802H438.077V295.156Z" fill="#231F20"/>
<path opacity="0.2" d="M438.077 295.156H415.161V299.802H438.077V295.156Z" fill="black"/>
<path d="M0 318.151H500V305.072H0V318.151Z" fill="#C2C2C2"/>
</svg>
