<svg xmlns="http://www.w3.org/2000/svg" viewBox="0 0 1600 1200"><defs><style>.cls-1{fill:#f7f7f7;}.cls-2{fill:#3c2c5b;}.cls-3{fill:#eaa58b;}.cls-4{fill:#30242a;}.cls-5{fill:#61ccff;}.cls-6{fill:#142026;}.cls-37,.cls-6,.cls-8{opacity:0.3;}.cls-20,.cls-22,.cls-27,.cls-30,.cls-33,.cls-37,.cls-6,.cls-8{isolation:isolate;}.cls-7{fill:#ffc930;}.cls-10,.cls-11,.cls-23,.cls-24,.cls-28,.cls-31,.cls-32,.cls-34,.cls-38,.cls-41,.cls-9{fill:none;stroke-linecap:round;stroke-width:4px;}.cls-9{stroke:#142026;}.cls-10,.cls-11,.cls-23,.cls-24,.cls-28,.cls-31,.cls-32,.cls-34,.cls-38,.cls-9{stroke-linejoin:round;}.cls-10{stroke:#000;}.cls-11{stroke:#18151e;}.cls-12{fill:#fff;}.cls-13{fill:#3b7a52;}.cls-14{fill:#6dc28e;}.cls-15{fill:#89a4cd;}.cls-16{fill:#3d2c91;}.cls-17{fill:#190056;}.cls-18{fill:#afdfaa;}.cls-19{fill:#9e76dd;}.cls-20{fill:#80798a;}.cls-20,.cls-22,.cls-27,.cls-30,.cls-33{opacity:0.2;}.cls-21{fill:#ffa0dc;}.cls-22{fill:#c0bebf;}.cls-23{stroke:#888;}.cls-24{stroke:#010005;}.cls-25{fill:#010005;}.cls-26{fill:#a66241;}.cls-27{fill:#171717;}.cls-28{stroke:#171717;}.cls-29{fill:#17151c;}.cls-30{fill:#2f2f2f;}.cls-31{stroke:#080602;}.cls-32{stroke:#2f2f2f;}.cls-33{fill:#080602;}.cls-34{stroke:#c4278a;}.cls-35{fill:#191919;}.cls-36,.cls-37{fill:#c4278a;}.cls-38,.cls-41{stroke:#231f20;}.cls-39{fill:#39e239;}.cls-40{fill:#ff9edd;}</style></defs><g id="Слой_2" data-name="Слой 2"><g id="Слой_1-2" data-name="Слой 1"><rect class="cls-1" width="1600" height="1200"/><path d="M1077.17,794.24l-3.51,51.48,15.53,1.06,3.51-51.49Z"/><path class="cls-2" d="M1051.56,956.14l8.11-119a14,14,0,0,1,14.91-13h.08l18.1,1.31A14.26,14.26,0,0,1,1106,840.73a16.66,16.66,0,0,1-1.4,5.25L1090,875.62a56.88,56.88,0,0,0-5.65,29.57l4.18,50.95Z"/><path class="cls-3" d="M1203.82,435.31v-.08c.65-12.86,2.21-44.06,2.37-55.69.25-25.64-13.26-42-36.28-43.82-2.29-.16-4.5-.25-6.63-.25-17.28,0-29.32,5.74-36.86,17.53-4.42,6.88-5.32,15.89-6.39,25.39-.49,4.34-1,8.85-1.8,13.52l-.25,1.14c-1.8,10.08-3.68,20.4,2,28.75,4.67,6.8,13.93,8.27,21,8.27a52,52,0,0,0,8.76-.73l.41,11.13-8.11,33.58Z"/><path class="cls-4" d="M1177.45,418.85s23.18-15.56,17.44-27.85-24.57-4.91-24.57-4.91-7.37-3.28-5.73-18c0,0-21.3,13.11-23.75-9.83,0,0-28.67,10.65-32.77-14.74-4.34-26.78,25.39-38.49,43.41-22.93,0,0,7.37-15.56,24.57-12.29,15.4,3,18,18,18,18s17.28-5.65,24.57,4.1.82,22.11.82,22.11,16.22,5.82,13.93,22.93a26.25,26.25,0,0,1-10.65,18s14.74,9,4.09,22.93c0,0,6.56,15.57-9.82,22.94C1200.87,446.62,1184.82,432.78,1177.45,418.85Z"/><path class="cls-3" d="M1377.45,273c-.08-.65-.32-2.37-3-2.37s-7,1.55-12.94,4.67l.08-.09c4.51-4.34,16.39-15.8,15.07-22.36a4.93,4.93,0,0,0-3.11-3.6,6.81,6.81,0,0,0,.74-7c-1.15-2.13-3.52-3.36-6.72-3.36a9.06,9.06,0,0,0-1.47.08,7.37,7.37,0,0,0-6.47-3.44c-7.45,0-18.35,8-27,14.58-3.77,2.79-7.12,5.24-9.83,6.88.82-2.95,4.59-16.79,1.64-20.64a2.61,2.61,0,0,0-2.13-1.06h-.41c-5.65.9-14.9,18.59-23.1,35.05-4,7.95-11.87,28.26-19.49,47.91l-2.78,6.64.16.57,49.8,18.51.65-.41c2.87-10.81,5.57-22.77,8-35.38C1337.32,306.64,1378.35,279.37,1377.45,273Z"/><path d="M1250.83,981.2c.33-1.15,1.48-5.65,2.87-12.53a.58.58,0,0,0-.17-.41l-8.51-4.51a.28.28,0,0,1-.17-.08L1156,967.44a.31.31,0,0,0-.25.08l-1.14.82-.17.16a34.05,34.05,0,0,0-2.29,12.45.38.38,0,0,0,.41.41l97.87.08A.38.38,0,0,0,1250.83,981.2Z"/><path d="M1097.75,981.61c.09-.17,2.13-4.83,5.08-13.11l-.24-.32L997.75,967l-1.55,1.14-.09.09a34,34,0,0,0-2.62,13.35v.16Z"/><path class="cls-5" d="M1253.78,968.34c1.64-8,3-16.14,4.1-24.41l-.33-.57-31,.24,3.68-16.87a8,8,0,0,0-6.14-9.58,6.27,6.27,0,0,0-1.72-.16l-28.17-.25-.66.57c-.08,7.21-1.64,12.62-4.59,16.55-6.55,8.84-13.51,14-19.57,18.59-6.39,4.75-12,8.85-14.91,15.81l-.08.24Z"/><path class="cls-5" d="M1102.83,968.5c2.79-7.78,5.41-16.21,7.7-24.65l-38.25-.25,3.69-16.87a8,8,0,0,0-6.14-9.58,6.31,6.31,0,0,0-1.72-.16H1037.8v.16c-1.64,7.53-3.68,12.86-6.55,16.71-6.63,8.84-13.68,14-20,18.59-6.56,4.75-11.31,7-14.34,13.84l-.82,1.8a.32.32,0,0,0,.25.41Z"/><path class="cls-3" d="M1257.88,943.93c1-7.78,3.35-27.76,3.35-43.9,0-5.73-.08-10.81-.32-16V884l-44.15-77.32-27.85,77.4c3.44,15.48,4.84,25.39,4.67,33.25l28.75.09A7.65,7.65,0,0,1,1230,925a10.2,10.2,0,0,1-.17,1.64L1225.93,944Z"/><path class="cls-5" d="M1255.83,845.4l-.58-3.11c-1.47-8.11-3-15.4-4.42-22.52-2.86-13.84-5.49-26.95-7.86-44-3.28-23.43-1.64-47.67-.16-71.1,2.7-41.36,5.32-84-18.6-123-.65-1.06-1.23-2.21-2-3.27l-.08-.08h-99.52l-.08.08c-.08.08-.57,1.23-1.55,3.19-6.88,14.09-34.9,72.49-53.49,124.91l26.38,33.41,48.89-2.54,3-5.16c3.36-5.81,6.72-11.63,9.83-17.44,1.39,14.08,2.78,26.94,4.26,38.16A607.4,607.4,0,0,0,1175,826.32c1.47,5.57,2.87,10.81,4.09,16,1.64,7.13,3.28,13.76,4.84,20.23,1.8,7.54,5,21.38,5,21.38h71.83a.18.18,0,0,0,.17-.16C1260.66,881.6,1258,856.46,1255.83,845.4Z"/><path class="cls-6" d="M1144.19,670.46,1120.93,744l21.87-6.64,3-5.16c3.36-5.81,6.72-11.63,9.83-17.44l-2.95-43.49c-.16-2.21-2.62-3.85-4.83-3.61A3.89,3.89,0,0,0,1144.19,670.46Z"/><path class="cls-7" d="M1070.15,609.19a373.34,373.34,0,0,0,45.54-51.1c-1.88,15,1.15,20.15,5.33,23.5l103.19.08c12.12-11.38,11.31-24.24,11.14-39.14-.16-13.35-.33-28.51,8.36-45.87A346,346,0,0,1,1273,448.17c2.21-3,4.34-6.06,6.38-8.92,2.62-3.61,5.08-7.05,7.54-10.49,1-1.47,2.21-3,3.36-4.67,9.5-12.86,24-32.18,36.77-80.26l.08-.25-50.61-18.67-.08.16c-7.13,18.35-14.42,36.78-17.45,41.94-2.62,4.5-15.32,20.88-31,37.26-35.47,36.78-56.84,44.56-68.55,44.56a12.31,12.31,0,0,1-1.72-.08,8,8,0,0,1-7.46-8v-.25l-.24.09c-17.37,3.68-25.47,10.07-33.5,19.9-3.93,4.91-9.67,13.84-16.79,25.22-7.29,11.55-16.46,26-26.29,39.89s-17.53,23.75-25.72,34.24c-3.93,5-7.7,9.91-12.12,15.64l-.41,1.07,33.25,32.92Z"/><path class="cls-8" d="M1115.69,526.06c-13.59,19.5-22.11,59.22-22.11,59.22,11.87-13.35,20.15-24.57,22.11-27.19l6.06-29.57C1122.41,525.16,1117.66,523.28,1115.69,526.06Z"/><path class="cls-9" d="M1155.58,714.77l-4.92-71.5"/><path class="cls-3" d="M996.6,651.13c8.28,0,28.59-9,42.35-17.45a247.34,247.34,0,0,0,31-24.32l.16-.17-34.64-33.74-.17.16c-4.09,5.41-8,10.73-12,16.22-1.07-.08-9.51-1-21.14-1.88-1.31-.08-2.7-.25-4.09-.33-6.64-.49-14.17-1.15-19.74-1.15-5.08,0-7.7.49-8.19,1.56a2.86,2.86,0,0,0-.08,2.46c.82,1.88,3.52,3.68,8.11,5.32-3.2.49-14.83,2.62-17.53,7.53a4.11,4.11,0,0,0-.16,4c-.91.41-4.75,2.29-4.75,5.9,0,2.53,2.86,4.34,3.68,4.83-.65.57-2.54,2.54-2.46,4.91a5.3,5.3,0,0,0,2.62,3.93c2.13,1.4,5.82,2.13,11.23,2.13a163.69,163.69,0,0,0,18-1.39c4.67-.49,9.1-1,12.13-1,2.29,0,3.68.32,4,.9a1,1,0,0,1-.16,1.06,49.3,49.3,0,0,1-6.23,7.37c-4.26,4.43-7.94,8.19-5.32,12.13A5,5,0,0,0,996.6,651.13Z"/><path class="cls-10" d="M978.18,597.81c9.33-1.56,17.11-2.13,17.11-2.13"/><path class="cls-10" d="M960.49,609.36c12.12-2.87,37.59-6.23,37.59-6.23"/><path class="cls-10" d="M959.42,620.09c15.64-3,41.12-5.49,41.12-5.49"/><path class="cls-10" d="M1136.33,395.84l-.24-.25a2.55,2.55,0,0,1-.74-2.95l.49-1.88"/><path class="cls-10" d="M1141.41,402.31c-2.21,2.86-6.14,2.7-7.37,1.8"/><path d="M1147.22,389.37a2.13,2.13,0,1,0-2.13-2.13A2.13,2.13,0,0,0,1147.22,389.37Z"/><path d="M1128.55,386.58a2.13,2.13,0,1,0-2.13-2.13A2.13,2.13,0,0,0,1128.55,386.58Z"/><path class="cls-10" d="M1149.85,429.25c3.6-1,7.61-1.55,10.89-2.62"/><path class="cls-10" d="M1172.12,402.31l6.15-3.11"/><path class="cls-10" d="M1322.66,257.09l-1.88,7.78s7.37,13.93,3.27,29.49"/><path class="cls-10" d="M1366,239.07l-30.47,22.53"/><path class="cls-10" d="M1373.52,249.31l-29.81,22.94"/><path class="cls-10" d="M1361.48,275.19l-12.86,8.52"/><path class="cls-2" d="M1067.53,706.5c-1.06,3-2.13,6-3.11,8.92A39.82,39.82,0,0,0,1078.18,760a25.41,25.41,0,1,0,27.36,8,40,40,0,0,0,32.51-21.78c1.48-2.87,3-5.82,4.75-8.85Z"/><path d="M1086,794a9.83,9.83,0,1,0-9.83-9.83A9.83,9.83,0,0,0,1086,794Z"/><path class="cls-10" d="M1115.69,558.09c2-12.29,6.88-32,8.52-41.77"/><path class="cls-10" d="M1224.21,581.67,1121,581.59"/><path class="cls-9" d="M1072.28,943.6l-6.3,24.9"/><path class="cls-9" d="M1029.2,936.48l11.47,4.09"/><path class="cls-9" d="M1021.5,944.42l9.34,7.62"/><path class="cls-9" d="M1187,936.31l11.71,4.26"/><path class="cls-9" d="M1179.41,944.34l9.5,7.7"/><path class="cls-9" d="M1225.93,943.93l-5.48,24.57"/><path class="cls-9" d="M1188.91,884h72"/><path class="cls-11" d="M1071.14,878.74l-1,14.33"/><path class="cls-11" d="M1073.76,839.34l-2,29.49"/><path class="cls-10" d="M1164.26,448.42l-4,133.17"/><path class="cls-9" d="M1238.87,615.83h-25.39V632.7a31.08,31.08,0,0,0,31,31"/><path class="cls-10" d="M1035.51,575.45l34.64,33.74"/><path class="cls-10" d="M1327.08,343.58l-50.61-18.67"/><path class="cls-11" d="M1078.18,760a38.5,38.5,0,0,0,12.37,6.3,39.17,39.17,0,0,0,15.07,1.72"/><path class="cls-8" d="M1149.85,429.25l.32,7.87a45.59,45.59,0,0,0,14.5-8.77,1.54,1.54,0,0,0,.08-2.13,1.71,1.71,0,0,0-1.64-.41A92.25,92.25,0,0,1,1149.85,429.25Z"/><path class="cls-10" d="M1151.48,320.57c-3.27,4.91,0,12.86,0,12.86"/><path class="cls-10" d="M1194.07,326.3c-9.42,4.92-10.24,9.75-10.24,9.75"/><path class="cls-10" d="M1140.84,358.24c7.37-2.78,10.64-6.22,10.64-6.22"/><path class="cls-10" d="M1164.59,368.07a35.56,35.56,0,0,1,5-13.92"/><path class="cls-10" d="M1222.74,393.46c-5.65,4.1-13.35,5.74-13.35,5.74"/><path class="cls-10" d="M1219.46,352.51c-3.76,7.37-13.27,10.48-13.27,10.48"/><path class="cls-12" d="M610.22,286.66H989.78a58.68,58.68,0,0,1,58.66,58.66V740.77a58.68,58.68,0,0,1-58.66,58.66H610.22a58.68,58.68,0,0,1-58.66-58.66V345.42A58.77,58.77,0,0,1,610.22,286.66Z"/><path class="cls-13" d="M869.55,707.45,714,550.09l155.6-157.36h27.13V707.45Z"/><path class="cls-14" d="M869.55,707.45V392.73H842.44V707.45Z"/><path class="cls-12" d="M809.3,707.45V392.73H782.19V707.45Z"/><path class="cls-15" d="M782.19,707.45V392.73H755.06V707.45Z"/><path class="cls-16" d="M755.06,707.45V392.73H725.27V707.45Z"/><path class="cls-17" d="M725.87,707.45V392.73H702.64V707.45h23.23Z"/><path class="cls-18" d="M842.44,707.45V392.73H809.3V707.45Z"/><path class="cls-19" d="M685.19,948.62c6.16-5.51,12.24-11.5,18.39-17.57,19.58-19.51,37-39.1,48.84-55.37s16.81-27.12,14-30.6a3.72,3.72,0,0,0-3.08-1.14c-11.33,0-45.62,25.83-81.56,61.45-5.92,5.82-11.7,11.82-17.18,17.72l-.07.09,20.63,25.33Z"/><path class="cls-20" d="M685.19,948.62c6.16-5.51,12.24-11.5,18.39-17.57a515.18,515.18,0,0,0,39.32-43l-.3-.32c-16.81,12-30.62,19.43-46.9,19.43a57.42,57.42,0,0,1-13.81-1.78h-.15l-.07.08c-5.93,5.83-11.63,11.82-17.11,17.73l-.07.08,20.63,25.34Z"/><path class="cls-19" d="M591.4,943.43l-1.27-1.29c-27.24-26.88-54.55-45.66-66.26-45.66a5.69,5.69,0,0,0-4.42,1.62,6,6,0,0,0-1.28,4.37c.37,12,19.58,39.1,46.82,66.06l.08.08Z"/><path class="cls-20" d="M591.33,943.43l-1.28-1.29c-8.63-8.58-20.26-18.62-21.68-19.83s-5.71-4.54-5.71-4.54l-.07.08c-.08.08-6.45,6.4-19,6.4a47.62,47.62,0,0,1-17.71-3.73l-.53-.16.3.49c8.26,13.68,22.59,31.08,39.32,47.68l.08.08Z"/><path class="cls-19" d="M627.72,937.52l-.08-.16C623.52,930,619,922.47,614.44,915,586,869,557.11,834.23,547.28,834.23a2.88,2.88,0,0,0-1.8.56c-7.35,5.35,11.56,50,42.25,99.5,4.5,7.2,9,14.24,13.58,21l.07.17Z"/><path class="cls-20" d="M627.87,937.61l-.08-.17c-4.12-7.36-8.63-14.89-13.2-22.34-3.9-6.31-7.81-12.47-11.78-18.38l-.08-.08-.15.08a19.38,19.38,0,0,1-7.73,1.38c-8.62,0-22.43-4-39.09-23.23l-.3.32a537,537,0,0,0,32.34,59.34c4.5,7.2,9,14.25,13.58,21.05l.08.16Z"/><path class="cls-21" d="M647.83,982.29v-.16c0-35-26.71-63.31-59.65-63.31s-59.66,28.34-59.66,63.31v.16Z"/><path class="cls-22" d="M554.79,982.29l-.08-.32c-2.1-6.32-5.7-8.42-9.45-10.77-4.43-2.59-8.93-5.26-11.41-14.73l-.07-.33-.15.41a64,64,0,0,0-5,25.42v.32Z"/><path class="cls-21" d="M759.48,982.29v-.16c0-30.11-22.66-54.56-50.57-54.56S658.33,952,658.33,982.13v.16Z"/><path class="cls-22" d="M738.77,982.29l-.08-.32c-1.27-4.94-5.25-6.8-9.75-8.91-5.4-2.51-11.63-5.42-14.56-14.49-4.5-13.92-11.78-21-21.53-21-7.36,0-14.71,4-19.44,6.71a18.56,18.56,0,0,1-2.17,1.14,57.15,57.15,0,0,0-13,36.43v.4Z"/><path class="cls-21" d="M706.35,982.29v-.16c0-49.3-29-89.53-64.6-89.53s-64.6,40.23-64.6,89.53v.16Z"/><path class="cls-22" d="M626,982.29l.08-.08c4.43-10.68-1-18.13-6.15-25.34-3.46-4.77-6.68-9.23-7.28-14.57-.83-6.64.9-12.71,2.77-19.1,2.18-7.45,4.43-15.22,2.18-23.89l-.08-.16-.15.08C593,913,577.15,945.54,577.15,982.13v.16Z"/><path class="cls-23" d="M701.1,947.24a104.65,104.65,0,0,0-6.9-17.08"/><path class="cls-23" d="M596.28,918.91c-8.18,11.33-14.26,25.82-17,41.93"/><path class="cls-24" d="M684.52,857.78s-12.68,19.92-20.26,40.48"/><path class="cls-7" d="M697.8,865.72c8.63,0,16.06-4.29,19.88-11.5A24.64,24.64,0,0,0,719,834.71a30.93,30.93,0,0,0-13.21-16.59,28.16,28.16,0,0,0-15.15-4.46c-8.63,0-16.06,4.3-19.89,11.5a24.69,24.69,0,0,0-1.27,19.51,31,31,0,0,0,13.2,16.6A28.47,28.47,0,0,0,697.8,865.72Z"/><path class="cls-25" d="M694.72,843.54a3.07,3.07,0,0,0,2.86-1.62,3.43,3.43,0,0,0,.15-2.84,5.34,5.34,0,0,0-1.88-2.42,4.25,4.25,0,0,0-2.18-.65,3,3,0,0,0-2.85,1.62,3.41,3.41,0,0,0-.15,2.83,5.35,5.35,0,0,0,1.88,2.43A4.29,4.29,0,0,0,694.72,843.54Z"/><path class="cls-26" d="M355.44,963.9c-6.23,1.52-46.95-19.72-48.39-20.44v-.08a268.52,268.52,0,0,1,4.15-63,.08.08,0,0,1,.08-.08l40.08-8.06,35.85,8.46a.08.08,0,0,1,.08.08c-7.66,17.49-13.17,31.38-14.61,41.52C372.6,922.62,361.66,962.38,355.44,963.9Z"/><path class="cls-26" d="M473.13,959.91c-6,1.44-50.23-15.73-51.74-16.37a.08.08,0,0,1-.08-.08c-2-16.13-4.15-29.38-4.55-47.67-.08-5.11.16-10.3.32-15.57a.08.08,0,0,1,.08-.08l35.45-4.87L492.05,880a.08.08,0,0,1,.08.08c-2.08,12.94-3.51,24.91-3.67,34.74,0,2.63,0,5,.08,7.26,0,.08,0,.08-.08.08C476.56,922.54,479.43,958.31,473.13,959.91Z"/><path class="cls-26" d="M605.52,407.38c1.67-1.67,7.82.72,7.18,9.19,0,.08.08.15.16.08,7.27-13.74,26.19-41,30.9-26.91a.08.08,0,0,0,.08.08c6.31-3.84,9.42,2.39,7.91,7.9,0,.08,0,.08.08.08,7,.08,6.31,7.11,4.71,11.1V409c7.82,4.87-8.63,32.5-9.66,33.45-2.32,7.19-6.39,20.68-12.78,27.15v.08c.32,7.43.4,14.61.24,21.08,0,.08,0,.08-.08.08l-26,1.52h-.08l-26-18.77v-.08C587.79,451.54,597.53,415.37,605.52,407.38Z"/><path class="cls-26" d="M505.7,352.45c-9.42-20.68-33.37-26.59-57.32-13.65-20.52,11.33-17.89,23.87-16.45,40.64.4,4.39-1.6,22.27-.4,35.69.32,3.67.8,7,1.12,9.9l.24,1,55.73,1.59c.08,0,.16-2.47.16-2.47l-.56-3.83a.08.08,0,0,1,.08-.08c30.9,5.74,36.89-15.73,28.74-38.17V383c6.47-6.31,5.19-10.38-4.39-11.1a.08.08,0,0,1-.08-.08C511.53,367.06,507.78,356.92,505.7,352.45Z"/><path class="cls-27" d="M488.23,421.36l.55,3.67v.08l.64,8.78c0,.08-.08.08-.16.08l-17.32-17.56c-.08-.08,0-.16.08-.16,9.1,3.35,15.57,4.87,16.21,5.11Z"/><path class="cls-28" d="M509.38,391.41a7.84,7.84,0,0,1-7.34-2.79"/><path class="cls-28" d="M488.23,421.28c-3.2-.8-13.18-3.52-16.21-4.95"/><path class="cls-28" d="M467.71,395.65l-7.43-5.59"/><path class="cls-29" d="M501.8,370a2.48,2.48,0,0,0,0,5A2.48,2.48,0,0,0,501.8,370Z"/><path class="cls-29" d="M428.41,382.55c-1.59-16.69-1-36.17,19.49-47.43,24.51-12.21,47.58-7.58,57.8,17.25v.08c-.56.64-9,9.66-32.73.56-.08,0-.16.08-.08.08,4.55,6.63,9,19.4,3.83,29.54,0,.08-.08.08-.16,0-31.46-22-43.91,8.54-16.77,25.55.08,0,.08.08,0,.16-10.78,8.23-27.06,6.87-28.18,6.71l-.08-.08C430.25,402.27,429,386.94,428.41,382.55Z"/><path class="cls-5" d="M397.44,466.71c11.42-17.57,21.8-25.23,36.17-30.82l.08-.08-1-10.62c0-.08,0-.08.08-.08h56c.08,0,.08,0,.08.08l1.2,9.58a.08.08,0,0,0,.08.08c36.49-2.16,67.23,32,88.31,55.33a.11.11,0,0,0,.16,0c.24-1,1.6-7.34,3.83-16.53a.08.08,0,0,1,.08-.08l52,17.25.08.08c-.32,85.83-43.35,93.42-94.77,56.37a134.33,134.33,0,0,1-19.81-16.45c-.08-.08-.08,0-.16,0l-6.78,22-7,22.84-.08.08L459,585l-38.72-9h-.08l-11.26,14c-.16.64-7.11,29.86-13.49,24.75a46,46,0,0,1-13.26-18.28C365.34,556.77,385,486,397.44,466.71Z"/><path class="cls-30" d="M382.27,596.53c26.35-19.16,29.3-65,29.62-71.22,0-.08.16-.08.16,0,1.84,11.5,6.39,40.09,8.07,50.39v.08l-11.18,14.53c-.16.4-11.26,27.78-16.85,21.64-6.23-6.15-9.66-14.54-10-15.26C382.27,596.61,382.27,596.61,382.27,596.53Z"/><path class="cls-7" d="M329.89,821.86c21.72-46.55,27.95-37.53,46.39-158.18,6.47-42.23,22.44-68.66,43.92-88H506a.08.08,0,0,1,.08.08c.4,2.71,14.37,96,2.16,210.07-2.64,24.83-8.87,54.13-13.58,80.56-.88,4.79-1.67,9-2.31,13.65a.08.08,0,0,1-.08.08l-74.9.08c-.08,0-.08,0-.08-.08,1-26.59,5.83-54.45,16.45-95.65,1.76-9,3.28-26,3-26-6.55,21.24-14.46,43.83-23.72,66.43-7.5,18.36-16,36.89-25.47,55.81a.08.08,0,0,1-.08.08c-2,0-73.06-.32-76-.32a.08.08,0,0,1-.08-.08A242.58,242.58,0,0,1,329.89,821.86Z"/><path class="cls-2" d="M328.29,943.46c10.94,0,20.28,14,26.59,12.54s-5.51-14.06-5.51-24.2c0-8.94,10.22-9.34,23.15-9.42a.08.08,0,0,1,.08.08c-1.19,7.67-.32,13.57,3.6,17.57C388,952.48,399,955.36,406.94,967.17a16.3,16.3,0,0,1,1.91,3.44c0,.08,0,.08-.08.08-3.51.16-92.38,3.35-94.21,3.43h-.08l-4.4-3.51v-.08a262.19,262.19,0,0,1-2.95-27.07c0-.08,0-.08.08-.08Z"/><path class="cls-31" d="M451.41,627.83c-7.83,0-12.46-6.3-10.38-14.13l4.23-15.49h28.27l-4.16,15.49C467.14,621.53,459.15,627.83,451.41,627.83Z"/><path class="cls-31" d="M400.16,598.29h15.57l-4.16,15.57c-2.15,7.75-10.69,14.21-16.92,14.21a13.67,13.67,0,0,1-7.43-1.75"/><path class="cls-32" d="M506,575.78l-85.67-.16-8.23-50.31"/><path class="cls-32" d="M416.92,558.77l-11.25,3.59"/><path class="cls-32" d="M578.36,490.18l-6.15-6.78"/><path class="cls-30" d="M519.84,530.82l-6.79,21.88c0,.08-.16.08-.16,0l-14-40.72c0-.08.08-.16.16-.08l20.76,18.92Z"/><path class="cls-32" d="M519.84,530.9l-20.76-19"/><path class="cls-32" d="M490,434.77a69.56,69.56,0,0,1,9.91.32"/><path class="cls-31" d="M423.22,665.36c3.76,33.38,15.73,52.3,13.34,93"/><path class="cls-28" d="M643.83,389.74c-8,9.58-23.15,33.45-23.15,33.45"/><path class="cls-28" d="M651.91,397.8c-4,5.59-15.17,22.2-21.64,33.38"/><path class="cls-28" d="M656.7,409l-17.65,30.26"/><path class="cls-2" d="M445.83,943.14c10.94,0,20.44,14.21,26.67,12.7,10.22-3.28-27.71-35.06,16-33.54.08,0,.08,0,.08.08-.24,27.87,34.25,28.67,43,48.23v.08c-.08.24-.56,1.83-.64,2.15a.08.08,0,0,1-.08.08l-102.36.8h-.08l-2.23-3c-2-8.95-3.68-18-4.95-27.07,0-.08,0-.08.08-.08C423,943.46,445.83,943.14,445.83,943.14Z"/><path class="cls-28" d="M612.86,416.65c-1.92,3.51-5.35,9.5-5.35,9.5"/><path class="cls-10" d="M496.21,941.54l-7.27,6.55"/><path class="cls-10" d="M504.11,948.09l-5.59,8"/><path class="cls-10" d="M377.55,941.94l-6.86,6.15"/><path class="cls-10" d="M385.23,948.25l-5,7.83"/><path d="M411.65,982.1H312.49a.08.08,0,0,1-.08-.08,113.71,113.71,0,0,1-2.32-11.33c0-.08,0-.08.08-.08l98.69.08a.08.08,0,0,1,.08.08A32,32,0,0,1,411.81,982,.28.28,0,0,0,411.65,982.1Z"/><path d="M531.66,970.69A31.35,31.35,0,0,1,534.38,982c0,.08,0,.08-.08.08h-105a.08.08,0,0,1-.08-.08c-.16-.47-1.2-4.23-2.87-11.33,0-.08,0-.08.08-.08,3.35-.24,102.68.08,105.23.08Z"/><path class="cls-33" d="M436.56,758.46c-3.2,10.22-7.19,23.08-11.5,34.57-3.83,10.38-8.3,22.6-12.06,31.46,0,.08-.16.08-.16,0,.56-8.7,8.63-135.1,10.38-159,0-.08.16-.08.16,0C426.34,695.54,437.6,722.85,436.56,758.46Z"/><path class="cls-21" d="M859.18,981.9c0-51.12,24.57-75.83,39.34-90.6,2.93-2.93,5.52-5.52,7.49-7.9,11.71-14,12.8-17.16,25.6-56.16l2-6c9.87-30,19.2-48.68,23.83-57.12a4.52,4.52,0,0,1,2.11-1.84A3.94,3.94,0,0,1,961,762a4.16,4.16,0,0,1,3.88,2.59l8.57,21.51c9.19,1.16,17.5,8.71,17.57,8.78l28.66-6.81a.25.25,0,0,1,.2-.06,3.53,3.53,0,0,1,.89-.07,4.67,4.67,0,0,1,4.56,3.67c1,5.72.47,17.36-8.44,24.92a49.09,49.09,0,0,1-5.38,3.74c-6.74,4.36-15.12,9.81-15.12,19.68V965.43h.07a12.84,12.84,0,0,1,12.8,12.86v3.54Z"/><path class="cls-12" d="M993.22,891.43a26.76,26.76,0,0,1-26.76-26.75V848.61h29.95V891.5h-3.19Z"/><path class="cls-34" d="M970.55,981.29v-2.86a11.79,11.79,0,0,0-11.78-11.78h-2.32l-4.22-34.78A31.71,31.71,0,0,0,920.72,904"/><path class="cls-35" d="M983.48,804.23a2.32,2.32,0,1,0-2.31-2.32A2.32,2.32,0,0,0,983.48,804.23Z"/><path class="cls-36" d="M1025.69,797.69a12.18,12.18,0,0,1-11.64-8.3l5.71-1.36a.26.26,0,0,1,.21-.07,3.45,3.45,0,0,1,.88-.07,4.66,4.66,0,0,1,4.56,3.68A30.86,30.86,0,0,1,1025.69,797.69Z"/><path class="cls-2" d="M921.19,857.6c1.5-3.88,3.07-8.51,5-14.37l.48-1.49h69.84v15.93H921.19Z"/><path class="cls-37" d="M972,981.9v-3.13a12.68,12.68,0,0,0-12.66-12.66h-2.45l-5-36.42c-.81-6.94-5.92-14.36-11.43-18.86l8.78.55a25,25,0,0,1,18.65,21.17l4.15,33H977a9.57,9.57,0,0,1,9.66,9l.55,7.42Z"/><path class="cls-38" d="M519,292c19.38.92,40.24,1.11,83.07-22.15,74.76-40.61,112-46.52,117.22-27.69,4.61,16.61-35.08,42.46-51.69,59.07-35.17,35.17-26.4,59.16,13.84,52.61,39.69-6.46,63.69-29.53,96.91,3.69"/><path class="cls-39" d="M927.87,302.18a33.37,33.37,0,1,0,31.66-35A33.37,33.37,0,0,0,927.87,302.18Z"/><path class="cls-40" d="M1010.56,221A24.73,24.73,0,1,0,1034,195.1,24.73,24.73,0,0,0,1010.56,221Z"/><path class="cls-38" d="M625.77,688.5,585.88,822.76"/><path class="cls-38" d="M587.54,667.25,538.63,732"/><path class="cls-41" d="M953.21,642.72c6.9-8.35,17.49-23.4,10.51-34.82-8.76-14.29-28.9-3.46-15.18,9.61,19.71,15.46,42.57-6.84,53.17,4.75,11.38,12.19-12,32.83-12.05,50.22-.07,14.44,15.37,20.43,15.37,20.43"/></g></g></svg>