<svg xmlns="http://www.w3.org/2000/svg" viewBox="0 0 1070.78 788.25"><defs><style>.cls-1{fill:#fff;}.cls-2{fill:#3c2c5b;}.cls-3{fill:#eaa58b;}.cls-4{fill:#30242a;}.cls-5{fill:#61ccff;}.cls-6{fill:#142026;}.cls-36,.cls-6,.cls-8{opacity:0.3;}.cls-19,.cls-21,.cls-26,.cls-29,.cls-32,.cls-36,.cls-6,.cls-8{isolation:isolate;}.cls-7{fill:#ffc930;}.cls-10,.cls-11,.cls-22,.cls-23,.cls-27,.cls-30,.cls-31,.cls-33,.cls-37,.cls-40,.cls-9{fill:none;stroke-linecap:round;stroke-width:4px;}.cls-9{stroke:#142026;}.cls-10,.cls-11,.cls-22,.cls-23,.cls-27,.cls-30,.cls-31,.cls-33,.cls-37,.cls-9{stroke-linejoin:round;}.cls-10{stroke:#000;}.cls-11{stroke:#18151e;}.cls-12{fill:#3b7a52;}.cls-13{fill:#6dc28e;}.cls-14{fill:#89a4cd;}.cls-15{fill:#3d2c91;}.cls-16{fill:#190056;}.cls-17{fill:#afdfaa;}.cls-18{fill:#9e76dd;}.cls-19{fill:#80798a;}.cls-19,.cls-21,.cls-26,.cls-29,.cls-32{opacity:0.2;}.cls-20{fill:#ffa0dc;}.cls-21{fill:#c0bebf;}.cls-22{stroke:#888;}.cls-23{stroke:#010005;}.cls-24{fill:#010005;}.cls-25{fill:#a66241;}.cls-26{fill:#171717;}.cls-27{stroke:#171717;}.cls-28{fill:#17151c;}.cls-29{fill:#2f2f2f;}.cls-30{stroke:#080602;}.cls-31{stroke:#2f2f2f;}.cls-32{fill:#080602;}.cls-33{stroke:#c4278a;}.cls-34{fill:#191919;}.cls-35,.cls-36{fill:#c4278a;}.cls-37,.cls-40{stroke:#231f20;}.cls-38{fill:#39e239;}.cls-39{fill:#ff9edd;}</style></defs><g id="Слой_2" data-name="Слой 2"><g id="Слой_1-2" data-name="Слой 1"><g id="Слой_2-2" data-name="Слой 2"><g id="Слой_1-2-2" data-name="Слой 1-2"><g id="Слой_2-2-2" data-name="Слой 2-2"><g id="Слой_1-2-2-2" data-name="Слой 1-2-2"><path d="M770.48,599.2,767,650.68l15.53,1.06L786,600.25Z"/><path class="cls-1" d="M303.53,91.62H683.09a58.68,58.68,0,0,1,58.66,58.66V545.73a58.67,58.67,0,0,1-58.66,58.66H303.53a58.68,58.68,0,0,1-58.66-58.66V150.38A58.77,58.77,0,0,1,303.53,91.62Z"/><path class="cls-2" d="M744.87,761.1l8.11-119a14,14,0,0,1,14.91-13H768l18.1,1.31a14.26,14.26,0,0,1,13.25,15.2h0v.07a16.21,16.21,0,0,1-1.4,5.25l-14.6,29.64a57,57,0,0,0-5.65,29.57l4.18,51Z"/><path class="cls-3" d="M897.13,240.27v-.08c.65-12.86,2.21-44.06,2.37-55.69.25-25.64-13.26-42-36.28-43.82-2.29-.16-4.5-.25-6.63-.25-17.28,0-29.32,5.74-36.86,17.53-4.42,6.88-5.32,15.89-6.39,25.39-.49,4.34-1,8.85-1.8,13.52l-.25,1.14c-1.8,10.08-3.68,20.4,2,28.75,4.67,6.8,13.93,8.27,21,8.27a51.36,51.36,0,0,0,8.76-.73l.41,11.13L835.35,279Z"/><path class="cls-4" d="M870.76,223.81S893.94,208.25,888.2,196,863.63,191,863.63,191s-7.37-3.28-5.73-18c0,0-21.3,13.11-23.75-9.83,0,0-28.67,10.65-32.77-14.74C797,121.7,826.77,110,844.79,125.55c0,0,7.37-15.56,24.57-12.29,15.4,3,18,18,18,18s17.28-5.65,24.57,4.1.82,22.11.82,22.11,16.22,5.82,13.93,22.93a26.18,26.18,0,0,1-10.65,18s14.74,9,4.09,22.93c0,0,6.56,15.57-9.82,22.94C894.18,251.58,878.13,237.74,870.76,223.81Z"/><path class="cls-3" d="M1070.76,78c-.08-.65-.32-2.37-3-2.37s-7,1.55-12.94,4.67l.08-.09c4.51-4.34,16.39-15.8,15.07-22.36a4.93,4.93,0,0,0-3.11-3.6,6.76,6.76,0,0,0,.74-7c-1.15-2.13-3.52-3.36-6.72-3.36a10.35,10.35,0,0,0-1.47.08,7.37,7.37,0,0,0-6.47-3.44c-7.45,0-18.35,8-27,14.58-3.77,2.79-7.12,5.24-9.83,6.88.82-3,4.59-16.79,1.64-20.64a2.6,2.6,0,0,0-2.13-1.06h-.41c-5.65.9-14.9,18.59-23.1,35.05-4,8-11.87,28.26-19.49,47.91l-2.78,6.64.16.57,49.8,18.51.65-.41c2.87-10.81,5.57-22.77,8-35.38C1030.63,111.6,1071.66,84.33,1070.76,78Z"/><path d="M944.14,786.16c.33-1.15,1.48-5.65,2.87-12.53a.58.58,0,0,0-.17-.41l-8.51-4.51a.25.25,0,0,1-.17-.08l-88.85,3.77a.33.33,0,0,0-.25.08l-1.14.82-.17.16a34.17,34.17,0,0,0-2.29,12.45.39.39,0,0,0,.35.41h.06l97.87.08A.38.38,0,0,0,944.14,786.16Z"/><path d="M791.06,786.57c.09-.17,2.13-4.83,5.08-13.11l-.24-.32L691.06,772l-1.55,1.14-.09.09a34.17,34.17,0,0,0-2.62,13.35v.16Z"/><path class="cls-5" d="M947.09,773.3q2.46-12,4.1-24.41l-.33-.57-31,.24,3.68-16.87a8,8,0,0,0-6-9.56h-.09a6.61,6.61,0,0,0-1.72-.16l-28.17-.25-.66.57c-.08,7.21-1.64,12.62-4.59,16.55-6.55,8.84-13.51,14-19.57,18.59-6.39,4.75-12,8.85-14.91,15.81l-.08.24Z"/><path class="cls-5" d="M796.14,773.46c2.79-7.78,5.41-16.21,7.7-24.65l-38.25-.25,3.69-16.87a8,8,0,0,0-6-9.56h-.09a6.61,6.61,0,0,0-1.72-.16H731.11v.16c-1.64,7.53-3.68,12.86-6.55,16.71-6.63,8.84-13.68,14-20,18.59-6.56,4.75-11.31,7-14.34,13.84l-.82,1.8a.34.34,0,0,0,.21.4H796.14Z"/><path class="cls-3" d="M951.19,748.89c1-7.78,3.35-27.76,3.35-43.9,0-5.73-.08-10.81-.32-16h0l-44.15-77.32L882.22,689c3.44,15.48,4.84,25.39,4.67,33.25l28.75.09a7.65,7.65,0,0,1,7.67,7.58,10,10,0,0,1-.17,1.64L919.24,749Z"/><path class="cls-5" d="M949.14,650.36l-.58-3.11c-1.47-8.11-3-15.4-4.42-22.52-2.86-13.84-5.49-27-7.86-44-3.28-23.43-1.64-47.67-.16-71.1,2.7-41.36,5.32-84-18.6-123-.65-1.06-1.23-2.21-2-3.27l-.08-.08H815.92l-.08.08c-.08.08-.57,1.23-1.55,3.19-6.88,14.09-34.9,72.49-53.49,124.91l26.38,33.41,48.89-2.54,3-5.16c3.36-5.81,6.72-11.63,9.83-17.44,1.39,14.08,2.78,26.94,4.26,38.16a609.67,609.67,0,0,0,15.15,73.39c1.47,5.57,2.87,10.81,4.09,16,1.64,7.13,3.28,13.76,4.84,20.23,1.8,7.54,5,21.38,5,21.38h71.83a.17.17,0,0,0,.17-.16C954,686.56,951.31,661.42,949.14,650.36Z"/><path class="cls-6" d="M837.5,475.42,814.24,549l21.87-6.64,3-5.16c3.36-5.81,6.72-11.63,9.83-17.44l-3-43.49c-.16-2.21-2.62-3.85-4.83-3.61A3.92,3.92,0,0,0,837.5,475.42Z"/><path class="cls-7" d="M763.46,414.15A372.74,372.74,0,0,0,809,363c-1.88,15,1.15,20.15,5.33,23.5l103.19.08c12.12-11.38,11.31-24.24,11.14-39.14-.16-13.35-.33-28.51,8.36-45.87a348.65,348.65,0,0,1,29.29-48.49c2.21-3,4.34-6.06,6.38-8.92,2.62-3.61,5.08-7.05,7.54-10.49,1-1.47,2.21-3,3.36-4.67,9.5-12.86,24-32.18,36.77-80.26l.08-.25-50.61-18.67-.08.16c-7.13,18.35-14.42,36.78-17.45,41.94-2.62,4.5-15.32,20.88-31,37.26-35.47,36.78-56.84,44.56-68.55,44.56a11,11,0,0,1-1.72-.08,8,8,0,0,1-7.46-8v-.25l-.24.09c-17.37,3.68-25.47,10.07-33.5,19.9-3.93,4.91-9.67,13.84-16.79,25.22-7.29,11.55-16.46,26-26.29,39.89S749.22,354.31,741,364.8c-3.93,5-7.7,9.91-12.12,15.64l-.41,1.07,33.25,32.92Z"/><path class="cls-8" d="M809,331c-13.59,19.5-22.11,59.22-22.11,59.22C798.76,376.89,807,365.67,809,363l6.06-29.57C815.72,330.12,811,328.24,809,331Z"/><path class="cls-9" d="M848.89,519.73,844,448.23"/><path class="cls-3" d="M689.91,456.09c8.28,0,28.59-9,42.35-17.45a246.75,246.75,0,0,0,31-24.32l.16-.17-34.64-33.74-.17.16c-4.09,5.41-8,10.73-12,16.22-1.07-.08-9.51-1-21.14-1.88-1.31-.08-2.7-.25-4.09-.33-6.64-.49-14.17-1.15-19.74-1.15-5.08,0-7.7.49-8.19,1.56a2.9,2.9,0,0,0-.08,2.46c.82,1.88,3.52,3.68,8.11,5.32-3.2.49-14.83,2.62-17.53,7.53a4.13,4.13,0,0,0-.16,4c-.91.41-4.75,2.29-4.75,5.9,0,2.53,2.86,4.34,3.68,4.83-.65.57-2.54,2.54-2.46,4.91a5.31,5.31,0,0,0,2.62,3.93c2.13,1.4,5.82,2.13,11.23,2.13a161.83,161.83,0,0,0,18-1.39c4.67-.49,9.1-1,12.13-1,2.29,0,3.68.32,4,.9a1,1,0,0,1-.16,1.06,47.66,47.66,0,0,1-6.23,7.37c-4.26,4.43-7.94,8.19-5.32,12.13A5,5,0,0,0,689.91,456.09Z"/><path class="cls-10" d="M671.49,402.77c9.33-1.56,17.11-2.13,17.11-2.13"/><path class="cls-10" d="M653.8,414.32c12.12-2.87,37.59-6.23,37.59-6.23"/><path class="cls-10" d="M652.73,425c15.64-3,41.12-5.49,41.12-5.49"/><path class="cls-10" d="M829.64,200.8l-.24-.25a2.56,2.56,0,0,1-.74-3l.49-1.88"/><path class="cls-10" d="M834.72,207.27c-2.21,2.86-6.14,2.7-7.37,1.8"/><path d="M840.53,194.33a2.13,2.13,0,1,0-2.13-2.13,2.13,2.13,0,0,0,2.13,2.13Z"/><path d="M821.86,191.54a2.13,2.13,0,1,0-2.13-2.13,2.13,2.13,0,0,0,2.13,2.13Z"/><path class="cls-10" d="M843.16,234.21c3.6-1,7.61-1.55,10.89-2.62"/><path class="cls-10" d="M865.43,207.27l6.15-3.11"/><path class="cls-10" d="M1016,62l-1.88,7.78s7.37,13.93,3.27,29.49"/><path class="cls-10" d="M1059.31,44l-30.47,22.53"/><path class="cls-10" d="M1066.83,54.27,1037,77.21"/><path class="cls-10" d="M1054.79,80.15l-12.86,8.52"/><path class="cls-2" d="M760.84,511.46c-1.06,3-2.13,6-3.11,8.92A39.83,39.83,0,0,0,771.49,565a25.42,25.42,0,1,0,27.36,8,40,40,0,0,0,32.51-21.78c1.48-2.87,3-5.82,4.75-8.85Z"/><path d="M779.31,599a9.83,9.83,0,1,0-9.83-9.83h0a9.83,9.83,0,0,0,9.83,9.83Z"/><path class="cls-10" d="M809,363c2-12.29,6.88-32,8.52-41.77"/><path class="cls-10" d="M917.52,386.63l-103.21-.08"/><path class="cls-9" d="M765.59,748.56l-6.3,24.9"/><path class="cls-9" d="M722.51,741.44,734,745.53"/><path class="cls-9" d="M714.81,749.38l9.34,7.62"/><path class="cls-9" d="M880.31,741.27,892,745.53"/><path class="cls-9" d="M872.72,749.3l9.5,7.7"/><path class="cls-9" d="M919.24,748.89l-5.48,24.57"/><path class="cls-9" d="M882.22,689h72"/><path class="cls-11" d="M764.45,683.7l-1,14.33"/><path class="cls-11" d="M767.07,644.3l-2,29.49"/><path class="cls-10" d="M857.57,253.38l-4,133.17"/><path class="cls-9" d="M932.18,420.79H906.79v16.87a31.08,31.08,0,0,0,31,31"/><path class="cls-10" d="M728.82,380.41l34.64,33.74"/><path class="cls-10" d="M1020.39,148.54l-50.61-18.67"/><path class="cls-11" d="M771.49,565a38.52,38.52,0,0,0,12.37,6.3A39.07,39.07,0,0,0,798.93,573"/><path class="cls-8" d="M843.16,234.21l.32,7.87a45.41,45.41,0,0,0,14.5-8.77,1.52,1.52,0,0,0,.08-2.13,1.73,1.73,0,0,0-1.64-.41A90.3,90.3,0,0,1,843.16,234.21Z"/><path class="cls-10" d="M844.79,125.53c-3.27,4.91,0,12.86,0,12.86"/><path class="cls-10" d="M887.38,131.26C878,136.18,877.14,141,877.14,141"/><path class="cls-10" d="M834.15,163.2c7.37-2.78,10.64-6.22,10.64-6.22"/><path class="cls-10" d="M857.9,173a35.74,35.74,0,0,1,5-13.92"/><path class="cls-10" d="M916.05,198.42c-5.65,4.1-13.35,5.74-13.35,5.74"/><path class="cls-10" d="M912.77,157.47C909,164.84,899.5,168,899.5,168"/><path class="cls-12" d="M562.86,512.41,407.31,355l155.6-157.36H590V512.41Z"/><path class="cls-13" d="M562.86,512.41V197.69H535.75V512.41Z"/><path class="cls-1" d="M502.61,512.41V197.69H475.5V512.41Z"/><path class="cls-14" d="M475.5,512.41V197.69H448.37V512.41Z"/><path class="cls-15" d="M448.37,512.41V197.69H418.58V512.41Z"/><path class="cls-16" d="M419.18,512.41V197.69H396V512.41Z"/><path class="cls-17" d="M535.75,512.41V197.69H502.61V512.41Z"/><path class="cls-18" d="M378.5,753.58c6.16-5.51,12.24-11.5,18.39-17.57,19.58-19.51,37-39.1,48.84-55.37s16.81-27.12,14-30.6a3.7,3.7,0,0,0-3.08-1.14c-11.33,0-45.62,25.83-81.56,61.45-5.92,5.82-11.7,11.82-17.18,17.72l-.07.09,20.63,25.33Z"/><path class="cls-19" d="M378.5,753.58c6.16-5.51,12.24-11.5,18.39-17.57a512.86,512.86,0,0,0,39.32-43l-.3-.32c-16.81,12-30.62,19.43-46.9,19.43a57.47,57.47,0,0,1-13.81-1.78h-.15l-.07.08c-5.93,5.83-11.63,11.82-17.11,17.73l-.07.08,20.63,25.34Z"/><path class="cls-18" d="M284.71,748.39l-1.27-1.29c-27.24-26.88-54.55-45.66-66.26-45.66a5.71,5.71,0,0,0-4.42,1.62,6,6,0,0,0-1.28,4.37c.37,12,19.58,39.1,46.82,66.06l.08.08Z"/><path class="cls-19" d="M284.64,748.39l-1.28-1.29c-8.63-8.58-20.26-18.62-21.68-19.83s-5.68-4.54-5.68-4.54l-.07.08c-.08.08-6.45,6.4-19,6.4a47.49,47.49,0,0,1-17.71-3.73l-.53-.16.3.49c8.26,13.68,22.59,31.08,39.32,47.68l.08.08Z"/><path class="cls-18" d="M321,742.48l-.08-.16c-4.12-7.36-8.64-14.89-13.2-22.36-28.44-46-57.33-80.77-67.16-80.77a2.91,2.91,0,0,0-1.8.56c-7.35,5.35,11.56,50,42.25,99.5,4.5,7.2,9,14.24,13.58,21l.07.17Z"/><path class="cls-19" d="M321.18,742.57l-.08-.17C317,735,312.47,727.51,307.9,720c-3.9-6.31-7.81-12.47-11.78-18.38l-.08-.08-.15.08a19.09,19.09,0,0,1-7.73,1.38c-8.62,0-22.43-4-39.09-23.23l-.3.32a538.77,538.77,0,0,0,32.34,59.34c4.5,7.2,9,14.25,13.58,21l.08.16Z"/><path class="cls-20" d="M341.14,787.25v-.16c0-35-26.71-63.31-59.65-63.31s-59.66,28.34-59.66,63.31v.16Z"/><path class="cls-21" d="M248.1,787.25l-.08-.32c-2.1-6.32-5.7-8.42-9.45-10.77-4.43-2.59-8.93-5.26-11.41-14.73l-.07-.33-.15.41a64.07,64.07,0,0,0-5,25.42v.32Z"/><path class="cls-20" d="M452.79,787.25v-.16c0-30.11-22.66-54.56-50.57-54.56S351.64,757,351.64,787.09v.16Z"/><path class="cls-21" d="M432.08,787.25l-.08-.32c-1.27-4.94-5.25-6.8-9.75-8.91-5.4-2.51-11.63-5.42-14.56-14.49-4.5-13.92-11.78-21-21.53-21-7.36,0-14.71,4-19.44,6.71a17.22,17.22,0,0,1-2.17,1.14,57.28,57.28,0,0,0-13,36.43v.4Z"/><path class="cls-20" d="M399.66,787.25v-.16c0-49.3-29-89.53-64.6-89.53s-64.6,40.23-64.6,89.53v.16Z"/><path class="cls-21" d="M319.31,787.25l.08-.08c4.43-10.68-1-18.13-6.15-25.34-3.46-4.77-6.68-9.23-7.28-14.57-.83-6.64.9-12.71,2.77-19.1,2.18-7.45,4.43-15.22,2.18-23.89l-.08-.16-.15.08c-24.37,13.77-40.22,46.31-40.22,82.9v.16Z"/><path class="cls-22" d="M394.41,752.2a104,104,0,0,0-6.9-17.08"/><path class="cls-22" d="M289.59,723.87c-8.18,11.33-14.26,25.82-17,41.93"/><path class="cls-23" d="M377.83,662.74s-12.68,19.92-20.26,40.48"/><path class="cls-7" d="M391.11,670.68c8.63,0,16.06-4.29,19.88-11.5a24.56,24.56,0,0,0,1.32-19.51,30.94,30.94,0,0,0-13.21-16.59,28.14,28.14,0,0,0-15.1-4.46c-8.63,0-16.06,4.3-19.89,11.5a24.69,24.69,0,0,0-1.27,19.51A31,31,0,0,0,376,666.23,28.42,28.42,0,0,0,391.11,670.68Z"/><path class="cls-24" d="M388,648.5a3.06,3.06,0,0,0,2.86-1.62A3.39,3.39,0,0,0,391,644a5.28,5.28,0,0,0-1.88-2.42,4.3,4.3,0,0,0-2.18-.65,3,3,0,0,0-2.85,1.62,3.45,3.45,0,0,0-.15,2.83,5.37,5.37,0,0,0,1.88,2.43A4.34,4.34,0,0,0,388,648.5Z"/><path class="cls-25" d="M48.75,768.86C42.52,770.38,1.8,749.14.36,748.42v-.08a269.31,269.31,0,0,1,4.15-63s0-.08.08-.08h0l40.08-8.06,35.85,8.46a.08.08,0,0,1,.08.08h0c-7.66,17.49-13.17,31.38-14.6,41.52C65.91,727.58,55,767.34,48.75,768.86Z"/><path class="cls-25" d="M166.44,764.87c-6,1.44-50.23-15.73-51.74-16.37a.09.09,0,0,1-.08-.08h0c-2-16.13-4.15-29.38-4.55-47.67-.08-5.11.16-10.3.32-15.57,0,0,0-.08.08-.08h0l35.45-4.87L185.36,685a.08.08,0,0,1,.08.08h0c-2.08,12.94-3.51,24.91-3.67,34.74,0,2.63,0,5,.08,7.26,0,.08,0,.08-.08.08C169.87,727.5,172.74,763.27,166.44,764.87Z"/><path class="cls-25" d="M298.83,212.34c1.67-1.67,7.82.72,7.18,9.19,0,.08.08.15.16.08,7.27-13.74,26.19-41,30.9-26.91a.09.09,0,0,0,.08.08h0c6.31-3.84,9.42,2.39,7.91,7.9,0,.08,0,.08.08.08,7,.08,6.31,7.11,4.71,11.1v.1c7.82,4.87-8.63,32.5-9.66,33.45-2.32,7.19-6.39,20.68-12.78,27.15v.08c.32,7.43.4,14.61.24,21.08,0,.08,0,.08-.08.08l-26,1.52h-.08l-26-18.77v-.08C281.1,256.5,290.84,220.33,298.83,212.34Z"/><path class="cls-25" d="M199,157.41c-9.42-20.68-33.37-26.59-57.32-13.65-20.52,11.33-17.89,23.87-16.45,40.64.4,4.39-1.6,22.27-.4,35.69.32,3.67.8,7,1.12,9.9l.24,1,55.73,1.59c.08,0,.16-2.47.16-2.47l-.56-3.83s0-.08.08-.08c30.9,5.74,36.89-15.73,28.74-38.17V188c6.47-6.31,5.19-10.38-4.39-11.1a.09.09,0,0,1-.08-.08h0A130.37,130.37,0,0,0,199,157.41Z"/><path class="cls-26" d="M181.54,226.32l.55,3.67v0l.64,8.78c0,.08-.08.08-.16.08l-17.32-17.56c-.08-.08,0-.16.08-.16,9.1,3.35,15.57,4.87,16.21,5.11Z"/><path class="cls-27" d="M202.69,196.37a7.83,7.83,0,0,1-7.34-2.79"/><path class="cls-27" d="M181.54,226.24c-3.2-.8-13.18-3.52-16.21-5"/><path class="cls-27" d="M161,200.61,153.59,195"/><path class="cls-28" d="M195.11,175a2.5,2.5,0,1,0,2.5,2.5A2.5,2.5,0,0,0,195.11,175Z"/><path class="cls-28" d="M121.72,187.51c-1.59-16.69-1-36.17,19.49-47.43,24.51-12.21,47.58-7.58,57.8,17.25v.08c-.56.64-9,9.66-32.73.56-.08,0-.16.08-.08.08,4.55,6.63,9,19.4,3.83,29.54,0,.08-.08.08-.16,0-31.46-22-43.91,8.54-16.77,25.55.08,0,.08.08,0,.16-10.78,8.23-27.06,6.87-28.18,6.71l-.08-.08C123.56,207.23,122.31,191.9,121.72,187.51Z"/><path class="cls-5" d="M90.75,271.67c11.42-17.57,21.8-25.23,36.17-30.82l.08-.08-1-10.62c0-.08,0-.08.08-.08h56c.08,0,.08,0,.08.08l1.2,9.58a.09.09,0,0,0,.08.08h0c36.49-2.16,67.23,32,88.31,55.33a.11.11,0,0,0,.16,0h0c.24-1,1.6-7.34,3.83-16.53,0,0,0-.08.08-.08h0l52,17.25.08.08c-.32,85.83-43.35,93.42-94.77,56.37a135.06,135.06,0,0,1-19.81-16.45c-.08-.08-.08,0-.16,0l-6.78,22-7,22.84-.08.08-47,9.26-38.72-9h-.08l-11.26,14c-.16.64-7.11,29.86-13.49,24.75A46.08,46.08,0,0,1,75.5,401.43C58.65,361.73,78.31,291,90.75,271.67Z"/><path class="cls-29" d="M75.58,401.49c26.35-19.16,29.3-65,29.62-71.22,0-.08.16-.08.16,0,1.84,11.5,6.39,40.09,8.07,50.39v.08l-11.18,14.53c-.16.4-11.26,27.78-16.85,21.64-6.23-6.15-9.66-14.54-10-15.26C75.58,401.57,75.58,401.57,75.58,401.49Z"/><path class="cls-7" d="M23.2,626.82c21.72-46.55,28-37.53,46.39-158.18,6.47-42.23,22.44-68.66,43.92-88h85.8a.08.08,0,0,1,.08.08h0c.4,2.71,14.37,96,2.16,210.07-2.64,24.83-8.87,54.13-13.58,80.56-.88,4.79-1.67,9-2.31,13.65,0,0,0,.07-.06.08h0l-74.9.08c-.08,0-.08,0-.08-.08,1-26.59,5.83-54.45,16.45-95.65,1.76-9,3.28-26,3-26-6.55,21.24-14.46,43.83-23.72,66.43-7.5,18.36-16,36.89-25.47,55.81,0,0,0,.07-.06.08h0c-2,0-73.06-.32-76-.32a.09.09,0,0,1-.08-.08h0A243.42,243.42,0,0,1,23.2,626.82Z"/><path class="cls-2" d="M21.6,748.42c10.94,0,20.28,14,26.59,12.54s-5.51-14.06-5.51-24.2c0-8.94,10.22-9.34,23.15-9.42a.08.08,0,0,1,.08.08h0c-1.19,7.67-.32,13.57,3.6,17.57,11.8,12.45,22.8,15.33,30.74,27.14a15.64,15.64,0,0,1,1.91,3.44c0,.08,0,.08-.08.08-3.51.16-92.38,3.35-94.21,3.43H7.79l-4.4-3.51v-.08A264.42,264.42,0,0,1,.44,748.42c0-.08,0-.08.08-.08Z"/><path class="cls-30" d="M144.72,432.79c-7.83,0-12.46-6.3-10.38-14.13l4.23-15.49h28.27l-4.16,15.49C160.45,426.49,152.46,432.79,144.72,432.79Z"/><path class="cls-30" d="M93.47,403.25H109l-4.16,15.57C102.73,426.57,94.19,433,88,433a13.6,13.6,0,0,1-7.43-1.75"/><path class="cls-31" d="M199.31,380.74l-85.67-.16-8.23-50.31"/><path class="cls-31" d="M110.23,363.73,99,367.32"/><path class="cls-31" d="M271.67,295.14l-6.15-6.78"/><path class="cls-29" d="M213.15,335.78l-6.79,21.88c0,.08-.16.08-.16,0l-14-40.72c0-.08.08-.16.16-.08l20.76,18.92Z"/><path class="cls-31" d="M213.15,335.86l-20.76-19"/><path class="cls-31" d="M183.31,239.73a69.75,69.75,0,0,1,9.91.32"/><path class="cls-30" d="M116.53,470.32c3.76,33.38,15.73,52.3,13.34,93"/><path class="cls-27" d="M337.14,194.7c-8,9.58-23.15,33.45-23.15,33.45"/><path class="cls-27" d="M345.22,202.76c-4,5.59-15.17,22.2-21.64,33.38"/><path class="cls-27" d="M350,214l-17.65,30.26"/><path class="cls-2" d="M139.14,748.1c10.94,0,20.44,14.21,26.67,12.7,10.22-3.28-27.71-35.06,16-33.54.08,0,.08,0,.08.08-.24,27.87,34.25,28.67,43,48.23v.08c-.08.24-.56,1.83-.64,2.15,0,0,0,.07-.06.08h0l-102.36.8h-.08l-2.23-3c-2-8.95-3.68-18-5-27.07,0-.08,0-.08.08-.08C116.31,748.42,139.14,748.1,139.14,748.1Z"/><path class="cls-27" d="M306.17,221.61c-1.92,3.51-5.35,9.5-5.35,9.5"/><path class="cls-10" d="M189.52,746.5,182.25,753"/><path class="cls-10" d="M197.42,753l-5.59,8"/><path class="cls-10" d="M70.86,746.9,64,753"/><path class="cls-10" d="M78.54,753.21l-5,7.83"/><path d="M105,787H5.8a.09.09,0,0,1-.08-.08h0q-1.44-5.6-2.32-11.3c0-.08,0-.08.08-.08l98.69.08a.08.08,0,0,1,.08.08h0A31.72,31.72,0,0,1,105.12,787,.37.37,0,0,0,105,787Z"/><path d="M225,775.65A31.16,31.16,0,0,1,227.72,787c0,.08,0,.08-.08.08h-105a.09.09,0,0,1-.08-.08h0c-.16-.47-1.2-4.23-2.87-11.33,0-.08,0-.08.08-.08,3.35-.24,102.68.08,105.23.08Z"/><path class="cls-32" d="M129.87,563.42c-3.2,10.22-7.19,23.08-11.5,34.57-3.83,10.38-8.3,22.6-12.06,31.46,0,.08-.16.08-.16,0,.56-8.7,8.63-135.1,10.38-159,0-.08.16-.08.16,0C119.65,500.5,130.91,527.81,129.87,563.42Z"/><path class="cls-1" d="M686.53,696.39a26.77,26.77,0,0,1-26.76-26.75V653.57h30v42.89h-3.19Z"/><path class="cls-20" d="M552.49,786.86c0-51.12,24.57-75.83,39.34-90.6,2.93-2.93,5.52-5.52,7.49-7.9,11.71-14,12.8-17.16,25.6-56.16l2-6c9.87-30,19.2-48.68,23.83-57.12a4.55,4.55,0,0,1,2.11-1.84,4,4,0,0,1,1.45-.28,4.15,4.15,0,0,1,3.88,2.59L666.76,591c9.19,1.16,17.5,8.71,17.57,8.78L713,593a.25.25,0,0,1,.2-.06,3.82,3.82,0,0,1,.89-.07,4.67,4.67,0,0,1,4.56,3.67c1,5.72.47,17.36-8.44,24.92a46.52,46.52,0,0,1-5.38,3.74c-6.74,4.36-15.12,9.81-15.12,19.68V770.39h.07a12.84,12.84,0,0,1,12.8,12.86v3.54Z"/><path class="cls-33" d="M663.86,786.25v-2.86a11.79,11.79,0,0,0-11.78-11.78h-2.32l-4.22-34.78A31.72,31.72,0,0,0,614,709"/><path class="cls-34" d="M676.79,609.19a2.32,2.32,0,1,0-2.31-2.33h0a2.33,2.33,0,0,0,2.31,2.33Z"/><path class="cls-35" d="M719,602.65a12.19,12.19,0,0,1-11.64-8.3l5.71-1.36a.28.28,0,0,1,.21-.07,3.74,3.74,0,0,1,.88-.07,4.66,4.66,0,0,1,4.56,3.68A30.59,30.59,0,0,1,719,602.65Z"/><path class="cls-2" d="M614.5,662.56c1.5-3.88,3.07-8.51,5-14.37l.48-1.49h69.84v15.93H614.5Z"/><path class="cls-36" d="M665.31,786.86v-3.13A12.68,12.68,0,0,0,652.65,771H650.2l-5-36.42c-.81-6.94-5.92-14.36-11.43-18.86l8.78.55a25,25,0,0,1,18.65,21.17l4.15,33h5a9.56,9.56,0,0,1,9.66,9l.55,7.42Z"/><path class="cls-37" d="M212.31,97c19.38.92,40.24,1.11,83.07-22.15,74.76-40.61,112-46.52,117.22-27.69,4.61,16.61-35.08,42.46-51.69,59.07-35.17,35.17-26.4,59.16,13.84,52.61,39.69-6.46,63.69-29.53,96.91,3.69"/><path class="cls-38" d="M621.18,107.14a33.37,33.37,0,1,0,31.66-35A33.38,33.38,0,0,0,621.18,107.14Z"/><path class="cls-39" d="M703.87,26A24.73,24.73,0,1,0,727.37,0h-.06A24.75,24.75,0,0,0,703.87,26Z"/><path class="cls-37" d="M319.08,493.46,279.19,627.72"/><path class="cls-37" d="M280.85,472.21,231.94,537"/><path class="cls-40" d="M639.52,489.81c6.9-8.35,17.49-23.4,10.51-34.82-8.76-14.29-28.9-3.46-15.18,9.61,19.71,15.46,42.57-6.84,53.17,4.75,11.38,12.19-12,32.83-12,50.22C676,534,691.39,540,691.39,540"/></g></g></g></g></g></g></svg>