<svg id="SvgjsSvg1113" width="550" height="550" xmlns="http://www.w3.org/2000/svg" version="1.1" xmlns:xlink="http://www.w3.org/1999/xlink" xmlns:svgjs="http://svgjs.com/svgjs"><defs id="SvgjsDefs1114"></defs><g id="SvgjsG1115"><svg xmlns="http://www.w3.org/2000/svg" enable-background="new 0 0 1364 960" viewBox="0 0 1364 960" width="550" height="550"><path fill="#f8f8ff" d="M1259.773,594.888c-74.876-71.502-106.998-126.169-80.395-217.8
	c31.868-109.768-8.852-215.111-138.486-257.992c-113.174-37.437-175.058,50.608-281.113,82.716
	C566.8,260.237,539.262,88.488,362.74,178.851c-126.131,64.567-74.788,167.254-96.919,239.842
	c-10.779,35.355-49.573,73.474-94.211,84.866C18.342,542.673,13.817,761.781,119.262,861.308l1155.402-2.13
	C1336.654,778.096,1328.919,660.917,1259.773,594.888z" class="colorF8F8FF svgShape"></path><path fill="#e3e3fc" d="M1131.191 210.426c-.149-2.875-4.78-4.973-10.346-4.685-4.644.24-8.459 2.067-9.513 4.335-.182-.038-.364-.076-.545-.117-4.623-1.035-9.397-2.437-13.399-5.035-.004-.003-.008-.004-.012-.007.388-.455.776-.91 1.154-1.375 2.66-3.28 5.03-6.751 7.263-10.312 1.978 1.286 4.449 1.437 6.743 1.626 2.63.216 5.273.272 7.91.171 2.034-.078 4.061-.252 6.077-.515.022.077.047.154.075.229 1.031 2.688 6.084 3.251 11.287 1.257 5.204-1.995 8.587-5.79 7.557-8.479-1.03-2.688-6.084-3.251-11.287-1.257-4.079 1.563-7.038 4.233-7.631 6.61-1.871.252-3.753.423-5.641.506-2.385.106-4.776.082-7.159-.072-2.332-.151-5.044-.164-7.07-1.468 2.723-4.435 5.268-8.987 7.917-13.473.059.026.124.048.199.06 4.541.762 9.073.375 13.448-1.052.732-.239 1.452-.507 2.168-.785 1.934 1.557 6.091 1.639 10.35.007 5.204-1.995 8.587-5.79 7.557-8.479-1.031-2.689-6.084-3.251-11.288-1.257-5.087 1.95-8.432 5.621-7.616 8.296-4.419 1.642-9.031 2.515-13.94 1.736 1.446-2.414 2.931-4.804 4.503-7.136 2.496-3.702 5.224-7.265 8.288-10.499 2.307 1.095 6.501-.368 10.069-3.687 4.08-3.795 5.798-8.581 3.837-10.689-1.961-2.108-6.858-.74-10.938 3.056-3.824 3.557-5.573 7.984-4.163 10.262-4.835 5.119-8.827 11.005-12.511 17.068-.761-2.095-.997-4.35-1.304-6.549-.353-2.536-.691-5.076-.908-7.628-.142-1.677-.226-3.361-.237-5.044 2.021-1.369 3.556-4.989 3.712-9.303.201-5.569-1.968-10.168-4.845-10.272-2.877-.104-5.372 4.326-5.574 9.895-.201 5.569 1.968 10.168 4.845 10.272.083.003.165-.011.247-.015.027 1.601.112 3.202.254 4.801.226 2.559.557 5.107.912 7.651.367 2.633.678 5.277 1.759 7.732.03.068.066.125.105.176-.833 1.397-1.652 2.8-2.464 4.202-1.84 3.177-3.67 6.364-5.586 9.497-3.484-5.673-6-11.872-7.449-18.326 2.028-1.451 3.156-5.505 2.604-10.09-.666-5.533-3.522-9.739-6.38-9.396-2.858.344-4.636 5.108-3.971 10.641.651 5.416 3.403 9.55 6.2 9.4 1.506 6.63 4.103 12.999 7.717 18.811.112.181.262.291.425.349-1.264 2.027-2.571 4.026-3.951 5.978-1.515 2.144-3.13 4.201-4.835 6.176-.032-.062-.069-.122-.12-.18-3.157-3.615-5.784-7.648-7.784-12.014-.525-1.146-1.032-2.337-1.497-3.558 1.554-1.888 1.962-5.835.832-10.032-1.449-5.381-4.877-9.136-7.657-8.388-2.78.749-3.859 5.718-2.41 11.099 1.449 5.381 4.877 9.136 7.657 8.388.076-.02.151-.046.224-.072.38.978.784 1.94 1.202 2.876 2.081 4.661 4.881 8.972 8.237 12.814.091.104.19.173.293.217-2.539 2.834-5.262 5.502-8.158 8.005-.55.475-1.109.939-1.668 1.403-.031-.059-.067-.117-.115-.173-1.786-2.078-3.382-4.311-4.77-6.665 1.262-2.028 1.526-5.681.485-9.547-1.449-5.381-4.877-9.136-7.657-8.388-2.78.749-3.859 5.718-2.41 11.099 1.449 5.381 4.877 9.136 7.657 8.388.271-.073.526-.187.764-.338 1.387 2.31 2.967 4.506 4.736 6.564.024.029.05.049.076.072-5.168 4.173-10.669 7.917-16.252 11.514-.878.565-.129 2.018.755 1.449 5.833-3.757 11.609-7.699 16.994-12.091 1.903 1.362 3.914 2.657 6.026 3.717-.025.117-.053.233-.062.353-.224 2.87 4.098 5.549 9.654 5.983 5.556.434 10.241-1.541 10.465-4.411.224-2.87-4.098-5.548-9.654-5.983-4.289-.335-8.05.769-9.649 2.609-1.909-.954-3.734-2.113-5.477-3.34 3.481-2.923 6.777-6.055 9.802-9.464.054.069.12.134.206.19 4.29 2.785 9.472 4.316 14.445 5.352.027.006.055.011.083.016.363 2.764 4.899 4.75 10.324 4.47C1126.949 215.865 1131.34 213.301 1131.191 210.426zM1120.054 354.418c-11.25-.11-24.744-7.732-28.45-15.834-2.448-5.323 23.958 17.799 31.53 12.793 7.552-4.994 15.194-18.989 15.194-18.989-9.071 4.636-41.199-3.973-42.458-12.357-1.276-8.496 38.795 15.066 43.51 8.642 4.747-6.416 12.68-27.646 12.68-27.646-10.962 9.426-34.606 9.683-37.014 6.005-3.992-6.097 33.075-.587 36.96-9.037 3.885-8.448 4.687-23.037 4.687-23.037s-18.438 15.28-26.943 12.432c-8.512-2.815 22.587-6.633 25.889-14.345 3.039-7.126 2.451-19.613 2.298-20.154-3.334 6.148-26.082 22.329-31.963 20.881-9.565-2.333 26.115-8.305 27.103-28.658.626-13.389 1.849-19.014 4.116-26.173-10.325 5.141-23.08 8.509-32.166 10.832-17.228 4.406-8.128 47.259-13.733 38.539-5.513-8.576-3.244-34.494 5.58-37.163 0 0-17.599 1.218-22.675 7.512-3.24 4.002 9.077 36.659 2.961 38.005-6.135 1.358-16.046-30.066-7.831-33.9 0 0-22.793 4.474-20.572 16.061 2.201 11.6 20.591 38.779 15.254 38.956-5.349.158-25.801-37.626-17.742-45.032 0 0-18.109 10.418-14.825 21.238 3.285 10.82 21.481 22.038 18.549 23.923-2.912 1.872-14.669-3.456-21.549-22.482 0 0-12.689 10.276-12.793 21.485-.151 16.432 16.949 31.61 31.329 32.218-3.559 11.076 15.236 32.699 34.075 38.471C1109.042 370.035 1120.054 354.418 1120.054 354.418zM1126.561 246.003c-1.544-.065-2.706-2.349-2.595-5.118.112-2.769 1.452-4.966 2.996-4.901 1.543.065 2.706 2.349 2.595 5.118C1129.445 243.87 1128.104 246.067 1126.561 246.003zM1103.153 247.228c-.982.159-1.938-.895-2.18-2.353-.241-1.458.364-2.765 1.327-2.911.983-.159 1.938.896 2.18 2.353C1104.702 245.787 1104.117 247.082 1103.153 247.228zM1049.238 305.081c-2.37-4.206-2.38-8.676-.028-9.993 2.352-1.317 6.16 1.017 8.518 5.203 2.35 4.218 2.38 8.677.028 9.994C1055.404 311.602 1051.595 309.267 1049.238 305.081zM1088.265 291.339c-1.126-2.53-.876-5.083.55-5.721 1.418-.606 3.469.94 4.575 3.483 1.106 2.543.856 5.096-.562 5.702C1091.422 295.428 1089.371 293.882 1088.265 291.339zM1125.872 294.335c.301-.916 1.812-1.248 3.321-.717 1.529.519 2.516 1.664 2.195 2.593-.308.949-1.799 1.268-3.328.749C1126.53 296.442 1125.551 295.264 1125.872 294.335zM1087.862 354.004c-3.071-2.614-4.356-6.127-2.899-7.842 1.456-1.715 5.123-.985 8.194 1.629 3.052 2.627 4.356 6.127 2.9 7.842C1094.601 357.348 1090.933 356.618 1087.862 354.004zM1053.907 252.222c-10.548 3.914-25.874 1.611-32.228-4.633-4.187-4.098 28.734 8.073 34.02.693 5.271-7.361 7.413-23.161 7.413-23.161-6.818 7.569-39.902 10.997-44.072 3.615-4.225-7.48 41.617.223 43.728-7.461 2.143-7.688 1.974-30.351 1.974-30.351-6.874 12.718-28.868 21.399-32.431 18.824-5.906-4.27 30.686-12.357 31.298-21.637.613-9.279-3.846-23.192-3.846-23.192s-11.768 20.856-20.729 21.232c-8.956.409 18.73-14.26 19.061-22.643.295-7.741-4.713-19.196-5.049-19.646-.92 6.933-16.392 30.169-22.402 30.916-9.767 1.236 21.429-17.081 15.085-36.446-4.196-12.73-5.061-18.421-5.499-25.918-7.809 8.489-18.521 16.188-26.179 21.602-14.52 10.266 9.279 47.046.931 40.903-8.211-6.042-15.345-31.062-8.056-36.706 0 0-16.005 7.421-18.499 15.113-1.597 4.895 21.567 31.003 16.334 34.443-5.246 3.459-25.722-22.356-19.418-28.87 0 0-19.693 12.317-13.482 22.348 6.197 10.05 33.078 28.872 28.156 30.943-4.941 2.057-37.534-25.936-32.65-35.731 0 0-13.196 16.197-6.266 25.131 6.931 8.934 27.934 12.917 25.868 15.725-2.052 2.788-14.937 2.009-28.155-13.307 0 0-8.185 14.129-4.28 24.636 5.726 15.403 27.117 23.476 40.767 18.91.63 11.617 25.906 25.105 45.564 23.77C1049.196 270.742 1053.907 252.222 1053.907 252.222zM1021.279 148.629c-1.465.49-3.366-1.228-4.251-3.854-.884-2.626-.416-5.157 1.048-5.647 1.465-.491 3.366 1.228 4.251 3.854C1023.212 145.607 1022.744 148.138 1021.279 148.629zM999.852 158.13c-.861.499-2.13-.144-2.877-1.42-.746-1.275-.647-2.712.2-3.193.861-.499 2.13.145 2.876 1.419C1000.784 156.231 1000.699 157.649 999.852 158.13zM970.143 231.419c-3.715-3.082-5.32-7.255-3.594-9.325 1.727-2.07 6.118-1.249 9.814 1.82 3.701 3.101 5.32 7.255 3.594 9.325C978.231 235.308 973.84 234.487 970.143 231.419zM1001.693 204.649c-1.955-1.962-2.632-4.435-1.529-5.54 1.108-1.072 3.576-.36 5.517 1.62 1.941 1.981 2.619 4.454 1.51 5.526C1006.102 207.342 1003.634 206.63 1001.693 204.649zM1037.891 194.022c-.046-.963 1.246-1.813 2.847-1.855 1.614-.061 2.944.656 2.976 1.639.051.996-1.228 1.827-2.842 1.888C1039.258 195.754 1037.923 195.004 1037.891 194.022zM1023.689 263.328c-3.802-1.346-6.256-4.168-5.508-6.29.748-2.122 4.434-2.749 8.236-1.404 3.789 1.365 6.257 4.168 5.508 6.29C1031.177 264.046 1027.491 264.674 1023.689 263.328zM272.604 510.358c.298-2.864 5.033-4.717 10.576-4.14 4.625.482 8.34 2.505 9.274 4.825.184-.029.367-.057.55-.088 4.671-.793 9.512-1.944 13.643-4.33.004-.003.008-.003.013-.006-.363-.475-.728-.949-1.08-1.433-2.486-3.414-4.672-7.004-6.716-10.677-2.043 1.182-4.518 1.203-6.818 1.272-2.638.079-5.28-.003-7.908-.241-2.027-.184-4.042-.464-6.042-.831-.026.076-.054.151-.087.225-1.169 2.631-6.245 2.93-11.337.667-5.093-2.263-8.273-6.23-7.104-8.861 1.169-2.631 6.245-2.929 11.337-.667 3.992 1.774 6.808 4.594 7.277 6.998 1.855.349 3.726.617 5.607.8 2.377.23 4.766.331 7.153.301 2.337-.029 5.046.099 7.137-1.097-2.488-4.571-4.792-9.25-7.204-13.867-.06.023-.126.041-.202.05-4.575.525-9.08-.098-13.375-1.751-.719-.277-1.424-.582-2.124-.897-2.013 1.454-6.168 1.319-10.337-.533-5.093-2.263-8.273-6.23-7.104-8.861 1.169-2.631 6.245-2.93 11.338-.667 4.979 2.212 8.128 6.053 7.174 8.682 4.328 1.87 8.888 2.982 13.83 2.46-1.318-2.487-2.676-4.951-4.125-7.361-2.3-3.827-4.838-7.527-7.729-10.917-2.362.973-6.473-.706-9.863-4.207-3.877-4.003-5.343-8.872-3.275-10.875 2.068-2.003 6.888-.382 10.764 3.622 3.633 3.752 5.15 8.264 3.623 10.465 4.562 5.364 8.241 11.45 11.605 17.696.869-2.053 1.222-4.292 1.643-6.472.485-2.514.955-5.034 1.304-7.571.229-1.667.4-3.345.5-5.024-1.947-1.472-3.291-5.168-3.222-9.484.089-5.572 2.495-10.051 5.374-10.005 2.879.046 5.14 4.6 5.051 10.172-.09 5.572-2.495 10.052-5.374 10.005-.083-.001-.164-.019-.246-.028-.11 1.597-.279 3.192-.504 4.781-.359 2.544-.822 5.071-1.309 7.594-.504 2.61-.953 5.234-2.16 7.629-.033.066-.072.121-.114.171.759 1.438 1.504 2.882 2.242 4.324 1.672 3.268 3.333 6.547 5.083 9.775 3.776-5.484 6.611-11.543 8.394-17.913-1.95-1.555-2.865-5.662-2.075-10.212.953-5.491 4.025-9.543 6.861-9.05 2.837.492 4.364 5.342 3.411 10.833-.933 5.375-3.896 9.36-6.681 9.064-1.85 6.543-4.774 12.767-8.686 18.383-.122.175-.277.277-.442.326 1.157 2.09 2.357 4.154 3.634 6.176 1.401 2.22 2.906 4.358 4.507 6.419.035-.06.076-.118.129-.174 3.342-3.446 6.174-7.336 8.399-11.592.584-1.117 1.152-2.28 1.681-3.475-1.453-1.966-1.655-5.929-.308-10.062 1.727-5.298 5.347-8.87 8.084-7.978 2.737.893 3.556 5.911 1.828 11.209-1.727 5.298-5.347 8.87-8.084 7.977-.075-.025-.148-.053-.22-.084-.431.957-.884 1.896-1.35 2.809-2.321 4.547-5.342 8.705-8.893 12.368-.096.099-.199.163-.304.201 2.388 2.963 4.969 5.769 7.729 8.419.524.503 1.059.995 1.592 1.488.034-.057.073-.113.124-.167 1.892-1.982 3.602-4.128 5.111-6.408-1.154-2.091-1.228-5.753.013-9.559 1.727-5.298 5.347-8.87 8.084-7.978 2.737.893 3.556 5.911 1.828 11.209-1.727 5.298-5.347 8.87-8.084 7.977-.267-.087-.516-.215-.746-.377-1.505 2.235-3.198 4.345-5.071 6.308-.026.027-.053.046-.08.068 4.944 4.437 10.242 8.463 15.63 12.345.847.61.023 2.022-.829 1.408-5.63-4.056-11.192-8.294-16.341-12.96-1.972 1.261-4.047 2.449-6.211 3.398.018.118.041.235.044.356.074 2.878-4.381 5.328-9.952 5.471-5.571.144-10.147-2.073-10.221-4.951-.074-2.878 4.381-5.327 9.952-5.471 4.301-.111 7.999 1.188 9.5 3.108 1.956-.853 3.839-1.915 5.644-3.051-3.324-3.101-6.452-6.4-9.295-9.962-.058.066-.126.128-.215.179-4.429 2.558-9.684 3.817-14.704 4.592-.028.004-.056.008-.083.012-.506 2.741-5.14 4.488-10.543 3.926C276.558 516.011 272.306 513.221 272.604 510.358zM303.448 666.764c28.159-4.129 37.908-27.014 34.461-38.125 14.385-.463 31.638-15.468 31.652-31.901.01-11.21-12.576-21.613-12.576-21.613-7.071 18.956-18.881 24.165-21.774 22.264-2.913-1.914 15.396-12.949 18.789-23.735 3.393-10.786-14.61-21.386-14.61-21.386 7.985 7.487-12.847 45.063-18.195 44.851-5.335-.231 13.328-27.223 15.646-38.8 2.337-11.564-20.409-16.268-20.409-16.268 8.175 3.917-2.052 35.239-8.173 33.819-6.102-1.407 6.543-33.938 3.344-37.973-5.012-6.345-22.598-7.741-22.598-7.741 8.797 2.758 10.804 28.698 5.205 37.218-5.693 8.662 3.838-34.097-13.344-38.676-9.062-2.415-21.783-5.911-32.055-11.156 2.195 7.181 3.361 12.818 3.852 26.213.783 20.362 36.4 26.694 26.812 28.93-5.895 1.389-28.479-15.021-31.751-21.202-.159.539-.873 13.02 2.094 20.176 3.224 7.745 34.632 13.433 25.743 14.606-8.713 1.15-26.595-8.412-26.595-8.412s.434 10.304 4.233 18.791c3.8 8.488 40.921 3.352 36.867 9.409-2.445 3.653-26.085 3.158-36.951-6.378 0 0 7.719 21.309 12.401 27.773 4.649 6.471 44.956-16.685 43.595-8.203-1.343 8.372-33.557 16.656-42.58 11.929 0 0 7.5 14.071 15.001 19.141 7.521 5.082 34.16-17.773 31.658-12.475-3.788 8.064-17.358 15.55-28.608 15.546C284.583 653.386 295.188 667.975 303.448 666.764zM276.224 539.98c-.083-2.77 1.102-5.042 2.646-5.091 1.544-.049 2.862 2.161 2.946 4.931.083 2.77-1.102 5.042-2.647 5.092C277.626 544.96 276.307 542.75 276.224 539.98zM301.266 543.448c.256-1.455 1.223-2.499 2.204-2.331.961.156 1.554 1.469 1.297 2.924-.257 1.455-1.223 2.5-2.204 2.331C301.601 546.216 301.029 544.916 301.266 543.448zM347.323 609.883c-2.338-1.341-2.264-5.799.129-9.993 2.399-4.162 6.231-6.458 8.57-5.117 2.338 1.341 2.283 5.811-.129 9.993C353.494 608.928 349.661 611.224 347.323 609.883zM312.409 594.049c-1.412-.62-1.637-3.175-.505-5.707 1.132-2.531 3.198-4.057 4.61-3.436 1.419.652 1.643 3.207.492 5.726C315.874 593.163 313.808 594.688 312.409 594.049zM277.157 595.851c-1.535.503-3.023.169-3.321-.783-.311-.932.687-2.068 2.221-2.571 1.515-.516 3.023-.169 3.314.75C279.682 594.18 278.691 595.348 277.157 595.851zM308.567 654.844c-1.439-1.729-.099-5.216 2.979-7.812 3.097-2.583 6.772-3.276 8.21-1.547 1.439 1.729.119 5.229-2.978 7.812C313.68 655.88 310.005 656.573 308.567 654.844z" class="colorE3E3FC svgShape"></path><rect width="729.598" height="460.375" x="338.541" y="223.579" fill="#ffffff" class="colorFFF svgShape"></rect><rect width="125.602" height="145.221" x="642.789" y="707.778" fill="#3e32b2" class="color3E32B2 svgShape"></rect><path fill="#cccccc" d="M768.39,707.778v145.221h-16.959c1.201-14.518,2.553-58.223-20.407-91.724
	c-21.271-30.987-66.966-34.551-88.236-34.289v-19.208H768.39z" class="colorCCC svgShape"></path><path fill="#4d4d4d" d="M831.657,818.146H579.52c-20.797,0-37.655,16.859-37.655,37.656l0,0h327.448l0,0
	C869.314,835.005,852.454,818.146,831.657,818.146z" class="color4D4D4D svgShape"></path><path fill="#3e32b2" d="M831.657 818.146H579.52c-20.797 0-37.655 16.859-37.655 37.656l0 0h327.448l0 0C869.314 835.005 852.454 818.146 831.657 818.146zM1069.405 215.62H341.768c-5.983 0-10.839 4.855-10.839 10.838v477.872c0 5.984 4.855 10.838 10.839 10.838h727.637c5.991 0 10.838-4.855 10.838-10.838V226.458C1080.243 220.475 1075.396 215.62 1069.405 215.62zM1062.176 662.776c0 6.383-5.156 11.557-11.521 11.557H356.143c-6.365 0-11.53-5.174-11.53-11.557v-420.57c0-6.383 5.165-11.557 11.53-11.557h694.512c6.365 0 11.521 5.173 11.521 11.557V662.776z" class="color3E32B2 svgShape"></path><path fill="#ffffff" d="M361.848,698.19h29.358c2.345,0,4.247-1.901,4.247-4.247l0,0c0-2.345-1.902-4.247-4.247-4.247h-29.358
	c-2.345,0-4.247,1.903-4.247,4.247l0,0C357.601,696.289,359.504,698.19,361.848,698.19z" class="colorFFF svgShape"></path><path fill="#dfe2ed" d="M359.837,690.271c-0.333,0.606-0.574,1.269-0.574,2.011c0,2.345,1.9,4.247,4.247,4.247h29.356
	c0.744,0,1.406-0.242,2.012-0.576c-0.722,1.312-2.067,2.236-3.671,2.236h-29.358c-2.345,0-4.247-1.901-4.247-4.247
	C357.601,692.34,358.525,690.993,359.837,690.271z" class="colorDFE2ED svgShape"></path><path fill="#ffffff" d="M403.699,698.19h16.889c2.346,0,4.247-1.901,4.247-4.247l0,0c0-2.345-1.901-4.247-4.247-4.247h-16.889
	c-2.346,0-4.247,1.903-4.247,4.247l0,0C399.452,696.289,401.354,698.19,403.699,698.19z" class="colorFFF svgShape"></path><path fill="#dfe2ed" d="M402.517,689.935c-0.587,0.729-0.989,1.617-0.989,2.625c0,2.346,1.901,4.247,4.247,4.247h16.889
	c0.418,0,0.799-0.125,1.181-0.24c-0.779,0.966-1.921,1.623-3.259,1.623h-16.889c-2.346,0-4.246-1.901-4.246-4.247
	C399.453,692.016,400.759,690.455,402.517,689.935z" class="colorDFE2ED svgShape"></path><path fill="#ffffff" d="M434.249,698.414h16.889c2.347,0,4.248-1.901,4.248-4.247l0,0c0-2.345-1.901-4.247-4.248-4.247h-16.889
	c-2.345,0-4.246,1.903-4.246,4.247l0,0C430.003,696.512,431.904,698.414,434.249,698.414z" class="colorFFF svgShape"></path><path fill="#dfe2ed" d="M434.249,689.919h0.636c-0.509,0.7-0.869,1.517-0.869,2.45c0,2.345,1.9,4.245,4.247,4.245h16.253
	c-0.773,1.063-1.965,1.799-3.378,1.799h-16.889c-2.345,0-4.246-1.901-4.246-4.247C430.003,691.821,431.904,689.919,434.249,689.919z
	" class="colorDFE2ED svgShape"></path><path fill="#ffffff" d="M473.626,693.943c0-3.606-2.924-6.529-6.53-6.529c-3.606,0-6.531,2.922-6.531,6.529
	c0,3.608,2.925,6.53,6.531,6.53C470.702,700.473,473.626,697.55,473.626,693.943z" class="colorFFF svgShape"></path><path fill="#dfe2ed" d="M463.573,688.457c-0.654,1.017-1.044,2.221-1.044,3.523c0,3.605,2.922,6.529,6.53,6.529
	c1.3,0,2.503-0.39,3.52-1.044c-1.161,1.806-3.178,3.008-5.484,3.008c-3.606,0-6.531-2.922-6.531-6.53
	C460.565,691.635,461.768,689.619,463.573,688.457z" class="colorDFE2ED svgShape"></path><path fill="#cccccc" d="M831.657,818.146H579.52c-11.703,0-22.158,5.339-29.065,13.713c4.557-1.957,9.573-3.05,14.849-3.05H817.44
	c17.091,0,31.5,11.394,36.101,26.993h15.773l0,0C869.314,835.005,852.454,818.146,831.657,818.146z" class="colorCCC svgShape"></path><path fill="#b7b0ff" d="M956.577,422.159c-3.213,0-6.27,0.665-9.044,1.861c0.035-0.616,0.055-1.236,0.055-1.861
	c0-17.685-14.336-32.022-32.022-32.022c-6.436,0-12.427,1.9-17.447,5.168c-0.829-23.471-20.114-42.246-43.788-42.246
	c-24.201,0-43.819,19.619-43.819,43.819c0,0.481,0.011,0.96,0.026,1.438c-5.669-5.085-13.159-8.18-21.374-8.18
	c-17.685,0-32.022,14.337-32.022,32.022c0,1.278,0.077,2.537,0.223,3.776c-3.608-2.386-7.932-3.776-12.582-3.776
	c-12.617,0-22.846,10.229-22.846,22.846s10.229,22.846,22.846,22.846c6.066,0,11.579-2.365,15.669-6.222
	c5.232,10.566,16.122,17.832,28.711,17.832c8.023,0,15.357-2.951,20.976-7.827c5.088,3.405,11.205,5.392,17.787,5.392
	c8.757,0,16.691-3.516,22.471-9.211c5.781,5.695,13.715,9.211,22.471,9.211c7.563,0,14.512-2.623,19.991-7.008
	c5.8,5.832,13.83,9.443,22.705,9.443c11.809,0,22.123-6.393,27.674-15.906c3.753,2.703,8.358,4.296,13.336,4.296
	c12.617,0,22.846-10.228,22.846-22.846S969.194,422.159,956.577,422.159z" class="colorB7B0FF svgShape"></path><path fill="#ffffff" d="M856.303,416.14c0.786,6.217,1.229,15.113,1.987,23.41l-15.577,0.008c0.759-8.571,1.511-17.103,2.317-23.418
	h-9.009l14.646-29.179c0.014,0,0.028,0,0.028,0l14.646,29.179H856.303z" class="colorFFF svgShape"></path><rect width="71.339" height="2.98" x="815.011" y="447.87" fill="#ffffff" class="colorFFF svgShape"></rect><path fill="#b7b0ff" d="M964.69,554.474H736.671c-3.267,0-5.925-2.658-5.925-5.925c0-3.267,2.658-5.925,5.925-5.925H964.69
	c3.267,0,5.925,2.658,5.925,5.925C970.615,551.816,967.957,554.474,964.69,554.474z M736.671,543.94
	c-2.541,0-4.608,2.068-4.608,4.608c0,2.541,2.068,4.608,4.608,4.608H964.69c2.541,0,4.608-2.068,4.608-4.608
	c0-2.541-2.068-4.608-4.608-4.608H736.671z" class="colorB7B0FF svgShape"></path><path fill="#b7b0ff" d="M809.27,553.147h-73.633c-1.953,0-3.536-1.583-3.536-3.536v-2.125c0-1.953,1.583-3.536,3.536-3.536h73.633
	c1.953,0,3.536,1.583,3.536,3.536v2.125C812.806,551.564,811.223,553.147,809.27,553.147z" class="colorB7B0FF svgShape"></path><path fill="#3e32b2" d="M1006.824,611.227h-25.017c-0.727,0-1.317-0.589-1.317-1.317c0-0.727,0.59-1.317,1.317-1.317h23.7v-8.886
	c0-0.727,0.589-1.317,1.317-1.317c0.728,0,1.317,0.589,1.317,1.317v10.202C1008.141,610.637,1007.552,611.227,1006.824,611.227z
	 M955.202,611.227h-25.017c-0.727,0-1.317-0.589-1.317-1.317c0-0.727,0.59-1.317,1.317-1.317h25.017c0.727,0,1.317,0.59,1.317,1.317
	C956.518,610.637,955.929,611.227,955.202,611.227z M903.579,611.227h-25.017c-0.727,0-1.317-0.589-1.317-1.317
	c0-0.727,0.59-1.317,1.317-1.317h25.017c0.727,0,1.317,0.59,1.317,1.317C904.896,610.637,904.306,611.227,903.579,611.227z
	 M851.956,611.227h-25.017c-0.727,0-1.317-0.589-1.317-1.317c0-0.727,0.59-1.317,1.317-1.317h25.017c0.727,0,1.317,0.59,1.317,1.317
	C853.273,610.637,852.684,611.227,851.956,611.227z M800.334,611.227h-25.017c-0.727,0-1.317-0.589-1.317-1.317
	c0-0.727,0.59-1.317,1.317-1.317h25.017c0.727,0,1.317,0.59,1.317,1.317C801.65,610.637,801.061,611.227,800.334,611.227z
	 M748.711,611.227h-25.017c-0.727,0-1.317-0.589-1.317-1.317c0-0.727,0.59-1.317,1.317-1.317h25.017c0.727,0,1.317,0.59,1.317,1.317
	C750.028,610.637,749.438,611.227,748.711,611.227z M697.088,611.227h-2.551c-0.727,0-1.317-0.589-1.317-1.317v-22.466
	c0-0.727,0.59-1.317,1.317-1.317c0.727,0,1.317,0.59,1.317,1.317v21.149h1.234c0.727,0,1.317,0.59,1.317,1.317
	C698.405,610.637,697.816,611.227,697.088,611.227z M1006.824,574.419c-0.728,0-1.317-0.59-1.317-1.317v-25.017
	c0-0.727,0.589-1.317,1.317-1.317c0.728,0,1.317,0.59,1.317,1.317v25.017C1008.141,573.829,1007.552,574.419,1006.824,574.419z
	 M694.537,562.155c-0.727,0-1.317-0.589-1.317-1.317v-25.017c0-0.727,0.59-1.317,1.317-1.317c0.727,0,1.317,0.59,1.317,1.317v25.017
	C695.854,561.565,695.264,562.155,694.537,562.155z M1006.824,522.796c-0.728,0-1.317-0.59-1.317-1.317v-25.017
	c0-0.727,0.589-1.317,1.317-1.317c0.728,0,1.317,0.59,1.317,1.317v25.017C1008.141,522.206,1007.552,522.796,1006.824,522.796z
	 M694.537,510.532c-0.727,0-1.317-0.59-1.317-1.317v-25.017c0-0.727,0.59-1.317,1.317-1.317c0.727,0,1.317,0.59,1.317,1.317v25.017
	C695.854,509.943,695.264,510.532,694.537,510.532z M1006.824,471.173c-0.728,0-1.317-0.59-1.317-1.317V444.84
	c0-0.727,0.589-1.317,1.317-1.317c0.728,0,1.317,0.59,1.317,1.317v25.017C1008.141,470.584,1007.552,471.173,1006.824,471.173z
	 M694.537,458.91c-0.727,0-1.317-0.59-1.317-1.317v-25.017c0-0.727,0.59-1.317,1.317-1.317c0.727,0,1.317,0.59,1.317,1.317v25.017
	C695.854,458.32,695.264,458.91,694.537,458.91z M1006.824,419.551c-0.728,0-1.317-0.59-1.317-1.317v-25.017
	c0-0.727,0.589-1.317,1.317-1.317c0.728,0,1.317,0.59,1.317,1.317v25.017C1008.141,418.961,1007.552,419.551,1006.824,419.551z
	 M694.537,407.286c-0.727,0-1.317-0.59-1.317-1.317v-25.017c0-0.727,0.59-1.317,1.317-1.317c0.727,0,1.317,0.589,1.317,1.317v25.017
	C695.854,406.697,695.264,407.286,694.537,407.286z M1006.824,367.928c-0.728,0-1.317-0.59-1.317-1.317v-25.017
	c0-0.727,0.589-1.317,1.317-1.317c0.728,0,1.317,0.59,1.317,1.317v25.017C1008.141,367.338,1007.552,367.928,1006.824,367.928z
	 M694.537,355.664c-0.727,0-1.317-0.589-1.317-1.317V329.33c0-0.727,0.59-1.317,1.317-1.317c0.727,0,1.317,0.59,1.317,1.317v25.017
	C695.854,355.074,695.264,355.664,694.537,355.664z M1006.824,316.305c-0.728,0-1.317-0.59-1.317-1.317V298.94h-6.335
	c-0.728,0-1.317-0.59-1.317-1.317c0-0.727,0.589-1.317,1.317-1.317h7.652c0.728,0,1.317,0.59,1.317,1.317v17.365
	C1008.141,315.716,1007.552,316.305,1006.824,316.305z M694.537,304.041c-0.727,0-1.317-0.59-1.317-1.317v-5.101
	c0-0.727,0.59-1.317,1.317-1.317h19.916c0.727,0,1.317,0.59,1.317,1.317c0,0.727-0.59,1.317-1.317,1.317h-18.599v3.784
	C695.854,303.452,695.264,304.041,694.537,304.041z M972.567,298.94H947.55c-0.727,0-1.317-0.59-1.317-1.317
	c0-0.727,0.589-1.317,1.317-1.317h25.017c0.727,0,1.317,0.59,1.317,1.317C973.883,298.351,973.294,298.94,972.567,298.94z
	 M920.944,298.94h-25.017c-0.727,0-1.317-0.59-1.317-1.317c0-0.727,0.59-1.317,1.317-1.317h25.017c0.727,0,1.317,0.59,1.317,1.317
	C922.261,298.351,921.671,298.94,920.944,298.94z M869.321,298.94h-25.017c-0.727,0-1.317-0.59-1.317-1.317
	c0-0.727,0.589-1.317,1.317-1.317h25.017c0.727,0,1.317,0.59,1.317,1.317C870.638,298.351,870.049,298.94,869.321,298.94z
	 M817.699,298.94h-25.017c-0.727,0-1.317-0.59-1.317-1.317c0-0.727,0.59-1.317,1.317-1.317h25.017c0.727,0,1.317,0.59,1.317,1.317
	C819.015,298.351,818.426,298.94,817.699,298.94z M766.076,298.94h-25.017c-0.727,0-1.317-0.59-1.317-1.317
	c0-0.727,0.589-1.317,1.317-1.317h25.017c0.727,0,1.317,0.59,1.317,1.317C767.393,298.351,766.803,298.94,766.076,298.94z" class="color3E32B2 svgShape"></path><path fill="#d3d2ff" d="M498.65,385.937H395.039c-3.228,0-5.855-3.02-5.855-6.732v-68.982c0-3.712,2.626-6.732,5.855-6.732H498.65
	c3.228,0,5.855,3.02,5.855,6.732v68.982C504.505,382.917,501.879,385.937,498.65,385.937z M395.039,306.559
	c-1.758,0-3.187,1.644-3.187,3.665v68.982c0,2.021,1.429,3.665,3.187,3.665H498.65c1.758,0,3.187-1.644,3.187-3.665v-68.982
	c0-2.021-1.43-3.665-3.187-3.665H395.039z" class="colorD3D2FF svgShape"></path><path fill="#d3d2ff" d="M405.465,368.986l19.627-31.031c1.048-1.657,3.213-1.595,4.188,0.12l16.719,29.402
	c1.044,1.835,3.407,1.747,4.345-0.161l3.766-7.662c0.974-1.982,3.457-1.982,4.431,0l3.198,6.507
	c1.053,2.143,3.797,1.924,4.583-0.366l8.79-25.62c0.87-2.535,4.016-2.447,4.778,0.134l8.689,29.46
	c0.56,1.898-0.668,3.866-2.41,3.866h-78.645C405.443,373.634,404.242,370.921,405.465,368.986z" class="colorD3D2FF svgShape"></path><ellipse cx="451.185" cy="327.647" fill="#d3d2ff" rx="7.421" ry="8.533" class="colorD3D2FF svgShape"></ellipse><path fill="#d3d2ff" d="M428.041 323.986c-.138 0-.273.016-.403.045.01-.115.016-.232.016-.351 0-1.878-1.324-3.4-2.957-3.4-1.393 0-2.561 1.108-2.874 2.6-.312-.333-.73-.537-1.19-.537-.642 0-1.203.398-1.507.99-.293-.145-.617-.226-.957-.226-1.336 0-2.42 1.246-2.42 2.782 0 1.537 1.083 2.782 2.42 2.782.567 0 1.088-.224 1.501-.6.794.763 2.115 1.262 3.61 1.262 1.401 0 2.649-.438 3.454-1.121.357.335.812.535 1.308.535 1.144 0 2.071-1.066 2.071-2.381C430.112 325.052 429.185 323.986 428.041 323.986zM479.579 323.986c-.138 0-.273.016-.403.045.01-.115.016-.232.016-.351 0-1.878-1.324-3.4-2.957-3.4-1.393 0-2.561 1.108-2.874 2.6-.312-.333-.73-.537-1.19-.537-.642 0-1.203.398-1.507.99-.293-.145-.617-.226-.957-.226-1.336 0-2.42 1.246-2.42 2.782 0 1.537 1.083 2.782 2.42 2.782.567 0 1.088-.224 1.501-.6.794.763 2.115 1.262 3.61 1.262 1.401 0 2.648-.438 3.454-1.121.357.335.812.535 1.308.535 1.144 0 2.071-1.066 2.071-2.381C481.65 325.052 480.722 323.986 479.579 323.986zM574.244 494.99H470.632c-3.228 0-5.855-3.02-5.855-6.732v-68.982c0-3.712 2.626-6.732 5.855-6.732h103.611c3.228 0 5.855 3.02 5.855 6.732v68.982C580.098 491.97 577.472 494.99 574.244 494.99zM470.632 415.611c-1.758 0-3.187 1.644-3.187 3.665v68.982c0 2.021 1.429 3.665 3.187 3.665h103.611c1.758 0 3.187-1.644 3.187-3.665v-68.982c0-2.021-1.43-3.665-3.187-3.665H470.632z" class="colorD3D2FF svgShape"></path><path fill="#d3d2ff" d="M481.058,478.039l19.626-31.031c1.048-1.657,3.213-1.595,4.188,0.12l16.718,29.402
	c1.044,1.835,3.407,1.747,4.346-0.161l3.766-7.662c0.974-1.982,3.457-1.982,4.431,0l3.198,6.507
	c1.053,2.143,3.797,1.924,4.583-0.366l8.79-25.62c0.87-2.535,4.016-2.447,4.778,0.134l8.689,29.46
	c0.56,1.898-0.667,3.866-2.41,3.866h-78.645C481.036,482.686,479.835,479.973,481.058,478.039z" class="colorD3D2FF svgShape"></path><ellipse cx="526.778" cy="436.7" fill="#d3d2ff" rx="7.421" ry="8.533" class="colorD3D2FF svgShape"></ellipse><path fill="#d3d2ff" d="M503.635 433.039c-.138 0-.273.015-.403.045.01-.115.016-.232.016-.351 0-1.878-1.324-3.4-2.957-3.4-1.393 0-2.561 1.108-2.874 2.6-.312-.333-.73-.537-1.19-.537-.642 0-1.203.398-1.507.99-.293-.145-.617-.226-.957-.226-1.336 0-2.42 1.246-2.42 2.782 0 1.537 1.083 2.782 2.42 2.782.567 0 1.088-.224 1.501-.6.794.763 2.115 1.262 3.61 1.262 1.401 0 2.649-.438 3.454-1.121.357.335.812.535 1.308.535 1.144 0 2.071-1.066 2.071-2.381C505.705 434.105 504.778 433.039 503.635 433.039zM555.172 433.039c-.138 0-.273.015-.403.045.01-.115.016-.232.016-.351 0-1.878-1.324-3.4-2.957-3.4-1.393 0-2.561 1.108-2.874 2.6-.312-.333-.73-.537-1.19-.537-.642 0-1.203.398-1.508.99-.293-.145-.617-.226-.957-.226-1.336 0-2.42 1.246-2.42 2.782 0 1.537 1.083 2.782 2.42 2.782.567 0 1.088-.224 1.501-.6.794.763 2.115 1.262 3.61 1.262 1.401 0 2.648-.438 3.454-1.121.357.335.812.535 1.308.535 1.144 0 2.071-1.066 2.071-2.381C557.243 434.105 556.316 433.039 555.172 433.039zM498.65 604.042H395.039c-3.228 0-5.855-3.02-5.855-6.732v-68.982c0-3.712 2.626-6.732 5.855-6.732H498.65c3.228 0 5.855 3.02 5.855 6.732v68.982C504.505 601.022 501.879 604.042 498.65 604.042zM395.039 524.664c-1.758 0-3.187 1.644-3.187 3.665v68.982c0 2.021 1.429 3.665 3.187 3.665H498.65c1.758 0 3.187-1.644 3.187-3.665v-68.982c0-2.021-1.43-3.665-3.187-3.665H395.039z" class="colorD3D2FF svgShape"></path><path fill="#d3d2ff" d="M405.465,587.091l19.627-31.031c1.048-1.657,3.213-1.595,4.188,0.12l16.719,29.402
	c1.044,1.835,3.407,1.747,4.345-0.161l3.766-7.662c0.974-1.982,3.457-1.982,4.431,0l3.198,6.507
	c1.053,2.143,3.797,1.924,4.583-0.366l8.79-25.62c0.87-2.535,4.016-2.447,4.778,0.134l8.689,29.46
	c0.56,1.898-0.668,3.866-2.41,3.866h-78.645C405.443,591.739,404.242,589.026,405.465,587.091z" class="colorD3D2FF svgShape"></path><ellipse cx="451.185" cy="545.752" fill="#d3d2ff" rx="7.421" ry="8.533" class="colorD3D2FF svgShape"></ellipse><path fill="#d3d2ff" d="M428.041 542.091c-.138 0-.273.016-.403.045.01-.115.016-.232.016-.351 0-1.878-1.324-3.4-2.957-3.4-1.393 0-2.561 1.108-2.874 2.6-.312-.333-.73-.537-1.19-.537-.642 0-1.203.398-1.507.99-.293-.145-.617-.226-.957-.226-1.336 0-2.42 1.246-2.42 2.782 0 1.537 1.083 2.782 2.42 2.782.567 0 1.088-.224 1.501-.6.794.763 2.115 1.262 3.61 1.262 1.401 0 2.649-.438 3.454-1.121.357.335.812.535 1.308.535 1.144 0 2.071-1.066 2.071-2.381C430.112 543.157 429.185 542.091 428.041 542.091zM479.579 542.091c-.138 0-.273.016-.403.045.01-.115.016-.232.016-.351 0-1.878-1.324-3.4-2.957-3.4-1.393 0-2.561 1.108-2.874 2.6-.312-.333-.73-.537-1.19-.537-.642 0-1.203.398-1.507.99-.293-.145-.617-.226-.957-.226-1.336 0-2.42 1.246-2.42 2.782 0 1.537 1.083 2.782 2.42 2.782.567 0 1.088-.224 1.501-.6.794.763 2.115 1.262 3.61 1.262 1.401 0 2.648-.438 3.454-1.121.357.335.812.535 1.308.535 1.144 0 2.071-1.066 2.071-2.381C481.65 543.157 480.722 542.091 479.579 542.091zM650.456 385.937H546.845c-3.228 0-5.855-3.02-5.855-6.732v-68.982c0-3.712 2.626-6.732 5.855-6.732h103.611c3.228 0 5.855 3.02 5.855 6.732v68.982C656.311 382.917 653.685 385.937 650.456 385.937zM546.845 306.559c-1.758 0-3.187 1.644-3.187 3.665v68.982c0 2.021 1.429 3.665 3.187 3.665h103.611c1.758 0 3.187-1.644 3.187-3.665v-68.982c0-2.021-1.429-3.665-3.187-3.665H546.845z" class="colorD3D2FF svgShape"></path><path fill="#d3d2ff" d="M557.271,368.986l19.626-31.031c1.048-1.657,3.213-1.595,4.188,0.12l16.718,29.402
	c1.044,1.835,3.407,1.747,4.346-0.161l3.766-7.662c0.974-1.982,3.457-1.982,4.431,0l3.198,6.507
	c1.053,2.143,3.797,1.924,4.583-0.366l8.79-25.62c0.87-2.535,4.016-2.447,4.778,0.134l8.689,29.46
	c0.56,1.898-0.667,3.866-2.41,3.866h-78.645C557.249,373.634,556.048,370.921,557.271,368.986z" class="colorD3D2FF svgShape"></path><ellipse cx="602.991" cy="327.647" fill="#d3d2ff" rx="7.421" ry="8.533" class="colorD3D2FF svgShape"></ellipse><path fill="#d3d2ff" d="M579.847 323.986c-.138 0-.273.016-.403.045.01-.115.016-.232.016-.351 0-1.878-1.324-3.4-2.957-3.4-1.393 0-2.561 1.108-2.874 2.6-.312-.333-.73-.537-1.19-.537-.642 0-1.203.398-1.507.99-.293-.145-.617-.226-.957-.226-1.336 0-2.42 1.246-2.42 2.782 0 1.537 1.083 2.782 2.42 2.782.567 0 1.088-.224 1.501-.6.794.763 2.115 1.262 3.61 1.262 1.401 0 2.649-.438 3.454-1.121.357.335.812.535 1.308.535 1.144 0 2.071-1.066 2.071-2.381C581.918 325.052 580.991 323.986 579.847 323.986zM631.385 323.986c-.138 0-.273.016-.403.045.01-.115.016-.232.016-.351 0-1.878-1.324-3.4-2.957-3.4-1.393 0-2.561 1.108-2.874 2.6-.312-.333-.73-.537-1.19-.537-.642 0-1.203.398-1.508.99-.293-.145-.617-.226-.956-.226-1.336 0-2.42 1.246-2.42 2.782 0 1.537 1.083 2.782 2.42 2.782.567 0 1.088-.224 1.501-.6.794.763 2.115 1.262 3.61 1.262 1.401 0 2.648-.438 3.454-1.121.357.335.812.535 1.308.535 1.144 0 2.071-1.066 2.071-2.381C633.456 325.052 632.528 323.986 631.385 323.986zM650.456 604.042H546.845c-3.228 0-5.855-3.02-5.855-6.732v-68.982c0-3.712 2.626-6.732 5.855-6.732h103.611c3.228 0 5.855 3.02 5.855 6.732v68.982C656.311 601.022 653.685 604.042 650.456 604.042zM546.845 524.664c-1.758 0-3.187 1.644-3.187 3.665v68.982c0 2.021 1.429 3.665 3.187 3.665h103.611c1.758 0 3.187-1.644 3.187-3.665v-68.982c0-2.021-1.429-3.665-3.187-3.665H546.845z" class="colorD3D2FF svgShape"></path><path fill="#d3d2ff" d="M557.271,587.091l19.626-31.031c1.048-1.657,3.213-1.595,4.188,0.12l16.718,29.402
	c1.044,1.835,3.407,1.747,4.346-0.161l3.766-7.662c0.974-1.982,3.457-1.982,4.431,0l3.198,6.507
	c1.053,2.143,3.797,1.924,4.583-0.366l8.79-25.62c0.87-2.535,4.016-2.447,4.778,0.134l8.689,29.46
	c0.56,1.898-0.667,3.866-2.41,3.866h-78.645C557.249,591.739,556.048,589.026,557.271,587.091z" class="colorD3D2FF svgShape"></path><ellipse cx="602.991" cy="545.752" fill="#d3d2ff" rx="7.421" ry="8.533" class="colorD3D2FF svgShape"></ellipse><path fill="#d3d2ff" d="M579.847 542.091c-.138 0-.273.016-.403.045.01-.115.016-.232.016-.351 0-1.878-1.324-3.4-2.957-3.4-1.393 0-2.561 1.108-2.874 2.6-.312-.333-.73-.537-1.19-.537-.642 0-1.203.398-1.507.99-.293-.145-.617-.226-.957-.226-1.336 0-2.42 1.246-2.42 2.782 0 1.537 1.083 2.782 2.42 2.782.567 0 1.088-.224 1.501-.6.794.763 2.115 1.262 3.61 1.262 1.401 0 2.649-.438 3.454-1.121.357.335.812.535 1.308.535 1.144 0 2.071-1.066 2.071-2.381C581.918 543.157 580.991 542.091 579.847 542.091zM631.385 542.091c-.138 0-.273.016-.403.045.01-.115.016-.232.016-.351 0-1.878-1.324-3.4-2.957-3.4-1.393 0-2.561 1.108-2.874 2.6-.312-.333-.73-.537-1.19-.537-.642 0-1.203.398-1.508.99-.293-.145-.617-.226-.956-.226-1.336 0-2.42 1.246-2.42 2.782 0 1.537 1.083 2.782 2.42 2.782.567 0 1.088-.224 1.501-.6.794.763 2.115 1.262 3.61 1.262 1.401 0 2.648-.438 3.454-1.121.357.335.812.535 1.308.535 1.144 0 2.071-1.066 2.071-2.381C633.456 543.157 632.528 542.091 631.385 542.091z" class="colorD3D2FF svgShape"></path><path fill="#49b5ba" d="M169.24 855.802h-14.404c-9.037-3.988-17.944-9.429-25.509-15.802-6.373-5.348-19.025-23.236-9.466-32.572 3.689-3.596 10.156-2.739 14.963-.913 7.621 2.888 12.336 10.342 16.529 17.329 1.174 1.956 2.348 4.006 3.522 6.094C159.663 838.473 164.452 847.79 169.24 855.802zM223.893 757.137c-1.845 7.305-5.422 14.031-8.46 20.926-3.055 6.95-5.888 14.274-8.329 21.783-5.925 18.187-9.559 37.566-8.627 55.957h-18.094c-4.211-13.286-1.192-26.59-1.416-40.528-.093-5.553.149-11.106.466-16.659.093-1.789.205-3.596.317-5.385 1.23-19.957 2.832-41.013 14.18-57.466 2.218-3.205 4.901-6.28 8.479-7.826 6.894-3 15.447.895 19.379 7.304C225.719 741.671 225.756 749.851 223.893 757.137z" class="color49B5BA svgShape"></path><path fill="#278898" d="M261.962,783.056c-1.211,2.553-3.056,4.752-4.938,6.839c-8.683,9.689-18.615,18.224-26.87,28.267
	c-1.621,1.994-3.187,4.155-4.659,6.447c-3.95,6.186-7.193,13.341-9.019,20.497c-0.522,1.975-0.913,3.95-1.193,5.907
	c-0.224,1.621-0.372,3.223-0.429,4.789h-17.888c-0.689-10.957,0.727-23.534,2.404-31.118c1.975-8.888,4.435-17.18,7.733-24.839
	c5.833-13.621,14.33-25.23,27.447-34.64c2.926-2.087,6.094-3.969,9.597-4.696c5.814-1.211,12.204,1.118,15.876,5.758
	C263.695,770.926,264.477,777.69,261.962,783.056z" class="color278898 svgShape"></path><path fill="#49b5ba" d="M261.291,835.939c-7.845,3.988-16.696,5.46-24.97,8.422c-8.273,2.982-17.422,3.224-20.534,11.441h-7.677
	c1.826-11.87,8.329-23.05,17.385-31.193c7.882-7.1,17.702-11.907,28.081-12.895c3.559-0.335,7.23-0.279,10.584,0.969
	c3.335,1.248,6.316,3.876,7.285,7.323C273.273,826.585,267.366,832.846,261.291,835.939z" class="color49B5BA svgShape"></path><path fill="#278898" d="M180.383 855.802h-13.826c-4.043-8.385-8.087-17.031-11.683-25.863-7.137-17.553-12.503-35.851-12.41-54.318.019-4.174.335-8.441 2.031-12.261 1.677-3.82 4.919-7.155 9.018-7.975 4.435-.894 9.075 1.323 12.149 4.64 3.075 3.336 4.883 7.621 6.448 11.888 3.168 8.609 5.609 17.572 7.323 26.702C182.992 817.473 183.365 837.038 180.383 855.802zM159.886 855.802h-2.031c-.205-.596-.447-1.211-.708-1.808-3.187-7.565-7.658-14.795-12.858-21.13-5.105-6.224-11.143-11.627-18.149-15.615-1.043-.596-.111-2.199.932-1.603 4.043 2.292 7.826 5.068 11.255 8.199 6.186 5.627 11.31 12.373 15.503 19.565C156.104 847.287 158.34 851.461 159.886 855.802zM205.222 754.621c-3.186 9.075-5.925 18.298-8.18 27.634-4.006 16.565-6.522 33.485-7.528 50.497-.466 7.677-.615 15.373-.429 23.05h-1.882c0-.317-.018-.634-.018-.95-.298-17.068.932-34.137 3.633-51 2.702-16.901 6.932-33.559 12.597-49.715C203.825 753 205.613 753.484 205.222 754.621zM254.993 822.802c-5.366.652-10.658 2.199-15.559 4.509-8.795 4.156-16.342 10.715-21.522 18.969-.95 1.528-1.826 3.112-2.628 4.733-.764 1.565-1.435 3.168-2.031 4.789h-1.994c1.342-3.746 3.093-7.342 5.217-10.696 3.074-4.845 6.913-9.168 11.404-12.764 7.807-6.223 17.218-10.192 27.112-11.403C256.185 820.79 256.167 822.653 254.993 822.802z" class="color278898 svgShape"></path><path fill="#49b5ba" d="M172.539 855.802h-1.864c-.558-26.832-5.627-53.516-14.944-78.69-.41-1.137 1.398-1.621 1.808-.503 2.702 7.341 5.068 14.795 7.062 22.342C169.483 817.492 172.147 836.628 172.539 855.802zM241.8 782.329c-7.379 2.627-12.242 9.503-16.416 15.764-7.919 11.832-13.956 24.895-17.907 38.59-1.807 6.261-3.187 12.671-4.118 19.118h-1.863c.056-.503.13-.988.205-1.49 2.18-14.497 6.652-28.64 13.174-41.777 3.279-6.615 7.08-12.969 11.385-18.969 3.913-5.46 8.553-10.733 15.056-13.025C242.452 780.13 242.937 781.938 241.8 782.329zM978.123 855.802h-11.102c-6.966-3.074-13.832-7.268-19.663-12.18-4.912-4.122-14.665-17.911-7.297-25.107 2.844-2.772 7.828-2.111 11.533-.704 5.875 2.226 9.509 7.972 12.74 13.357.905 1.508 1.81 3.088 2.715 4.697C970.741 842.445 974.432 849.626 978.123 855.802zM1020.25 779.75c-1.422 5.63-4.18 10.815-6.521 16.13-2.355 5.357-4.539 11.002-6.42 16.79-4.567 14.018-7.368 28.956-6.65 43.133h-13.947c-3.246-10.241-.919-20.496-1.091-31.24-.072-4.28.115-8.56.359-12.841.072-1.379.158-2.772.244-4.151.948-15.383 2.183-31.613 10.93-44.296 1.71-2.47 3.778-4.841 6.535-6.033 5.314-2.312 11.907.69 14.938 5.63C1021.658 767.829 1021.686 774.134 1020.25 779.75z" class="color49B5BA svgShape"></path><path fill="#278898" d="M1049.594,799.729c-0.934,1.968-2.356,3.663-3.806,5.271c-6.693,7.469-14.349,14.047-20.712,21.789
	c-1.25,1.537-2.456,3.203-3.591,4.97c-3.045,4.768-5.544,10.284-6.952,15.799c-0.402,1.522-0.704,3.045-0.919,4.553
	c-0.172,1.249-0.287,2.485-0.331,3.691h-13.788c-0.531-8.445,0.56-18.14,1.853-23.986c1.522-6.851,3.418-13.242,5.961-19.146
	c4.496-10.499,11.046-19.447,21.157-26.701c2.255-1.609,4.697-3.059,7.397-3.62c4.481-0.934,9.407,0.862,12.237,4.438
	C1050.93,790.379,1051.533,795.592,1049.594,799.729z" class="color278898 svgShape"></path><path fill="#49b5ba" d="M1049.077,840.491c-6.047,3.074-12.869,4.208-19.247,6.492c-6.377,2.298-13.429,2.485-15.828,8.819h-5.917
	c1.408-9.149,6.42-17.767,13.401-24.044c6.076-5.472,13.645-9.178,21.645-9.939c2.743-0.258,5.573-0.215,8.158,0.747
	c2.571,0.962,4.869,2.988,5.616,5.645C1058.313,833.281,1053.759,838.107,1049.077,840.491z" class="color49B5BA svgShape"></path><path fill="#278898" d="M986.712 855.802h-10.657c-3.117-6.463-6.233-13.128-9.006-19.936-5.501-13.53-9.638-27.635-9.566-41.868.015-3.217.259-6.506 1.566-9.451 1.293-2.944 3.792-5.515 6.951-6.148 3.419-.689 6.995 1.02 9.365 3.577 2.37 2.571 3.764 5.874 4.97 9.164 2.442 6.635 4.323 13.545 5.645 20.582C988.723 826.258 989.01 841.339 986.712 855.802zM970.913 855.802h-1.565c-.158-.46-.345-.934-.546-1.393-2.456-5.831-5.903-11.404-9.911-16.288-3.935-4.797-8.589-8.962-13.99-12.036-.804-.46-.086-1.695.718-1.235 3.117 1.767 6.032 3.907 8.675 6.32 4.768 4.338 8.718 9.537 11.95 15.081C967.998 849.238 969.721 852.456 970.913 855.802zM1005.858 777.811c-2.456 6.995-4.567 14.104-6.305 21.3-3.088 12.769-5.027 25.81-5.803 38.924-.359 5.917-.474 11.85-.33 17.767h-1.451c0-.244-.014-.489-.014-.732-.23-13.157.718-26.313 2.801-39.312 2.083-13.027 5.343-25.868 9.709-38.321C1004.781 776.561 1006.16 776.935 1005.858 777.811zM1044.222 830.365c-4.136.503-8.216 1.695-11.993 3.476-6.779 3.203-12.596 8.259-16.59 14.622-.732 1.178-1.408 2.399-2.025 3.648-.589 1.206-1.106 2.442-1.565 3.691h-1.537c1.034-2.887 2.384-5.659 4.022-8.244 2.37-3.734 5.329-7.067 8.79-9.839 6.018-4.797 13.272-7.856 20.898-8.79C1045.141 828.814 1045.127 830.25 1044.222 830.365z" class="color278898 svgShape"></path><path fill="#49b5ba" d="M980.666 855.802h-1.437c-.43-20.683-4.337-41.251-11.519-60.656-.316-.876 1.077-1.249 1.393-.387 2.083 5.659 3.907 11.404 5.444 17.221C978.31 826.272 980.364 841.023 980.666 855.802zM1034.053 799.169c-5.688 2.025-9.437 7.325-12.654 12.151-6.104 9.121-10.758 19.189-13.803 29.746-1.393 4.826-2.456 9.767-3.174 14.737h-1.436c.043-.388.101-.761.158-1.149 1.681-11.175 5.128-22.076 10.155-32.202 2.527-5.099 5.458-9.996 8.776-14.622 3.016-4.208 6.593-8.273 11.605-10.04C1034.556 797.474 1034.929 798.867 1034.053 799.169z" class="color49B5BA svgShape"></path><path fill="#3e32b2" d="M1303.206,864.727H52.975c-2.695,0-4.88-2.185-4.88-4.88l0,0c0-2.695,2.185-4.879,4.88-4.879h1250.231
	c2.695,0,4.88,2.185,4.88,4.879l0,0C1308.085,862.542,1305.901,864.727,1303.206,864.727z" class="color3E32B2 svgShape"></path><path fill="#f1cccd" d="M1128.087,572.388c0,0-22.393-26.308-26.027-35.557c-4.383-11.153-1.488-39.617-1.488-39.617
	c-5.798-5.241-9.542-14.891-3.611-19.913c4.691-3.973,5.388,7.633,8.36,11.446c0,0,1.986-12.238,3.337-8.205
	c1.542,4.605,0.068,15.813,0.068,15.813l9.009,32.931l27.167,30.957L1128.087,572.388z" class="colorF1CCCD svgShape"></path><path fill="#ffffff" d="M1100.131,491.902l-91.762-22.557c-1.69-0.415-2.723-2.122-2.308-3.812l15.302-62.248
	c0.415-1.69,2.122-2.723,3.812-2.308l91.762,22.557c1.69,0.415,2.723,2.122,2.308,3.812l-15.302,62.248
	C1103.527,491.284,1101.821,492.317,1100.131,491.902z" class="colorFFF svgShape"></path><path fill="#d3d2ff" d="M1099.141,493.614l-90.554-22.26c-2.821-0.694-4.468-3.897-3.67-7.141l14.82-60.288
	c0.798-3.244,3.742-5.32,6.563-4.626l90.554,22.26c2.821,0.694,4.468,3.897,3.671,7.142l-14.82,60.288
	C1104.907,492.232,1101.962,494.307,1099.141,493.614z M1025.641,401.978c-1.536-0.378-3.138,0.752-3.573,2.518l-14.82,60.288
	c-0.434,1.766,0.462,3.51,1.998,3.888l90.554,22.26c1.536,0.378,3.139-0.752,3.573-2.518l14.82-60.288
	c0.434-1.767-0.462-3.51-1.998-3.888L1025.641,401.978z" class="colorD3D2FF svgShape"></path><path fill="#d3d2ff" d="M1021.341,458.779l23.82-22.904c1.272-1.223,3.151-0.703,3.635,1.004l8.295,29.288
	c0.518,1.828,2.602,2.259,3.833,0.793l4.938-5.887c1.277-1.523,3.447-0.99,3.873,0.952l1.397,6.374
	c0.46,2.099,2.905,2.497,4.084,0.665l13.186-20.503c1.305-2.029,4.036-1.276,4.147,1.143l1.264,27.614
	c0.081,1.779-1.414,3.236-2.937,2.861l-68.734-16.896C1020.324,462.836,1019.856,460.206,1021.341,458.779z" class="colorD3D2FF svgShape"></path><ellipse cx="1070.181" cy="432.472" fill="#d3d2ff" rx="7.68" ry="6.679" transform="rotate(-76.19 1070.167 432.47)" class="colorD3D2FF svgShape"></ellipse><path fill="#d3d2ff" d="M1050.74 424.3c-.121-.03-.242-.045-.362-.047.034-.099.064-.2.089-.303.404-1.641-.427-3.256-1.854-3.607-1.218-.299-2.477.418-3.071 1.655-.201-.358-.523-.626-.925-.725-.561-.138-1.137.089-1.53.542-.225-.19-.49-.33-.787-.403-1.168-.287-2.382.569-2.712 1.912-.33 1.343.349 2.664 1.517 2.952.496.122.999.038 1.441-.202.53.837 1.577 1.557 2.884 1.879 1.224.301 2.409.186 3.259-.238.24.369.595.642 1.028.749 1 .246 2.039-.487 2.321-1.636C1052.321 425.677 1051.74 424.546 1050.74 424.3zM1095.783 435.373c-.121-.03-.242-.045-.362-.047.034-.099.064-.2.089-.303.403-1.641-.426-3.256-1.854-3.607-1.218-.299-2.477.418-3.071 1.655-.201-.358-.523-.626-.925-.725-.561-.138-1.137.089-1.53.542-.225-.19-.49-.33-.787-.403-1.168-.287-2.382.569-2.712 1.912-.33 1.343.349 2.664 1.517 2.952.495.122.999.038 1.441-.202.53.837 1.577 1.557 2.884 1.879 1.224.301 2.409.186 3.259-.238.24.369.595.642 1.028.749 1 .246 2.039-.487 2.322-1.636C1097.364 436.749 1096.782 435.618 1095.783 435.373z" class="colorD3D2FF svgShape"></path><path fill="#f1cccd" d="M1204.163,819.935l0.776-17.012c-4.098-9.375-52.637-18.582-57.804-31.851c0,0-7.896-1.269-13.659-10.741
	c-3.422-5.585-3.027-6.789-3.16-13.324c-0.729-39.102,2.605-73.611,12.872-100.282h31.329c24.22,55.086-1.248,62.734-15.71,105.038
	c6.119,6.462,19.371,15.087,27.753,21.793c6.375,5.1,14.529,11.735,28.498,19.185c2.829,3.278-0.011,15.435,0.559,17.695
	C1211.893,818.539,1204.163,819.935,1204.163,819.935z" class="colorF1CCCD svgShape"></path><path fill="#140c68" d="M1214.606 792.411c5.387 1.851 5.966 5.623 7.993 8.483.626.884.642 2.057-.028 2.908l-1.32 1.676c-.208.604-.739 1.039-1.372 1.122l-.076.01c-.761.1-1.366.677-1.5 1.432-1.395 7.868-7.32 20.975-11.652 21.054-3.841.071-2.451-11.593-2.451-11.593C1210.718 817.447 1217.501 804.8 1214.606 792.411zM1166.128 752.35c1.678 7.394 15.87 13.103 17.639 17.853.844 2.266-6.834 18.727-10.431 18.068-22.352-4.098-42.324-24.132-43.021-41.263-.551-30.182 1.304-57.649 6.934-80.875 5.498-6.911 14.461-18.061 14.461-18.061l7.728-1.346c2.108.512 15.078-1.416 15.941 1.589C1203.476 700.656 1173.948 713.828 1166.128 752.35z" class="color140C68 svgShape"></path><path fill="#f1cccd" d="M1155.905,840.908c2.462,5.393-0.011,9.397-3.154,13.213c-10.906,1.092-20.732,1.154-25.509-3.597
	l17.72-8.36c-0.332-16.184-2.724-31.393-7.89-47.069c-2.782-8.478-6.028-16.956-9.494-25.501c-1.833-4.482-3.025-9.229-3.444-14.064
	c-3.268-36.651-1.811-73.964,3.886-108.804h31.418c17.111,37.534-13.932,65.022-11.128,117.194
	c3.51,10.466,6.766,20.468,8.355,30.778C1159.028,810.13,1158.466,825.805,1155.905,840.908z" class="colorF1CCCD svgShape"></path><path fill="#191777" d="M1153.605,754.823c3.249,9.685,4.186,26.958,4.943,44.794c0.1,2.349-1.774,4.309-4.125,4.309h-13.12
	c-1.812,0-3.314-1.334-3.586-3.125c-1.487-9.769-7.021-23.525-10.138-31.207c-1.833-4.482-3.025-9.229-3.444-14.064
	c-3.268-36.651-1.811-73.964,3.886-108.804l38.213,0.002C1192.384,700.017,1167.447,701.673,1153.605,754.823z" class="color191777 svgShape"></path><path fill="#f1cccd" d="M1113.782,592.958c0,0-41.842-22.865-47.839-35.525c-7.846-16.563-10.765-62.259-10.765-62.259
	c-9.292-3.253-15.304-10.99-14.363-16.27c1.105-6.202,7.364,4.088,19.5,4.653c0,0,5.291-12.77,5.542-3.869
	c0.248,8.801-2.01,14.247-2.01,14.247c7.761,14.695,11.966,31.009,16.659,49.155c11.844,7.192,23.337,14.542,34.539,22.023
	L1113.782,592.958z" class="colorF1CCCD svgShape"></path><path fill="#3e3279" d="M1174.526,646.727c-11.71-40.645-5.075-60.113-26.673-82.218c-4.694,5.46-11.867,5.831-31.754,0.427
	l-4.347,27.533c9.276,14.22,20.973,22.101,16.265,54.259H1174.526z" class="color3E3279 svgShape"></path><path fill="#ff7171" d="M1176.063,650.081c-18.635,2.76-33.958-3.732-45.836-2.451c-1.258,0.132-2.473,0.353-3.665,0.685
	c-2.473,0.662-5.034-1.236-4.592-3.753c3.974-22.234,1.082-33.163-4.217-40.338l-0.044-0.044
	c-3.555-4.813-8.235-7.949-12.629-11.702l9.803-30.005c25.457,11.789,26.583-2.032,31.285-7.507
	c9.163,9.383,14.55,20.489,18.59,33.273c3.754,11.878,6.359,25.191,9.781,39.94c1.324,5.608,2.76,11.415,4.416,17.443
	C1179.507,647.674,1178.161,649.771,1176.063,650.081z" class="colorFF7171 svgShape"></path><path fill="#f1cccd" d="M1141.094,508.511c-5.162,3.804-18.675,15.142-16.03,24.182c2.644,9.039,18.623,11.14,18.623,11.14
	l17.785-22.823L1141.094,508.511z" class="colorF1CCCD svgShape"></path><polygon fill="#f1cccd" points="1146.166 554.973 1143.687 543.833 1131.52 539.847 1128.606 560.79" class="colorF1CCCD svgShape"></polygon><path fill="#cccccc" d="M1129.709,629.826c-0.697,8.387,0.519,17.803,0.519,17.803c-1.258,0.132-2.473,0.353-3.665,0.685
	c-2.473,0.662-5.034-1.236-4.592-3.753c3.974-22.234,1.082-33.163-4.217-40.338l6.596,5.624
	C1127.339,613.066,1130.339,622.247,1129.709,629.826z" class="colorCCC svgShape"></path><path fill="#191777" d="M1157.002,845.057c1.249,5.859-2.3,7.921-3.573,11.286c-0.276,0.728-0.953,1.225-1.732,1.265l-3.005,0.156
	c-0.625,0.133-1.271-0.099-1.668-0.599l-0.048-0.06c-0.478-0.6-1.283-0.822-2-0.548c-7.463,2.856-21.75,4.526-24.048,0.853
	c-2.038-3.256,8.675-8.071,8.675-8.071C1133.009,854.898,1142.813,852.651,1157.002,845.057z" class="color191777 svgShape"></path><path fill="#140c68" d="M1187.774 592.921c-13.941-28.44 1.334-28.203-4.733-50.86-2.377-8.879-9.416-12.802-11.897-20.25-2.483-8.933-2.141-21.686-13.209-24.352-14.88-2.398-20.477 12.428-20.542 25.122-.042 7.993-9.089 11.876-11.204 20.012-4.678 17.992 11.388 21.534 4.939 38.679-6.952 19.354 10.013 38.904 29.161 39.669C1175.949 621.567 1194.8 607.253 1187.774 592.921zM371.951 747.419c-19.172 6.778-27.667.99-24.126-21.787 2.079-13.374 11.436-14.481 14.745-22.401 3.213-7.69 11.335-9.247 11.484-17.58.189-10.586 6.474-19.801 14.886-23.96 16.77-8.291 33.72-8.444 35.918 11.16 1.862 9.319-11.059 13.559-5.254 22.408 8.738 12.175-.182 14.494 12.719 26.177L371.951 747.419z" class="color140C68 svgShape"></path><path fill="#191777" d="M375.333,808.483c0,0-34.375,5.085-33.789,4.745c0.587-0.341,62.915,31.625,62.915,31.625l61.414-27.517
	l-30.45-8.853H375.333z" class="color191777 svgShape"></path><path fill="#f7c1ce" d="M388.537,855.387c-0.174,0.002-0.348,0.003-0.515,0.006c-0.106,0-0.212,0.001-0.318,0.001
	c-8.746,0.1-14.456-0.117-14.456-0.117s-0.419,0.094-1.185,0.252c-7.478,1.551-47.794,9.232-44.358-5.959
	c3.011-13.338,27.199-11.681,36.9-10.457c0.038,0,0.067,0.006,0.096,0.012c2.421,0.309,3.912,0.582,3.912,0.582
	s4.813-2.069,12.408-5.016c0.313-0.124,0.635-0.253,0.954-0.375c25.021-9.711,77.645-28.117,91.266-17.055
	c-0.001,0.007-0.001,0.007-0.001,0.007c0.15,0.115,0.297,0.243,0.436,0.371c0.009-0.006,0.022,0.004,0.026,0.02
	c0.145,0.137,0.281,0.278,0.418,0.421c0.12,0.115,0.237,0.246,0.342,0.388c0.044,0.04,0.086,0.093,0.128,0.148
	c0.149,0.19,0.297,0.387,0.429,0.588c-0.001,0.007,0.006,0.009,0.006,0.009c0.143,0.219,0.277,0.444,0.404,0.674
	c0.12,0.221,0.224,0.447,0.318,0.678c0.221,0.5,0.39,1.033,0.514,1.595c0.122,0.57,0.225,1.127,0.292,1.678
	c0.126,0.986,0.176,1.94,0.132,2.875C475.589,851.246,417.048,855.009,388.537,855.387z" class="colorF7C1CE svgShape"></path><path fill="#140c68" d="M388.99 858.247l-.968-2.854-.42-1.244c-.006-.008-.004-.015-.004-.015l-6.577-19.441-.944-2.788c25.045-9.721 79.299-26.201 93.155-14.667l.006.008c.155.124.302.252.439.394.009-.006.022.004.026.02.145.137.281.278.418.421.12.115.237.246.342.388.044.04.086.093.128.148.149.19.297.387.429.588-.001.007.006.009.006.009.143.219.277.444.404.674.12.221.224.447.318.678.221.5.39 1.033.514 1.595.122.57.225 1.127.292 1.678.126.986.176 1.94.132 2.875C475.676 851.551 417.516 857.871 388.99 858.247zM368.597 839.776c0 0-45.607-8.911-47.594 10.368-2.135 20.712 52.23 5.205 52.23 5.205s-20.967 4.588-19.971-7.171C354.224 836.799 368.597 839.776 368.597 839.776z" class="color140C68 svgShape"></path><path fill="#f7c1ce" d="M481.449,847.874c3.619,15.445-37.499,7.958-45.128,6.44c-0.781-0.154-1.209-0.246-1.209-0.246
	s-5.959,0.278-15.046,0.242c-0.177,0-0.355,0-0.532-0.001c-13.194-0.068-32.711-0.79-50.199-3.91
	c-21.455-3.822-39.867-11.234-39.835-25.446c0.001-0.031,0.003-0.055-0.001-0.076c0.005-0.579,0.04-1.165,0.109-1.766
	c0.004-0.016,0.002-0.023,0.001-0.031c0.074-0.618,0.178-1.241,0.309-1.879c0.122-0.573,0.289-1.118,0.51-1.629
	c0.095-0.236,0.199-0.467,0.319-0.694c0.126-0.236,0.261-0.465,0.405-0.689c0,0,0.008-0.002,0.006-0.009
	c0.133-0.206,0.281-0.408,0.432-0.603c0.042-0.055,0.084-0.111,0.129-0.151c0.107-0.147,0.225-0.28,0.345-0.399
	c0.138-0.146,0.275-0.291,0.423-0.431c0.004-0.016,0.017-0.027,0.026-0.021c1.66-1.548,3.984-2.593,6.836-3.228
	c19.614-4.363,64.134,10.9,86.7,19.444c0.327,0.122,0.655,0.251,0.975,0.374c7.76,2.938,12.679,5.005,12.679,5.005
	s1.517-0.292,3.98-0.626c0.029-0.006,0.06-0.005,0.097-0.013C453.649,836.205,478.263,834.315,481.449,847.874z" class="colorF7C1CE svgShape"></path><path fill="#191777" d="M427.962 830.319l-.938 2.847-6.958 21.143-.962 2.914c-11.974-.056-29.079-1.101-45.133-4.078 0 0 0 0-.009-.006-23.376-4.329-44.544-12.754-44.461-28.186.001-.031.003-.055-.001-.076.005-.579.046-1.174.109-1.766.004-.016.002-.023.001-.031.074-.618.178-1.241.309-1.879.122-.573.289-1.118.51-1.629.095-.236.199-.467.319-.694.126-.236.261-.465.405-.689 0 0 .008-.002.006-.009.133-.206.281-.408.432-.603.042-.055.084-.111.129-.151.107-.147.225-.28.345-.399.138-.146.275-.291.423-.431.004-.016.017-.027.026-.021 1.715-1.652 4.162-2.801 7.173-3.524C359.855 808.128 405.439 821.797 427.962 830.319zM439.715 838.241c0 0 46.376-9.457 48.561 10.161 2.348 21.077-53.152 5.739-53.152 5.739s20.275 3.839 19.162-8.128C453.21 834.432 439.715 838.241 439.715 838.241z" class="color191777 svgShape"></path><path fill="#f1cccd" d="M435.101,763.212c-8.634,12.126-0.911,45.317-0.911,45.317h-57.967c1.601-2.271,6.115-30.878-4.051-46.649
	c-16.405-25.44,1.27-45.22,1.27-45.22l24.108-4.382l1.539-7.675l1.056-5.286l0.249-1.228h10.843l0.393,2.305l0.849,5.024
	l1.256,7.412l22.161,4.811C435.895,717.64,454.875,735.433,435.101,763.212z" class="colorF1CCCD svgShape"></path><path fill="#73c0ff" d="M435.098,763.22c-8.637,12.124-0.903,45.309-0.903,45.309h-57.971c1.362-1.933,4.833-22.98-0.444-38.906
	c-0.92-2.789-2.108-5.404-3.613-7.749c-16.403-25.436,1.267-45.214,1.267-45.214l24.121-4.39
	c-1.775,12.235,15.657,14.881,16.18,0.555l22.155,4.817C435.89,717.642,454.876,735.424,435.098,763.22z" class="color73C0FF svgShape"></path><path fill="#c4626e" d="M376.224,808.529c1.362-1.933,4.833-22.98-0.444-38.906c11.431-3.322,9.501,28.407,28.542,38.906H376.224z" class="colorC4626E svgShape"></path><path fill="#f1cccd" d="M466.626,788.44c-0.602,3.756-3.249,7.829-7.164,11.854c-10.015,10.285-30.414,9.826-44.407,13.566
	l-1.461-7.456c0,0,24.981-7.045,30.353-15.809c0.571-0.935,0.967-1.807,1.126-2.583c1.822-8.732-8.288-19.651-8.288-19.651
	l-1.076-50.697C435.709,717.664,469.669,769.343,466.626,788.44z" class="colorF1CCCD svgShape"></path><path fill="#73c0ff" d="M466.96,788.438c-0.649,3.533-2.768,7.971-6.294,11.843c-0.373,0.407-0.987,0.477-1.45,0.18l-4.293-2.789
	l-11.257-7.295c0.573-0.932,0.862-1.87,1.021-2.65c1.822-8.73-14.376-22.237-14.376-22.237l3.893-48.14
	c5.218-0.235,13.79,11.671,20.905,26.268c0,0,0.007,0.021,0.021,0.055C462.832,759.464,468.809,778.382,466.96,788.438z" class="color73C0FF svgShape"></path><path fill="#f1cccd" d="M396.597,806.529l0.254,4.958c0.447-0.156,0.41-0.806-0.053-0.902c-12.472-2.577-32.967,0.988-42.947-7.487
	c-6.15-5.23-9.508-11.668-10.3-16.628c-3.043-19.097,30.082-69.772,30.082-69.772l-1.224,50.631c0,0-10.11,10.919-8.288,19.651
	c0.316,1.553,1.553,3.471,3.344,5.563C374.944,801.324,396.597,806.529,396.597,806.529z" class="colorF1CCCD svgShape"></path><path fill="#73c0ff" d="M364.117,786.981c0.318,1.553,2.436,2.913,4.224,5.004l-10.456,8.696l-4.203,3.492
	c-6.149-5.232-9.759-11.926-11.112-16.764c-2.091-7.447,0.883-20.174,5.901-32.811c0.021-0.069,0.034-0.103,0.034-0.103
	c7.571-19.069,19.753-37.898,26.116-38.049l3.672,51.376C378.293,767.822,362.295,778.251,364.117,786.981z" class="color73C0FF svgShape"></path><path fill="#ffffff" d="M445.737,763.799v47.581c0,2.56-2.077,4.638-4.638,4.638h-72.903c-2.561,0-4.638-2.077-4.638-4.638v-47.581
	c0-2.56,2.077-4.638,4.638-4.638h72.903C443.659,759.161,445.737,761.238,445.737,763.799z" class="colorFFF svgShape"></path><circle cx="404.648" cy="787.589" r="7.26" fill="#4d4c63" class="color4D4C63 svgShape"></circle><path fill="#cccccc" d="M412.477 705.417c-1.456.808-3.125 2.231-5.547 2.293-3.486.083-7.843-3.107-7.843-3.107l1.056-5.286h3.782l6.536.387 1.166.69L412.477 705.417zM445.737 763.799v47.581c0 2.56-2.077 4.638-4.638 4.638h-72.903c-2.561 0-4.638-2.077-4.638-4.638 73.732 3.385 82.179-7.429 77.541-52.219C443.659 759.161 445.737 761.238 445.737 763.799z" class="colorCCC svgShape"></path><path fill="#999999" d="M357.885,800.681l-4.203,3.492c-6.149-5.232-9.759-11.926-11.112-16.764
	c-2.091-7.447,0.883-20.174,5.901-32.811c-0.504,1.484-6.995,19.716-2.392,30.87C350.158,795.358,356.387,799.246,357.885,800.681z" class="color999 svgShape"></path><path fill="#cccccc" d="M466.96,788.438c-0.649,3.533-2.768,7.971-6.294,11.843c-0.373,0.407-0.987,0.477-1.45,0.18l-4.293-2.789
	c2.257-3.913,5.585-7.018,7.149-13.076c4.184-16.215-6.369-39.522-6.941-40.923C462.832,759.464,468.809,778.382,466.96,788.438z" class="colorCCC svgShape"></path><path fill="#f1cccd" d="M418.394,691.983c-1.9,9.406-7.287,13.448-12.601,13.146c-7.129-0.399-13.944-13.908-13.944-13.908
	s-5.48-2.933-5.12-6.047c0.509-4.413,4.479-1.365,7.396-2.075c4.152-1.011,13.458-7.442,14.379-14.318
	c3.615,6.522,5.6,8.081,10.471,11.703C419.278,684.963,419.037,688.788,418.394,691.983z" class="colorF1CCCD svgShape"></path><path fill="#140c68" d="M535.279,173.301c12.671-9.566-1.914-15.726-6.109-27.173c-4.119-11.238-14.412-9.142-17.116-16.519
	c-3.15-8.595-9.819-14.108-16.644-14.957c-14.084-1.752-21.629,11.235-12.856,20.079
	C482.554,134.731,535.279,173.301,535.279,173.301z" class="color140C68 svgShape"></path><path fill="#140c68" d="M511.886,150.729h-8.353c-0.173-0.385-0.423-0.808-0.732-1.212c-1.925-2.675-5.658-5.62-5.908-7.66
	c-0.366-2.868-1.521,17.013-1.521,17.013l-7.525,6.074c0,0-1.192-8.194-0.402-12.824c0.786-4.604-1.908-5.529-1.792-8.685
	c0.116-3.156-2.725-7.277-2.282-12.963c0.343-4.4,1.393-6.991,4.668-7.69c3.419-0.729,6.974,0.653,6.974,0.653
	s5.009-1.125,8.634,1.042c3.339,1.996,6.151,8.146,4.458,13.362c-1.713,5.235,0.027,7.962,1.855,10.022
	c0.5,0.558,0.981,1.078,1.367,1.655C511.577,149.901,511.77,150.286,511.886,150.729z" class="color140C68 svgShape"></path><path fill="#f46cc3" d="M503.362,162.751c0,0,9.178,41.569-1.155,49.913c-6.073,4.903-44.792,3.287-44.792,2.74
	c0-0.547-1.276-10.757-1.276-10.757c6.654-1.215,30.382-4.376,31.324-4.832c3.807-1.842-6.894-38.447,5.808-48.962
	C502.653,145.181,502.128,154.404,503.362,162.751z" class="colorF46CC3 svgShape"></path><path fill="#f1cccd" d="M739.318,190.122c-0.84,3.77-15.042-6.98-21.515-5.652c-3.542,0.733-10.516,5.174-14.852,6.899
	c-18.685,7.403-43.049,21.876-59.521,25.066c-22.166,4.275-90.312-0.641-90.312-0.641l-4.122-22.945c0,0,22.12-18.212,39.767-14.38
	c17.647,3.847,44.103,21.234,55.781,14.09c7.648-4.672,35.905-11.388,54.789-13.892c3.496-0.458,6.671-0.778,9.327-0.916
	c0,0,3.019-9.475,6.408-10.238c4.518-1.008,7.468,4.926,13.178,9.948C734.856,183.263,740.417,185.16,739.318,190.122z" class="colorF1CCCD svgShape"></path><path fill="#140c68" d="M704.173,194.096c-18.685,7.404-44.271,19.149-60.743,22.339c-22.166,4.275-90.312-0.641-90.312-0.641
	l-4.122-22.945c0,0,22.12-18.212,39.767-14.38c17.647,3.847,44.103,21.234,55.781,14.09c7.648-4.672,35.683-13.893,54.567-16.397
	L704.173,194.096z" class="color140C68 svgShape"></path><path fill="#f1cccd" d="M641.492,213.763c-18.685,9.251-64.392-0.939-88.13,1.762c-0.931-8.335-0.982-13.227-1.379-21.333
	c10.075-5.999,19.042-15.143,32.232-14.227c13.19,0.9,42.393,17.739,42.301,3.999c-0.183-23.86,1.679-38.927,10.198-59.17
	c1.267-3.023,2.672-6.167,4.259-9.465c1.359-2.839-4.732-6.182-4.091-9.266c0.412-1.984,5.633-3.358,9.449-5.449
	c6.427-3.527,16.273-4.568,19.631-2.447c3.221,2.031-12.472,8.168-15.739,15.16c-0.962,2.596-1.114,8.704-1.282,13.177
	C647.918,152.899,657.475,205.841,641.492,213.763z" class="colorF1CCCD svgShape"></path><path fill="#191777" d="M643.576,214.728c-18.685,9.251-75.281,2.038-90.737,1.13c-0.931-8.335-3.564-15.189-3.96-23.295
	c10.075-6,22.636-14.176,35.826-13.26c13.19,0.9,41.902,18.401,41.811,4.662c-0.183-23.86-0.641-38.927,7.877-59.17l16.27,1.69
	C649.64,152.879,659.56,206.806,643.576,214.728z" class="color191777 svgShape"></path><path fill="#ff94cf" d="M519.067,150.064c-10.595-4.796-15.498-3.215-15.498-3.215l-10.297,4.005
	c-6.017,13.948-5.747,24.115,3.642,33.008c10.009,9.48,13.114,20.549,26.765,27.022c11.869,5.628,29.682,4.911,29.682,4.911
	l-4.121-22.945C549.24,192.849,530.493,155.236,519.067,150.064z" class="colorFF94CF svgShape"></path><path fill="#f46cc3" d="M530.493,163.623c0,0,8.388,46.011-1.945,54.354c-6.073,4.903-44.792,3.287-44.792,2.74
	c0-0.547-1.276-10.757-1.276-10.757c6.654-1.215,29.203-4.528,30.145-4.984c3.807-1.842-11.76-41.155-3.287-53.797
	C515.442,142.073,529.259,155.275,530.493,163.623z" class="colorF46CC3 svgShape"></path><path fill="#d3d2ff" d="M498.365,221.413h-48.144c-1.25,0-2.322-0.893-2.548-2.122l-6.325-34.347
	c-0.293-1.593,0.929-3.061,2.549-3.061h48.144c1.25,0,2.322,0.892,2.549,2.122l6.325,34.347
	C501.207,219.945,499.984,221.413,498.365,221.413z" class="colorD3D2FF svgShape"></path><path fill="#f1cccd" d="M503.578,146.85c-2.714,11.49-11.374,12.298-10.315,4.003l-1.232-4.254l-2.425-8.391l-0.327-1.155
	l7.179-3.022l1.905,3.407l2.31,4.195L503.578,146.85z" class="colorF1CCCD svgShape"></path><path fill="#cccccc" d="M500.673,141.635c-0.905,1.02-2.002,2.136-2.945,2.848c-2.02,1.52-5.678,2.117-5.678,2.117h-0.019
	l-2.425-8.391l3.156-1.367l5.6,0.597L500.673,141.635z" class="colorCCC svgShape"></path><path fill="#f1cccd" d="M483.024,130.746c0,0-2.296,14.4,6.152,14.218c8.448-0.182,10.354-9.187,10.354-9.187
	s3.553-2.481,2.216-4.912c-1.337-2.431-3.266,0.668-3.266,0.668s-6.577-0.348-9.619-7.353
	C487.946,126.583,485.618,129.394,483.024,130.746z" class="colorF1CCCD svgShape"></path><path fill="#191777" d="M464.125,200.737c0-2.685,2.177-4.862,4.862-4.862c2.685,0,4.862,2.177,4.862,4.862
	c0,2.685-2.177,4.862-4.862,4.862C466.302,205.599,464.125,203.422,464.125,200.737z" class="color191777 svgShape"></path><path fill="#140c68" d="M741.624,187.634c-0.483-0.572-1.527-1.641-2.922-3.004c-0.091-0.088-0.178-0.174-0.271-0.265
	c-0.066-0.065-0.137-0.132-0.205-0.198c-1.346-1.305-2.97-2.842-4.729-4.471c-0.042-0.039-0.083-0.077-0.125-0.116
	c-0.919-0.851-1.872-1.722-2.84-2.599c-0.102-0.093-0.204-0.184-0.306-0.277c-0.937-0.847-1.883-1.692-2.823-2.521
	c-0.12-0.106-0.239-0.211-0.359-0.316c-0.398-0.35-0.794-0.696-1.186-1.038c-0.077-0.066-0.154-0.134-0.23-0.201
	c-0.443-0.384-0.879-0.759-1.311-1.127c-0.126-0.108-0.25-0.213-0.375-0.319c-0.341-0.289-0.677-0.572-1.007-0.849
	c-0.107-0.09-0.215-0.181-0.321-0.269c-0.406-0.338-0.802-0.664-1.188-0.977c-0.106-0.086-0.207-0.167-0.311-0.251
	c-0.303-0.245-0.599-0.48-0.886-0.707c-0.101-0.08-0.203-0.161-0.303-0.238c-0.354-0.277-0.695-0.537-1.019-0.779
	c-0.07-0.052-0.133-0.098-0.201-0.148c-0.262-0.194-0.512-0.374-0.75-0.54c-0.081-0.057-0.163-0.115-0.24-0.168
	c-0.279-0.191-0.542-0.365-0.779-0.511c-0.033-0.02-0.059-0.034-0.09-0.053c-0.205-0.123-0.389-0.224-0.557-0.308
	c-0.052-0.026-0.102-0.051-0.15-0.072c-0.179-0.081-0.341-0.146-0.466-0.17c-0.799-0.155-1.721,0.664-2.645,1.961l-0.004,0.004
	c-2.631,3.699-5.293,11.277-5.293,11.277c1.898,2.454,2.622-0.761,5.433,1.124c1.015,0.681,1.5,1.581,1.707,2.452
	c0.345,1.459,1.655,2.599,3.158,2.853c0.552,0.093,1.159,0.225,1.81,0.4c0.293,0.077,0.594,0.164,0.903,0.261
	c0.561,0.173,1.149,0.376,1.758,0.612c0.282,0.109,0.569,0.225,0.859,0.35c0.686,0.29,1.393,0.62,2.115,0.994
	c0.306,0.16,0.617,0.327,0.929,0.504c0.789,0.442,1.59,0.938,2.396,1.49c0.189,0.129,0.38,0.262,0.571,0.399
	c0.312,0.224,0.619,0.435,0.92,0.635c0.664,0.44,1.303,0.822,1.914,1.151l0.002,0.001c0.191,0.104,0.38,0.203,0.568,0.296
	c0,0,0,0,0.001-0.001c5.685,2.841,8.926,1.001,9.534-1.33C742.566,189.578,742.345,188.488,741.624,187.634z" class="color140C68 svgShape"></path><path fill="#191777" d="M667.468,95.279c-0.72,0.044-2.15,0.236-4.009,0.53c-0.12,0.019-0.237,0.037-0.362,0.057
	c-0.088,0.014-0.182,0.03-0.271,0.044c-1.786,0.289-3.912,0.66-6.187,1.082c-0.054,0.01-0.107,0.02-0.161,0.03
	c-1.188,0.221-2.412,0.456-3.649,0.7c-0.13,0.026-0.26,0.052-0.391,0.077c-1.195,0.238-2.395,0.482-3.579,0.732
	c-0.151,0.032-0.301,0.064-0.452,0.096c-0.501,0.106-0.996,0.213-1.487,0.32c-0.096,0.021-0.193,0.042-0.288,0.063
	c-0.553,0.121-1.094,0.243-1.628,0.365c-0.156,0.036-0.309,0.071-0.463,0.107c-0.421,0.097-0.833,0.194-1.237,0.29
	c-0.131,0.031-0.265,0.062-0.394,0.093c-0.496,0.12-0.976,0.238-1.441,0.356c-0.128,0.032-0.249,0.064-0.374,0.096
	c-0.364,0.094-0.717,0.186-1.058,0.278c-0.12,0.032-0.242,0.065-0.359,0.097c-0.418,0.115-0.817,0.228-1.19,0.339
	c-0.08,0.024-0.152,0.047-0.23,0.07c-0.302,0.092-0.585,0.181-0.851,0.269c-0.091,0.03-0.182,0.06-0.268,0.089
	c-0.309,0.105-0.595,0.209-0.844,0.308c-0.034,0.014-0.06,0.027-0.093,0.04c-0.213,0.088-0.397,0.172-0.559,0.253
	c-0.05,0.025-0.098,0.05-0.143,0.075c-0.166,0.091-0.309,0.18-0.4,0.263c-0.581,0.53-0.479,1.715-0.007,3.178l0.001,0.005
	c1.346,4.169,5.677,10.597,5.677,10.597c2.993-0.054,0.923-2.468,4.002-3.557c1.112-0.392,2.088-0.249,2.882,0.093
	c1.329,0.574,2.966,0.217,4.029-0.8c0.391-0.374,0.842-0.768,1.354-1.171c0.228-0.182,0.469-0.365,0.723-0.548
	c0.457-0.334,0.954-0.673,1.487-1.008c0.247-0.155,0.502-0.311,0.765-0.463c0.62-0.364,1.283-0.72,1.989-1.064
	c0.3-0.145,0.608-0.289,0.925-0.429c0.797-0.355,1.642-0.689,2.534-0.995c0.209-0.072,0.422-0.144,0.638-0.212
	c0.353-0.113,0.694-0.228,1.022-0.347c0.723-0.261,1.387-0.535,1.994-0.818l0.002-0.001c0.191-0.088,0.377-0.177,0.557-0.269
	c0,0,0,0,0-0.001c5.476-2.762,5.921-6.332,4.466-8.147C669.516,95.67,668.544,95.213,667.468,95.279z" class="color191777 svgShape"></path><path fill="#301f89" d="M268.37 700.142c-.727 0-1.317-.589-1.317-1.317V685c0-.727.59-1.317 1.317-1.317.727 0 1.317.589 1.317 1.317v13.825C269.686 699.552 269.097 700.142 268.37 700.142zM268.37 659.008c-.727 0-1.317-.59-1.317-1.317v-27.308c0-.727.59-1.317 1.317-1.317.727 0 1.317.59 1.317 1.317v27.308C269.686 658.419 269.097 659.008 268.37 659.008zM268.37 604.392c-.727 0-1.317-.59-1.317-1.317v-27.308c0-.727.59-1.317 1.317-1.317.727 0 1.317.59 1.317 1.317v27.308C269.686 603.803 269.097 604.392 268.37 604.392zM268.37 549.776c-.727 0-1.317-.589-1.317-1.317v-27.308c0-.727.59-1.317 1.317-1.317.727 0 1.317.59 1.317 1.317v27.308C269.686 549.187 269.097 549.776 268.37 549.776zM268.37 495.161c-.727 0-1.317-.59-1.317-1.317v-27.308c0-.727.59-1.317 1.317-1.317.727 0 1.317.59 1.317 1.317v27.308C269.686 494.571 269.097 495.161 268.37 495.161zM268.37 440.545c-.727 0-1.317-.59-1.317-1.317V411.92c0-.727.59-1.317 1.317-1.317.727 0 1.317.59 1.317 1.317v27.308C269.686 439.955 269.097 440.545 268.37 440.545zM268.37 385.929c-.727 0-1.317-.59-1.317-1.317v-27.308c0-.727.59-1.317 1.317-1.317.727 0 1.317.59 1.317 1.317v27.308C269.686 385.339 269.097 385.929 268.37 385.929zM268.37 331.313c-.727 0-1.317-.59-1.317-1.317v-27.308c0-.727.59-1.317 1.317-1.317.727 0 1.317.59 1.317 1.317v27.308C269.686 330.723 269.097 331.313 268.37 331.313zM268.37 276.697c-.727 0-1.317-.59-1.317-1.317v-27.308c0-.727.59-1.317 1.317-1.317.727 0 1.317.59 1.317 1.317v27.308C269.686 276.107 269.097 276.697 268.37 276.697zM268.37 222.081c-.727 0-1.317-.59-1.317-1.317v-27.308c0-.727.59-1.317 1.317-1.317.727 0 1.317.59 1.317 1.317v27.308C269.686 221.492 269.097 222.081 268.37 222.081zM268.37 167.465c-.727 0-1.317-.59-1.317-1.317v-13.825c0-.727.59-1.317 1.317-1.317h13.825c.727 0 1.317.59 1.317 1.317s-.589 1.317-1.317 1.317h-12.509v12.508C269.686 166.876 269.097 167.465 268.37 167.465zM349.268 153.64h-33.537c-.727 0-1.317-.59-1.317-1.317s.589-1.317 1.317-1.317h33.537c.727 0 1.317.59 1.317 1.317S349.995 153.64 349.268 153.64zM396.63 153.64h-13.825c-.727 0-1.317-.59-1.317-1.317s.59-1.317 1.317-1.317h13.825c.727 0 1.317.59 1.317 1.317S397.357 153.64 396.63 153.64zM1155.04 392.734c-.728 0-1.317-.59-1.317-1.317v-27.65c0-.727.589-1.317 1.317-1.317s1.317.59 1.317 1.317v27.65C1156.357 392.145 1155.768 392.734 1155.04 392.734zM1155.04 337.433c-.728 0-1.317-.59-1.317-1.317v-27.65c0-.727.589-1.317 1.317-1.317s1.317.59 1.317 1.317v27.65C1156.357 336.844 1155.768 337.433 1155.04 337.433zM1155.04 282.133c-.728 0-1.317-.59-1.317-1.317v-27.65c0-.727.589-1.317 1.317-1.317s1.317.59 1.317 1.317v27.65C1156.357 281.543 1155.768 282.133 1155.04 282.133zM1155.04 226.832c-.728 0-1.317-.59-1.317-1.317v-27.65c0-.727.589-1.317 1.317-1.317s1.317.59 1.317 1.317v27.65C1156.357 226.242 1155.768 226.832 1155.04 226.832zM1155.04 171.531c-.728 0-1.317-.59-1.317-1.317V153.64h-8.443c-.728 0-1.317-.59-1.317-1.317s.589-1.317 1.317-1.317h9.759c.728 0 1.317.59 1.317 1.317v17.891C1156.357 170.942 1155.768 171.531 1155.04 171.531zM1117.63 153.64h-27.65c-.728 0-1.317-.59-1.317-1.317s.589-1.317 1.317-1.317h27.65c.728 0 1.317.59 1.317 1.317S1118.358 153.64 1117.63 153.64zM1062.33 153.64h-27.65c-.728 0-1.317-.59-1.317-1.317s.589-1.317 1.317-1.317h27.65c.728 0 1.317.59 1.317 1.317S1063.057 153.64 1062.33 153.64zM1007.029 153.64h-27.65c-.728 0-1.317-.59-1.317-1.317s.589-1.317 1.317-1.317h27.65c.728 0 1.317.59 1.317 1.317S1007.757 153.64 1007.029 153.64zM951.728 153.64h-27.65c-.728 0-1.317-.59-1.317-1.317s.589-1.317 1.317-1.317h27.65c.728 0 1.317.59 1.317 1.317S952.456 153.64 951.728 153.64zM896.427 153.64h-27.65c-.728 0-1.317-.59-1.317-1.317s.589-1.317 1.317-1.317h27.65c.728 0 1.317.59 1.317 1.317S897.155 153.64 896.427 153.64zM841.127 153.64h-27.65c-.728 0-1.317-.59-1.317-1.317s.589-1.317 1.317-1.317h27.65c.728 0 1.317.59 1.317 1.317S841.854 153.64 841.127 153.64zM785.826 153.64h-27.65c-.728 0-1.317-.59-1.317-1.317s.589-1.317 1.317-1.317h27.65c.728 0 1.317.59 1.317 1.317S786.554 153.64 785.826 153.64z" class="color301F89 svgShape"></path><polygon fill="#301f89" points="396.688 163.182 396.688 141.427 418.007 152.406" class="color301F89 svgShape"></polygon><polygon fill="#301f89" points="1144.124 389.627 1165.879 389.627 1154.9 410.945" class="color301F89 svgShape"></polygon></svg></g></svg>