<svg xmlns="http://www.w3.org/2000/svg" viewBox="0 0 1092.98 883.29"><defs><style>.cls-1,.cls-14,.cls-15,.cls-17,.cls-20,.cls-21,.cls-25,.cls-28,.cls-5,.cls-6,.cls-7{fill:none;stroke-linecap:round;stroke-linejoin:round;stroke-width:4px;}.cls-1{stroke:#1f2123;}.cls-16,.cls-2{fill:#0085eb;}.cls-3{fill:#09141c;}.cls-13,.cls-19,.cls-22,.cls-27,.cls-3,.cls-9{opacity:0.3;}.cls-13,.cls-16,.cls-19,.cls-22,.cls-23,.cls-24,.cls-27,.cls-3,.cls-9{isolation:isolate;}.cls-4{fill:#a0cdff;}.cls-5{stroke:#141517;}.cls-6{stroke:#09141c;}.cls-7{stroke:#082235;}.cls-8{fill:#fff;}.cls-9{fill:#082235;}.cls-10{fill:#1f2123;}.cls-11{fill:#c2c2c2;}.cls-12{fill:#a56250;}.cls-14{stroke:#000;}.cls-15{stroke:#42adff;}.cls-16,.cls-24{opacity:0.15;}.cls-17{stroke:#343434;}.cls-18{fill:#e9eef3;}.cls-19{fill:#4d4d4d;}.cls-20{stroke:#4d4d4d;}.cls-21{stroke:#2174d0;}.cls-22{fill:#2174d0;}.cls-23{fill:#3a444c;opacity:0.2;}.cls-24,.cls-26{fill:#424242;}.cls-25{stroke:#424242;}.cls-27{fill:#4f4f4f;}.cls-28{stroke:#101010;}</style></defs><g id="Слой_2" data-name="Слой 2"><g id="Слой_1-2" data-name="Слой 1"><path class="cls-1" d="M960.58,509.27,1091,518.9"/><path class="cls-1" d="M913.16,550.79,967,621.94"/><path class="cls-1" d="M69.12,317.61,2,301.52"/><path class="cls-1" d="M133,384.78l-100.08,31"/><path class="cls-1" d="M149.85,449.75l-35.74,41.4"/><path class="cls-2" d="M144.76,882.83H61l-9.52-90.48H154.28Z"/><path class="cls-3" d="M144.76,882.83H112l24-90.48h18.24Z"/><path class="cls-2" d="M164.5,776.22H41.25v36.17H164.5Z"/><path class="cls-4" d="M172,750c18.88-6,30.6-22.15,26.17-36.08S174.84,693.6,156,699.6s-30.6,22.16-26.18,36.08S153.1,756,172,750Z"/><path class="cls-4" d="M52.7,749.18c22.64-5.92,36.9-26.39,31.84-45.72S57,673.27,34.38,679.2s-36.9,26.4-31.84,45.72S30.05,755.11,52.7,749.18Z"/><path class="cls-4" d="M152.47,651.11c7.63-25.38-3-51-23.7-57.24s-43.71,9.29-51.34,34.68,3,51,23.7,57.25S144.84,676.5,152.47,651.11Z"/><path class="cls-5" d="M128,594.46c-27.35,81.86-25.65,181.76-25.65,181.76"/><path class="cls-5" d="M197.76,714.3c-70.44,9.52-94.18,36.18-94.18,36.18"/><path class="cls-6" d="M152.17,812.39H53.58"/><path class="cls-5" d="M2.58,725.33c54.3-35.67,101-16.34,101-16.34"/><path class="cls-7" d="M830.61,19.62V141.38"/><path class="cls-8" d="M852.37,237.41a24.45,24.45,0,1,0-33,10.31A24.44,24.44,0,0,0,852.37,237.41Z"/><path class="cls-2" d="M888.21,196.16l-15.59-8.52a42.24,42.24,0,0,1-21.13-28.12L849.1,148.7a18.8,18.8,0,0,0-36.72,0L810,159.52a42.48,42.48,0,0,1-21.13,28.12l-15.59,8.52a40.32,40.32,0,0,0-20.79,30.33H909.17A41,41,0,0,0,888.21,196.16Z"/><path class="cls-7" d="M764.84,202.12H896.19"/><path class="cls-9" d="M826.61,134.3a18.8,18.8,0,0,0-14.32,14.32l-2.38,10.82a42.49,42.49,0,0,1-21.13,28.11l-15.59,8.52a40.29,40.29,0,0,0-20.79,30.34h45.07c0-29.57,33.74-31.1,33.74-57.85,0-18.83-.43-34.77-.43-34.77A34.68,34.68,0,0,0,826.61,134.3Z"/><path class="cls-1" d="M671,24.82C643.3,64.75,589,145.74,503.28,177.7s-115.3-6.84-84.45-46.87c32.68-42.39,134.39-78.74,201.7-81.71s96.2,15.43,94.05,39c-2.75,30.94-72.3,100.69-176.06,96.2S515.13,53,557.11,22.16c38.8-28.49,68.93-26.65,73,4.7,4.69,35.54-24.72,148.29-131,205.48"/><path class="cls-2" d="M273.15,185.21a59.36,59.36,0,1,0-59.36-59.36A59.36,59.36,0,0,0,273.15,185.21Z"/><path class="cls-8" d="M302.57,131A24.51,24.51,0,0,1,267.9,96.35a1.5,1.5,0,0,0,0-2,1.39,1.39,0,0,0-1.23-.44,32.92,32.92,0,1,0,38.26,38.17,1.33,1.33,0,0,0-1.14-1.57A1.87,1.87,0,0,0,302.57,131Z"/><path class="cls-10" d="M554.15,541.92a18.4,18.4,0,0,1-18.6-23.07l9.05-46.74c2.54-12.69,15-23.07,27.66-23.07h176a18.39,18.39,0,0,1,18.6,23.07l-9.06,46.74c-2.53,12.68-15,23.07-27.66,23.07Z"/><path class="cls-10" d="M556.68,633.71h-.48a2.42,2.42,0,0,1-1.93-2.78l17.39-89.37a2.39,2.39,0,1,1,4.71.84L559,631.78A2.33,2.33,0,0,1,556.68,633.71Z"/><path class="cls-10" d="M695.58,633.71h-.48a2.41,2.41,0,0,1-1.93-2.78l17.39-89.37a2.39,2.39,0,1,1,4.71.84l-17.39,89.38A2.33,2.33,0,0,1,695.58,633.71Z"/><path class="cls-10" d="M407.14,880.11h-.48a2.42,2.42,0,0,1-1.93-2.78l42.51-221a2.39,2.39,0,0,1,4.71.84l-42.51,221A2.34,2.34,0,0,1,407.14,880.11Z"/><path class="cls-10" d="M509.08,880.11h-.48a2.42,2.42,0,0,1-1.93-2.78l42.51-221a2.39,2.39,0,0,1,4.71.84l-42.51,221A2.34,2.34,0,0,1,509.08,880.11Z"/><path class="cls-10" d="M752.1,880.11a2.58,2.58,0,0,1-2.42-1.94l-42.52-221a2.39,2.39,0,0,1,4.71-.84l42.52,221a2.36,2.36,0,0,1-1.93,2.78Z"/><path class="cls-10" d="M650.16,880.11a2.58,2.58,0,0,1-2.42-1.94l-42.52-221a2.4,2.4,0,0,1,4.72-.84l42.51,221a2.36,2.36,0,0,1-1.93,2.78Z"/><path class="cls-10" d="M444.6,657.87a13.29,13.29,0,1,1,0-26.57H713.94a13.29,13.29,0,1,1,0,26.57Z"/><path class="cls-11" d="M601.61,657.87a13.29,13.29,0,0,1,0-26.57H713.94a13.29,13.29,0,1,1,0,26.57Z"/><path class="cls-12" d="M594.2,313.6l-6.74-18.35c-.11-.22-4-9.4-9.73-22-7.74-16.91-21.56-34.93-32.5-53.94-10.39-18.13-24.54-26.86-44-26.86-15.37,0-28.63,3.53-39,13.81-20.56,20.56-18.13,36.81-14.81,49.64,3.42,13.48,6.74,22.1,15.8,45.1,5.09,12.71,15.92,26.19,31.17,26.19A20,20,0,0,0,497,327c12.6-1.88,19.23-7.07,20.23-7.85h.22l3.2,8.85,4.76,19.23,42.88,15.7Z"/><path class="cls-13" d="M531.75,304.75a97.36,97.36,0,0,1-14.48,14.15V319l3.2,8.85,1.44,4.2c0,.11.22.11.22,0L532,304.75C532,304.64,531.86,304.64,531.75,304.75Z"/><path d="M559.38,278c8,0,14-1.65,18.24-4.75,0,0,.11-.11,0-.11-10.83-23.77-21.11-44.22-29.85-59.14-10.39-18.13-26.86-28.07-46.31-28.07-15.37,0-31.39,6.52-41.78,16.8-20.56,20.56-15.81,40.12-12.49,52.94,0,0,0,.12.11.12.88.22,11.49,2.54,20.33-9.29,0-.11.11-.11.23,0,8.18,14.15,24.65,5.86,26,5.08h.11c.55.89,5.09,8.3,14.26,8.52a.11.11,0,0,0,.11-.11c.22-.56.55-1.22.78-1.77,3.42-8.18,10.5-25.54,23.76-25.54a18.43,18.43,0,0,1,7,1.44,16.57,16.57,0,0,1,9.94,10.06c4,12.27-5.63,29.95-6.41,31.5,0,.11,0,.11.11.11A55.86,55.86,0,0,0,559.38,278Z"/><path class="cls-14" d="M527.66,264.08l5.63-10.62"/><path class="cls-14" d="M486.76,304.2a9.68,9.68,0,0,1,7.29-5.64"/><path class="cls-14" d="M474.61,287.62c.66,2.43,1.77,5.08,2.54,5.64a5.77,5.77,0,0,0,3.32.55"/><path class="cls-14" d="M489.19,271.48a11,11,0,0,1-6.74,3.43"/><path class="cls-14" d="M464.54,283a17.84,17.84,0,0,1-5.86,2.76"/><path class="cls-14" d="M517.27,318.9c5.08-4.09,11.16-9.28,14.92-14.7"/><path class="cls-12" d="M325.15,753.76c4.64-10.28,5.31-17.36,7.85-30.07v-.11L343.83,715l88.1,46.53v10.28c-3.09,11.83-7.07,23.77-11.49,35.93-2.66,7-5.31,14.15-8.3,21.22l-62.45-17.69Z"/><path class="cls-11" d="M324.16,755.74c.33-.66.66-1.43,1-2l26.75,13.59a12.44,12.44,0,0,1,2.54,20.56l-8.62,7.3a.47.47,0,0,0,.11.77l66.33,33a4.18,4.18,0,0,0-.45,1.11c-1.21,3-2.54,6-3.87,9.06-3.2,7.3-6.52,14.81-10.28,22.33a9.71,9.71,0,0,0-.77,1.55L319,833.56l-56.48-38.13C273.75,783.93,306.91,789.9,324.16,755.74Z"/><path class="cls-2" d="M249,811.57a43,43,0,0,1,9.18-12.72,39.74,39.74,0,0,1,4.2-3.42L397,862.63c-2.87,6-6,11.94-9.17,18Z"/><path class="cls-2" d="M657.54,525.72l-7.3-34.05-104.46,16.8s-114.4,33-156.63,65c-32,24.21-36.47,45.76-47.75,105.34-3,15.92-5.86,31.84-8.4,44.77a.11.11,0,0,0,.11.11L431.82,772c17.24-64.88,18.79-97.16,18.68-139l119.82.33C627.14,633.6,669.59,581.21,657.54,525.72Z"/><path class="cls-13" d="M367.93,621.88c21.11-48.41,82.57,11.06,82.57,11.06.22,41.78-1.44,74.17-18.68,139-3.09,11.83-7.07,23.77-11.5,35.93-2.65,7-5.3,14.15-8.29,21.22a4.66,4.66,0,0,0-.44,1.11c-1.21,3-2.54,6-3.87,9.06-3.2,7.3-6.52,14.81-10.28,22.33a3.29,3.29,0,0,0-.44,1.1c-2.87,6-6,11.94-9.17,18l-41.34-20.67c4.2-25,37.8-25,34.26-64.55C377.88,763,350.47,658.58,367.93,621.88Z"/><path class="cls-12" d="M405.73,800.62c-.66-12-.77-15.69-6.41-35.37l5.86-12.49,99.48,1.88,4.65,9c2.54,11.94,4.42,24.54,5.86,37.48.88,7.84,1.65,15.8,2.21,24,.11,1.33.22,2.54.22,3.87,0,.11,0,.11-.11.11l-86,12.49Z"/><path class="cls-11" d="M369.26,859.87c11.05-18.46,35.15-23.65,36.47-59.25H434.8a12.48,12.48,0,0,1,11.5,17.25l-4.42,10.28c-.11.33.11.77.44.77h75.17c.11,0,.11,0,.11.11.11,1.88.33,3.76.44,5.64.44,8.07.77,16.25.88,24.54v3a.11.11,0,0,1-.11.11l-40.67,7.08L368,862.3a.11.11,0,0,1-.11-.11C368.37,861.53,368.81,860.64,369.26,859.87Z"/><path class="cls-2" d="M368,862.3H518.81c.11,0,.11,0,.11.11.11,6.08,0,12.16-.11,18.46l-155,.56a41.73,41.73,0,0,1,2.54-15.37A23,23,0,0,1,368,862.3Z"/><path class="cls-2" d="M670.14,491.67l-140.6,3.21S498,508.25,462,519.53c-38.91,12.16-82.91,31.5-98.16,59.13-20.12,36.48,6,84.34,22.77,142.49,4.42,15.58,9.06,31.17,12.71,43.88l109.88-1.44a.11.11,0,0,0,.11-.11C495.49,698,482.45,671,463.54,633.71c0-.11,0-.22.12-.22H623.05C701.53,633.71,714.24,548.38,670.14,491.67Z"/><path class="cls-15" d="M356.77,614.7c1.87,30.29,18.12,65.77,29.84,106.45,4.42,15.58,9.06,31.17,12.71,43.88"/><path class="cls-16" d="M447.63,606.19l15.8,27.19h71.41c-38.58,0-73.06-31.5-87.1-27.41C447.63,606.08,447.52,606.19,447.63,606.19Z"/><path class="cls-17" d="M441.66,829,426.51,862.3"/><path class="cls-17" d="M345.27,795.65l-36,23.32"/><path class="cls-17" d="M398.11,827.93l14,7.29"/><path class="cls-17" d="M391.37,836.44,402.54,848"/><path class="cls-17" d="M310.23,773.65l12.82,12.49"/><path class="cls-17" d="M301.72,780.06l7,15.48"/><path class="cls-15" d="M463.43,633.49,447.3,605.64"/><path class="cls-18" d="M462,519.53s9.06-81.58,19.12-128.45,39-63.11,39.35-63.22l1.44,4.2a26.86,26.86,0,0,0,4.09,7.62,25.55,25.55,0,0,0,20.34,10.17A25.13,25.13,0,0,0,561.26,345c20.34-15,26.09-49.41,26.2-49.74a93.56,93.56,0,0,1,24.31-3.43c50.52,0,76.72,39.35,90.76,63.23C726.07,395.17,756.91,476,737,517.1c-6.74,13.81-19.23,22.66-36.81,25.75a42.52,42.52,0,0,1-7,.55c-22.33,0-62-14-116.28-41.12l-47.42.78S500.91,508.47,462,519.53Z"/><path class="cls-19" d="M524.56,412.2l5,90.86c0,.11,0,.11-.12.11-1.32.22-16.47,3.09-39.13,8.73a.11.11,0,0,1-.11-.11l34.27-99.59C524.45,412.08,524.56,412.08,524.56,412.2Z"/><path class="cls-20" d="M524.56,411.64l5,91.53"/><path class="cls-19" d="M631.23,399.15l11.83,39.35c0,.11,0,.11-.11.11-8.18-2.65-16.69-5.74-25.21-7.84L631,399.15C631,399,631.23,399,631.23,399.15Z"/><path class="cls-12" d="M481.13,524.61c11.61,0,31.61-32.83,31.84-33.05,19.45-3.65,26-6.74,27.74-7.63a.84.84,0,0,1,1,0c2,1.11,9.72,5.31,19.78,10.51l23.44-70.09a267.41,267.41,0,0,0-44-4.09c-46.65-2.65-91.08,28.74-104.79,53.17-7.85,12.27-1.21,18-1.1,18-5.09,8.84-2.21,16,4.64,18.13-.33,3.87,2.21,9.62,7.52,9.28,13.7-.77,34.59-24.09,41.89-30.39.55-.22.66.33.44.55C487.65,493.77,471.51,526.49,481.13,524.61Z"/><path class="cls-14" d="M440,509.58c6.74-8,20-26,39.13-38.36"/><path class="cls-14" d="M435,491.45c14.7-21.44,36.25-37,36.25-37"/><path class="cls-20" d="M584.91,424.35c36.15,5.64,46,10.06,58.48,15.26"/><path class="cls-20" d="M631.12,398.82l12.27,40.79"/><path class="cls-20" d="M577,502.28l-15.48-7.84"/><path class="cls-10" d="M852.57,506.72H827.35V881.19h25.22Z"/><path class="cls-10" d="M238.1,506.72H212.88V881.19H238.1Z"/><path class="cls-10" d="M182.07,492.72H884.32A12.53,12.53,0,0,1,896,500.49a12.78,12.78,0,0,1,0,9.67,12.54,12.54,0,0,1-2.73,4.09,12.39,12.39,0,0,1-4.09,2.73,12.58,12.58,0,0,1-4.84.95H182.07a12.49,12.49,0,0,1-4.83-.95,12.33,12.33,0,0,1-4.1-2.73,12.7,12.7,0,0,1-2.73-13.76,12.69,12.69,0,0,1,2.73-4.1,12.54,12.54,0,0,1,8.93-3.67Z"/><path class="cls-21" d="M957.14,666.73A29.34,29.34,0,0,1,986.43,696v18H927.85V696A29.27,29.27,0,0,1,957.14,666.73Z"/><path class="cls-2" d="M957.14,695.5a80.61,80.61,0,0,1,80.67,80.67V880.48H876.46V776.17A80.68,80.68,0,0,1,957.14,695.5Z"/><path class="cls-4" d="M1037.81,809.57H876.46v70.91h161.35Z"/><path class="cls-22" d="M876.46,809.57h161.35v29.91l-161.35-15Z"/><path class="cls-21" d="M914.9,846.37h84.37"/><path class="cls-4" d="M957.07,734.58l-24.78,24.78,24.78,24.78,24.78-24.78Z"/><path class="cls-11" d="M800.1,466.62a1.49,1.49,0,0,0,1.52-1.52V429.27a1.5,1.5,0,0,0-1.52-1.52h-50a18.82,18.82,0,0,0-18.77,18.77v1.24a18.86,18.86,0,0,0,18.87,18.86Zm-9.48-11.09H750.24a7.81,7.81,0,0,1-7.78-7.77v-1.14a7.81,7.81,0,0,1,7.78-7.77h40.38Z"/><path class="cls-2" d="M839.07,475.06l8.15-70.72c0-.29-.38-.48-.57-.29-3.32,4-18.87,21.05-43.89,21.71h-.29c-17.82,0-31.85-8.72-43.8-21.8a.33.33,0,0,0-.56.28l8,70.82a19.94,19.94,0,0,0,19.91,17.73h33.18A20,20,0,0,0,839.07,475.06Z"/><path class="cls-23" d="M783,403.29c-.19.19-20,.48-24.18.48-.37,0-.75.28-.66.66l7.87,70.63A19.94,19.94,0,0,0,786,492.79h1.8Z"/><path class="cls-11" d="M802.57,427.66c27.21,0,41.52-19.53,44.27-23.61a.5.5,0,0,0-.38-.76H758.77c-.38,0-.66.48-.38.76a52.31,52.31,0,0,0,43.89,23.61Z"/><path class="cls-11" d="M206.63,457c-11.55,0-22.45-9.41-24.3-21L159,288.92A18.17,18.17,0,0,1,162.85,274a17.74,17.74,0,0,1,13.77-6h223c11.54,0,22.44,9.4,24.29,21L447.21,436a17.34,17.34,0,0,1-17.62,21Z"/><path class="cls-24" d="M279,456.83,268.8,393.44l70.52,0,10.16,63.42Z"/><path class="cls-11" d="M241.93,493.28l26.76-100,70.51,0-26.76,100Z"/><path class="cls-8" d="M295.59,355.41c-7.42,0-14.7-5.73-18.13-14.25a23.93,23.93,0,0,1-1.06-15.55,14.85,14.85,0,0,1,8.51-10.05,13.28,13.28,0,0,1,5-.95c7.42,0,14.7,5.72,18.13,14.24,4.32,10.72,1,22.21-7.45,25.6A13.33,13.33,0,0,1,295.59,355.41Z"/><path class="cls-25" d="M252.16,456.22l16.56-61.75h70.49l-16.56,61.75"/><path class="cls-11" d="M329,493.28l0-2.33a13.73,13.73,0,0,1,13.72-13.72h225.6A13.74,13.74,0,0,1,582,491v2.33Z"/><path class="cls-26" d="M487.65,493.28l0-2.33a13.73,13.73,0,0,1,13.72-13.72h66.92A13.74,13.74,0,0,1,582,491v2.33Z"/><path class="cls-11" d="M729.29,818.7h65a.66.66,0,0,1,.18,1.29,195.84,195.84,0,0,0-31.52,13.14c-12.77,6.71-26.29,15.9-35.38,27.66h-42.1s1.66-6.89,7.72-15.53,16.73-19.12,34.65-26.19A2.87,2.87,0,0,1,729.29,818.7Z"/><path class="cls-27" d="M762.93,833c-12.68,6.71-26.19,15.8-35.29,27.66h-42.1s1.57-6.89,7.63-15.53Z"/><path class="cls-11" d="M819.18,881.29h-97.7V860.06s21.23-14.52,48.8-14.52c23.25,0,42.1,10.38,47.33,13.6a3.07,3.07,0,0,1,1.47,2.66Z"/><path class="cls-11" d="M721.94,881.29H623.88v-21a.51.51,0,0,1,.18-.37c2.11-1.37,22.52-14.43,48.62-14.43,27.57,0,49.26,14.53,49.26,14.53Z"/><path class="cls-28" d="M624.34,860.06s21.23-14.52,48.8-14.52,48.8,14.52,48.8,14.52v21.23"/></g></g></svg>