<svg xmlns="http://www.w3.org/2000/svg" viewBox="0 0 208 208"><defs><style>.cls-1{fill:#fff;}</style></defs><g id="Слой_2" data-name="Слой 2"><g id="Слой_1-2" data-name="Слой 1"><path class="cls-1" d="M203.31,56.23,151.77,4.69A16.13,16.13,0,0,0,140.45,0H67.55A16.13,16.13,0,0,0,56.23,4.69L4.69,56.23A16.13,16.13,0,0,0,0,67.55v72.9a16.13,16.13,0,0,0,4.69,11.32l51.54,51.54A16.13,16.13,0,0,0,67.55,208h72.9a16.13,16.13,0,0,0,11.32-4.69l51.54-51.54A16.13,16.13,0,0,0,208,140.45V67.55A16.13,16.13,0,0,0,203.31,56.23ZM96,56a8,8,0,0,1,16,0v56a8,8,0,0,1-16,0Zm8,104a12,12,0,1,1,12-12A12,12,0,0,1,104,160Z"/></g></g></svg>